<svg width="128" height="89" viewBox="0 0 128 89" fill="none" xmlns="http://www.w3.org/2000/svg">
<path d="M55.9631 79.2287C55.9924 80.8 54.1651 82.4574 52.2207 82.5472C52.4807 83.7631 52.7992 84.9491 52.2792 86.1912C51.5249 88.1478 49.4962 89.2141 47.4931 88.9484C44.2743 88.5032 43.4028 83.9689 46.5081 82.6071C47.6103 82.1319 49.2618 83.2281 48.0461 84.3243C47.3796 84.9453 46.2774 85.1249 46.7681 86.4269C47.0574 87.1377 47.841 87.2873 48.4782 87.1676C49.5804 86.9619 50.1883 86.0116 50.2469 84.9453C50.3934 84.025 50.0455 83.0785 49.8111 82.1282C48.361 81.4173 47.2588 79.7862 47.6653 78.1288C47.9838 76.6772 49.7525 77.2683 49.0568 78.1887C48.7382 78.8097 49.2033 79.7001 49.7232 80.1753C49.8697 79.4944 50.1004 78.8434 50.4776 78.2186C51.9314 75.9402 55.9045 75.8205 55.9631 79.2287ZM53.7879 78.1625C52.5099 77.9268 51.99 79.644 51.9607 80.5643C51.9607 80.6242 51.9607 80.6841 51.9607 80.7439C52.3964 80.6841 52.8322 80.5382 53.1801 80.2987C54.0772 79.6739 54.7474 78.488 53.7879 78.1625Z" fill="#767676"/>
<path d="M59.7647 78.9629C59.4754 79.3183 58.9225 80.0292 58.3146 80.9196C58.516 80.9196 58.6918 80.9495 58.7797 80.9495C59.2447 80.9795 58.7504 82.2253 58.2011 82.2253C57.9997 82.2253 57.7068 82.1954 57.4175 82.1954C56.0552 84.1821 54.693 86.3146 54.8944 86.4942C55.2716 86.9095 57.0989 84.8069 57.8532 83.9164C58.3769 83.3253 59.0433 84.0062 58.4904 84.6273C57.1868 86.0191 55.2423 88.7465 53.675 88.4509C52.5142 88.2713 52.0491 86.9394 53.0085 85.6075C53.415 85.0164 54.2865 83.5909 55.1837 82.1393C55.0372 82.1393 54.8944 82.1393 54.7479 82.1393C54.2243 82.1393 54.7772 80.8635 55.3009 80.8336C55.4474 80.8336 55.7074 80.8336 55.9967 80.8336C56.9231 79.352 57.736 78.0762 57.9997 77.8405C58.4647 77.3953 59.014 77.0398 59.4791 77.1596C59.9368 77.3017 60.6326 77.9565 59.7647 78.9629Z" fill="#767676"/>
<path d="M65.9416 84.6535C64.6636 86.0452 62.7521 88.7427 61.1848 88.4771C60.6062 88.3574 60.3719 87.8261 60.4305 87.1714C59.9361 87.7326 59.2696 88.2376 58.5446 88.2376C56.1387 88.2376 56.8345 85.1249 58.2553 83.4375C59.6761 81.7465 61.4741 80.5642 62.6056 81.0356C62.9828 81.1852 63.2135 81.4808 63.3307 81.8063C63.3893 81.7165 63.4186 81.6567 63.4772 81.6005C63.9422 81.1553 64.5208 80.7999 64.9566 80.9495C65.4509 81.0693 66.1174 81.7502 65.2751 82.7566C64.2901 83.8827 62.4335 86.135 62.7228 86.4306C62.9828 86.6962 64.6087 84.7994 65.363 83.9127C65.883 83.3178 66.4909 84.0586 65.9416 84.6535ZM61.0969 84.6535C61.9978 83.5273 62.547 82.5808 62.3456 82.4012C62.1735 82.2216 61.2727 83.0522 60.2876 84.2681C59.3319 85.4541 58.8375 86.6102 58.9547 86.7261C59.211 86.9918 60.1961 85.7796 61.0969 84.6535Z" fill="#767676"/>
<path d="M71.0475 78.9629C70.7582 79.3183 70.2052 80.0292 69.5973 80.9196C69.7988 80.9196 69.9745 80.9495 70.0624 80.9495C70.5275 80.9795 70.0331 82.2253 69.4838 82.2253C69.2824 82.2253 68.9895 82.1954 68.7002 82.1954C67.338 84.1821 65.9757 86.3146 66.1771 86.4942C66.5543 86.9095 68.3816 84.8069 69.136 83.9164C69.6596 83.3253 70.3261 84.0062 69.7731 84.6273C68.4695 86.0191 66.525 88.7465 64.9577 88.4509C63.7969 88.2713 63.3318 86.9394 64.2913 85.6075C64.6977 85.0164 65.5693 83.5909 66.4664 82.1393C66.32 82.1393 66.1771 82.1393 66.0307 82.1393C65.507 82.1393 66.06 80.8635 66.5836 80.8336C66.7301 80.8336 66.9901 80.8336 67.2794 80.8336C68.2058 79.352 69.0188 78.0762 69.2824 77.8405C69.7475 77.3953 70.2968 77.0398 70.7618 77.1596C71.2196 77.3017 71.9153 77.9565 71.0475 78.9629Z" fill="#767676"/>
<path d="M73.1915 84.6537C71.8842 86.0454 70.002 88.7429 68.4054 88.4773C67.2739 88.2715 67.1567 86.9359 68.0868 85.604C69.0719 84.2421 70.1741 82.1358 70.6978 81.6045C71.1628 81.1593 71.7414 80.8039 72.1772 80.9535C72.6715 81.0733 73.3673 81.7542 72.4958 82.7606C71.5107 83.8867 69.6541 86.139 69.9434 86.4345C70.2034 86.7002 71.8586 84.8033 72.6129 83.9166C73.1036 83.318 73.7408 84.0588 73.1915 84.6537ZM73.2501 80.1492C71.8586 80.1492 73.2208 77.0065 74.8174 77.3619C76.2931 77.6874 74.3523 80.5046 73.2501 80.1492Z" fill="#767676"/>
<path d="M80.154 84.6533C79.7182 85.0986 79.2568 85.6897 78.7625 86.2546C77.6603 87.4705 77.3124 87.9158 76.2394 87.7062C76.0637 87.6763 75.9501 87.6165 75.833 87.5267C75.1372 88.0317 74.4414 88.2974 73.8592 88.2974C71.8854 88.2974 71.2483 86.2509 72.4384 84.2081C73.6285 82.1355 75.5693 80.7998 76.9645 80.7998C78.4439 80.7998 79.5754 82.0457 78.4146 84.384C78.0374 85.1248 77.6017 85.7757 77.1366 86.3407C77.338 86.2509 77.6859 85.9853 78.0374 85.5999C78.5867 85.035 79.169 84.354 79.5461 83.9088C80.0661 83.3177 80.7033 84.0585 80.154 84.6533ZM76.8766 82.547C76.0344 82.547 73.1927 86.6362 74.0057 86.6362C74.6136 86.6362 77.7188 82.547 76.8766 82.547Z" fill="#767676"/>
<path d="M86.938 84.6536C85.6344 86.0453 83.7485 88.7428 82.1519 88.4771C80.5554 88.1816 80.9618 86.6102 81.9212 85.2784C82.8477 83.9465 84.0378 82.9364 83.8364 82.6707C83.6606 82.4051 81.9212 84.2121 81.372 84.8032C80.7348 85.7797 80.0939 86.73 79.6911 87.2912C79.0833 88.1516 78.8196 88.4771 78.1239 88.4771C77.0509 88.4771 77.3402 87.0255 78.6475 85.2784C79.6033 83.9465 80.4455 82.551 80.592 82.2555C81.0277 81.365 81.1706 80.9236 81.7821 80.9236C82.2471 80.9236 82.8257 81.279 82.9136 81.9C83.6094 81.3389 84.3344 80.9236 85.0595 80.9236C85.7552 80.9236 86.7403 81.7541 85.8138 83.1159C84.8874 84.4777 83.408 86.1389 83.6972 86.4344C83.9572 86.7 85.5831 84.8032 86.3375 83.9166C86.8501 83.318 87.491 84.0587 86.938 84.6536Z" fill="#767676"/>
<path d="M12.5114 41.9991L13.5074 43.8922C14.8769 46.4962 13.9175 49.7698 11.3981 51.1541L9.16806 52.3813L13.7015 60.9864C13.9212 61.4016 13.7711 61.8993 13.3682 62.1237L11.3432 63.2386C10.9368 63.4631 10.4497 63.3097 10.23 62.8982L0.101205 43.6789C-0.118509 43.2636 0.0316192 42.766 0.434428 42.5416L5.41095 39.8029C7.934 38.4149 11.1418 39.3988 12.5114 41.9991ZM8.95933 43.7612C8.61511 43.1103 7.8461 42.8484 7.20893 43.2L4.97885 44.4272L7.28584 48.8046L9.51595 47.5774C10.1531 47.2257 10.3655 46.4251 10.0359 45.804L8.95933 43.7612Z" fill="#767676"/>
<path d="M19.168 37.7268L20.8598 42.4221L23.5732 41.4007C24.0054 41.2398 24.4704 41.4568 24.6279 41.8983L25.331 43.8512C25.4884 44.2927 25.276 44.7678 24.8439 44.9287L22.1305 45.9501L24.5254 52.5983L28.8134 50.9858C29.2455 50.825 29.7106 51.042 29.868 51.4834L30.5931 53.5C30.7506 53.9414 30.5382 54.4166 30.1061 54.5775L22.8555 57.3049C22.4234 57.4657 21.9584 57.2487 21.8009 56.8073L14.4185 36.3238C14.2611 35.8823 14.4735 35.4072 14.9056 35.2463L22.1524 32.5189C22.5845 32.358 23.0496 32.575 23.2071 33.0165L23.9321 35.033C24.0896 35.4745 23.8772 35.9496 23.4451 36.1105L19.168 37.7268Z" fill="#767676"/>
<path d="M37.2513 29.2491L37.7749 31.4003C37.8848 31.8568 37.5882 32.3132 37.1744 32.418L34.4316 33.1138L38.8552 51.3339C38.9651 51.7903 38.7014 52.2392 38.2546 52.3515L36.0209 52.9164C35.6071 53.0212 35.1347 52.7593 35.0249 52.3029L30.6013 34.0828L27.8878 34.7712C27.4411 34.8835 27.0016 34.6141 26.8918 34.1577L26.3681 32.0064C26.2583 31.55 26.5219 31.101 26.9687 30.9888L36.2516 28.6355C36.6727 28.5308 37.1414 28.7927 37.2513 29.2491Z" fill="#767676"/>
<path d="M50.6889 38.9541L54.3801 44.1245C54.5888 44.435 54.706 44.8241 54.7573 45.1908L55.2114 48.5167C55.2736 48.9807 54.999 49.396 54.5449 49.4596L52.2672 49.785C51.8131 49.8486 51.37 49.5381 51.3078 49.0742L50.9892 46.7471C50.9379 46.3805 50.8244 46.0251 50.6084 45.6472L46.2251 39.5564L47.5983 49.6354C47.6605 50.0993 47.3529 50.5183 46.8989 50.5819L44.6212 50.9074C44.1964 50.9673 43.757 50.6568 43.6947 50.1928L40.7432 28.5721C40.681 28.1082 41.0215 27.6854 41.4426 27.6256L47.0746 26.8249C49.9382 26.4171 52.5785 28.4823 52.9776 31.408L53.2632 33.5031C53.5708 35.7628 52.4686 37.8878 50.6889 38.9541ZM47.5946 30.6485L45.0569 31.0114L45.7344 35.9686L48.2721 35.6057C48.9568 35.5084 49.4585 34.8275 49.356 34.0605L49.0411 31.7671C48.9422 31.0338 48.2794 30.5512 47.5946 30.6485Z" fill="#767676"/>
<path d="M68.2086 29.6793L68.703 44.551C68.7835 46.9342 66.9416 48.9134 64.642 48.9919L61.0277 49.1154C58.6951 49.1977 56.7579 47.3495 56.681 44.9663L56.1867 30.0946C56.1061 27.7114 57.9151 25.6985 60.2477 25.62L63.862 25.4965C66.158 25.4179 68.1281 27.2998 68.2086 29.6793ZM64.2758 30.1544C64.2611 29.683 63.8547 29.3613 63.3933 29.38L60.9618 29.466C60.5004 29.481 60.1195 29.8327 60.1342 30.3004L60.6029 44.3976C60.6175 44.869 61.0277 45.2581 61.4854 45.2394L63.9169 45.1534C64.3783 45.1384 64.7592 44.7194 64.7408 44.2517L64.2758 30.1544Z" fill="#767676"/>
<path d="M76.1993 26.5546L75.13 45.362L79.722 45.6352C80.1797 45.6613 80.5203 46.0542 80.4947 46.5218L80.3738 48.6656C80.3482 49.1333 79.9637 49.4812 79.5059 49.455L71.794 48.9986C71.3363 48.9724 70.9957 48.5795 71.0214 48.1119L72.2591 26.3227C72.2847 25.855 72.6692 25.5071 73.127 25.5332L75.423 25.6679C75.8844 25.6979 76.2249 26.087 76.1993 26.5546Z" fill="#767676"/>
<path d="M88.3461 30.7682L87.6467 35.7216L90.5103 36.1444C90.9644 36.2117 91.272 36.6307 91.2061 37.0946L90.9168 39.1561C90.8509 39.62 90.4407 39.9343 89.9867 39.8669L87.1231 39.4441L86.1344 46.459L90.6568 47.1249C91.1109 47.1923 91.4185 47.6113 91.3525 48.0752L91.0523 50.204C90.9864 50.6679 90.5762 50.9821 90.1222 50.9148L82.4761 49.7887C82.0221 49.7213 81.7145 49.3023 81.7804 48.8384L84.8271 27.2327C84.893 26.7688 85.3031 26.4546 85.7572 26.5219L93.4032 27.648C93.8573 27.7154 94.1649 28.1344 94.099 28.5983L93.7987 30.727C93.7328 31.191 93.3226 31.5052 92.8686 31.4379L88.3461 30.7682Z" fill="#767676"/>
<path d="M106.951 30.768L109.181 31.3479C109.628 31.4639 109.88 31.9465 109.767 32.4029L105.329 50.1704C104.761 52.4488 102.439 53.8518 100.213 53.2719L96.7085 52.359C94.4784 51.7791 93.1015 49.4072 93.6728 47.1324L98.111 29.365C98.2245 28.9086 98.6713 28.6093 99.118 28.7252L101.348 29.3051C101.795 29.4211 102.048 29.9038 101.934 30.3602L97.591 47.7385C97.4775 48.195 97.7704 48.6514 98.2172 48.7674L100.575 49.381C101.022 49.497 101.495 49.2388 101.608 48.7824L105.951 31.404C106.057 30.9513 106.504 30.652 106.951 30.768Z" fill="#767676"/>
<path d="M122.819 57.8663L121.629 60.7434C121.446 61.1737 120.94 61.3532 120.549 61.1774L118.439 60.2383C118.018 60.0513 117.831 59.5649 118.015 59.1346L119.036 56.7327C119.117 56.5494 119.179 56.3922 119.23 56.1977L122.273 45.9427L117.044 54.6039C116.828 54.9481 116.407 55.0903 116.044 54.9294L113.752 53.9117C113.39 53.7509 113.177 53.3281 113.272 52.9315L115.913 43.118L110.639 52.3815C110.53 52.5536 110.464 52.707 110.387 52.8904L109.365 55.2923C109.182 55.7225 108.706 55.9134 108.285 55.7263L106.176 54.7872C105.755 54.6001 105.568 54.1138 105.751 53.6835L107 50.8326C107.04 50.7391 107.131 50.5258 107.267 50.2901L116.799 34.6439C117.015 34.2997 117.436 34.1576 117.828 34.3334L120.087 35.3398C120.479 35.5157 120.662 35.9235 120.567 36.32L117.597 48.0005L123.972 37.8315C124.188 37.4873 124.61 37.3452 124.972 37.506L127.264 38.5237C127.656 38.6995 127.839 39.1073 127.744 39.5039L123.035 57.2939C122.951 57.5558 122.859 57.7728 122.819 57.8663Z" fill="#767676"/>
<path d="M66.4859 56.1267C66.4713 56.1267 66.4529 56.1267 66.4383 56.1267C66.431 56.1267 66.4237 56.1267 66.4127 56.1267C66.4054 56.1267 66.398 56.1267 66.3871 56.1267C66.3724 56.1267 66.3541 56.1267 66.3394 56.1267C43.1121 56.1267 22.6018 62.7787 10.2246 72.9474L16.0763 75.9292L16.783 82.8543C18.863 80.9574 21.397 79.1317 24.3705 77.4257C35.4184 71.0768 50.3223 67.5787 66.3358 67.5787C66.3504 67.5787 66.3687 67.5787 66.3834 67.5787C66.3907 67.5787 66.398 67.5787 66.409 67.5787C66.4163 67.5787 66.4237 67.5787 66.4347 67.5787C66.4493 67.5787 66.4676 67.5787 66.4823 67.5787C82.4994 67.5787 97.4033 71.0768 108.448 77.4257C111.421 79.1354 113.955 80.9574 116.035 82.8543L116.742 75.9292L122.593 72.9474C110.224 62.7787 89.7133 56.1267 66.4859 56.1267Z" fill="#767676"/>
<path d="M41.4572 85.4318C42.6839 85.4318 42.6839 83.4902 41.4572 83.4902C40.2304 83.4902 40.2304 85.4318 41.4572 85.4318Z" fill="#767676"/>
<path d="M89.9811 85.4318C91.2078 85.4318 91.2078 83.4902 89.9811 83.4902C88.7544 83.4902 88.7544 85.4318 89.9811 85.4318Z" fill="#767676"/>
<path d="M23.2181 72.4684C23.5587 73.0483 23.3756 73.7965 22.808 74.1444C22.2477 74.4886 21.508 74.3053 21.1674 73.7254C20.8306 73.153 21.0173 72.3936 21.5776 72.0494C22.1452 71.7015 22.8812 71.8961 23.2181 72.4684Z" fill="white"/>
<path d="M29.3377 70.0252L29.7698 70.9643C30.0921 71.664 29.8028 72.502 29.118 72.835L27.6386 73.5459C27.5287 73.5983 27.4042 73.5534 27.353 73.4411L24.9691 68.2705C24.9178 68.1583 24.9618 68.0311 25.0716 67.9787L26.4265 67.3277C27.1113 66.9985 27.9279 67.3053 28.2501 68.0049L28.4882 68.5212C28.609 68.7831 28.6493 69.0562 28.6017 69.3219C28.9203 69.4453 29.1839 69.6885 29.3377 70.0252ZM26.778 69.711L27.3932 69.4154C27.558 69.3368 27.6313 69.1273 27.5544 68.9589L27.3017 68.409C27.2211 68.2331 27.0161 68.1583 26.8513 68.2369L26.2361 68.5324L26.778 69.711ZM28.382 70.4256C28.3014 70.2497 28.0963 70.1749 27.9316 70.2535L27.1918 70.6089L27.9535 72.2626L28.6932 71.9072C28.858 71.8286 28.9313 71.6191 28.847 71.4357L28.382 70.4256Z" fill="white"/>
<path d="M30.2341 66.7143L30.7175 67.9302L31.4206 67.6384C31.5341 67.5935 31.6549 67.6459 31.7025 67.7581L31.9039 68.2632C31.9479 68.3792 31.8966 68.5026 31.7868 68.5512L31.0837 68.8431L31.7648 70.564L32.8744 70.1038C32.9842 70.059 33.1087 70.1113 33.1527 70.2236L33.3614 70.7436C33.4053 70.8596 33.3541 70.983 33.2442 71.0317L31.3693 71.8061C31.2558 71.851 31.1349 71.7986 31.0873 71.6864L28.9854 66.3888C28.9415 66.2766 28.9927 66.1494 29.1026 66.1008L30.9775 65.3263C31.0873 65.2814 31.2119 65.3338 31.2558 65.446L31.4609 65.9661C31.5048 66.0783 31.4535 66.2055 31.3437 66.2541L30.2341 66.7143Z" fill="white"/>
<path d="M34.6839 65.6067L34.6253 65.4309C34.563 65.2476 34.3689 65.1578 34.1895 65.2214L33.816 65.3561C33.6366 65.4197 33.5377 65.6142 33.5999 65.7975L33.7721 66.3026C33.8343 66.4859 34.0284 66.5757 34.2115 66.5196L34.585 66.3849C35.31 66.1268 36.0864 66.5121 36.3391 67.2529L36.6869 68.2743C36.9359 69.0038 36.5551 69.8119 35.841 70.0663L35.4675 70.201C34.7534 70.4554 33.9625 70.0663 33.7135 69.333L33.4828 68.6521C33.4425 68.5361 33.5011 68.4127 33.6146 68.3715L34.1822 68.1695C34.2957 68.1284 34.4166 68.1882 34.4568 68.3042L34.7022 69.0263C34.7644 69.2096 34.9622 69.3069 35.1416 69.2433L35.5151 69.1086C35.6946 69.045 35.7898 68.8429 35.7275 68.6596L35.3576 67.5784C35.2954 67.3951 35.1013 67.3053 34.9219 67.3689L34.5484 67.5036C33.8306 67.7505 33.047 67.3764 32.798 66.6468L32.6368 66.1717C32.3878 65.4421 32.7687 64.634 33.4828 64.3796L33.8563 64.2449C34.5813 63.9868 35.3613 64.3796 35.6103 65.1129L35.6579 65.2551C35.6982 65.371 35.6396 65.4945 35.5261 65.5357L34.9585 65.7377C34.845 65.7826 34.7241 65.7227 34.6839 65.6067Z" fill="white"/>
<path d="M38.9464 62.8534L39.1075 63.4109C39.1404 63.5306 39.0708 63.6503 38.961 63.684L38.2506 63.8972L39.6165 68.6109C39.6494 68.7307 39.5872 68.8504 39.47 68.884L38.8914 69.0599C38.7852 69.0935 38.6571 69.0299 38.6241 68.9102L37.2582 64.1965L36.5588 64.4097C36.4416 64.4434 36.3244 64.3798 36.2915 64.2601L36.1304 63.7027C36.0974 63.5829 36.1596 63.4632 36.2768 63.4296L38.679 62.7038C38.7889 62.6739 38.9134 62.7337 38.9464 62.8534Z" fill="white"/>
<path d="M45.7671 66.2279L46.104 66.153C46.2029 66.1306 46.3274 66.2017 46.353 66.3214L46.4738 66.8789C46.4995 66.9986 46.4189 67.1146 46.3017 67.1445L44.6392 67.5224C43.9837 67.6721 43.3356 67.2493 43.1928 66.587L42.4128 62.9915C42.2663 62.3218 42.6801 61.6595 43.3356 61.5136L44.0423 61.3527C44.6978 61.2031 45.346 61.6259 45.4888 62.2956L46.1296 65.2588C46.2102 65.633 46.0564 66.0109 45.7671 66.2279ZM44.4781 62.5201C44.4525 62.4004 44.328 62.318 44.2108 62.348L43.5883 62.4901C43.4711 62.5163 43.3905 62.6435 43.4198 62.7633L44.1998 66.3625C44.2254 66.4748 44.3463 66.5534 44.4634 66.5272L45.302 66.3364L44.4781 62.5201Z" fill="white"/>
<path d="M48.7443 60.4288L49.3376 60.324C49.4548 60.3016 49.5683 60.3914 49.5866 60.5111L50.3959 65.2403C50.4984 65.8464 50.0919 66.4375 49.4987 66.5423L48.5649 66.7069C47.9717 66.8117 47.3931 66.3964 47.2906 65.7903L46.4813 61.0611C46.4593 60.9414 46.5362 60.8179 46.6534 60.7992L47.2466 60.6944C47.3638 60.672 47.4773 60.7618 47.4956 60.8815L48.2866 65.5059C48.3086 65.6256 48.4258 65.7042 48.5429 65.6818L49.1691 65.5695C49.2863 65.5471 49.3742 65.4348 49.3522 65.3151L48.5613 60.6907C48.5503 60.5709 48.6272 60.4475 48.7443 60.4288Z" fill="white"/>
<path d="M54.4512 64.8065L54.5501 65.5735C54.5648 65.697 54.4842 65.8055 54.3634 65.8204L53.7555 65.9027C53.6456 65.9177 53.5394 65.8354 53.5211 65.7119L53.4186 64.9188L52.2761 65.0722L52.3786 65.8653C52.3933 65.9888 52.3127 66.0973 52.1918 66.1122L51.595 66.1945C51.4741 66.2095 51.3679 66.1272 51.3533 66.0037L51.2544 65.2368C51.2507 65.2031 51.2471 65.1769 51.2471 65.1208L51.3606 60.2085C51.3643 60.0925 51.4485 60.0027 51.5583 59.9878L52.84 59.8157C52.9499 59.8007 53.0487 59.8868 53.078 59.9803L54.4256 64.698C54.4402 64.7467 54.4439 64.7729 54.4512 64.8065ZM53.1732 63.9498L52.3237 60.9306L52.2688 64.0695L53.1732 63.9498Z" fill="white"/>
<path d="M55.8405 59.6954L56.3019 64.6077L57.503 64.488C57.6239 64.4767 57.7264 64.5628 57.7374 64.6862L57.7886 65.2474C57.7996 65.3709 57.7154 65.4757 57.5946 65.4869L55.5805 65.6852C55.4597 65.6964 55.3571 65.6103 55.3462 65.4869L54.8115 59.7964C54.8005 59.6729 54.8848 59.5682 55.0056 59.5569L55.6062 59.4971C55.727 59.4859 55.8295 59.5719 55.8405 59.6954Z" fill="white"/>
<path d="M59.4076 65.3521L58.807 65.397C58.6862 65.4045 58.5873 65.3147 58.5763 65.1913L58.1845 59.4971C58.1772 59.3736 58.2651 59.2614 58.3822 59.2539L58.9828 59.209C59.1036 59.2015 59.2062 59.2988 59.2135 59.4223L59.6053 65.1164C59.6163 65.2399 59.5284 65.3446 59.4076 65.3521Z" fill="white"/>
<path d="M63.0805 59.2195L63.1061 59.7994C63.1098 59.9228 63.0109 60.0239 62.9011 60.0276L62.1614 60.0613L62.3701 64.9737C62.3738 65.0972 62.2859 65.1982 62.165 65.202L61.5645 65.2281C61.451 65.2319 61.3448 65.1421 61.3411 65.0186L61.1324 60.1062L60.4 60.1398C60.2792 60.1436 60.1803 60.0538 60.1766 59.9303L60.151 59.3504C60.1473 59.2269 60.2352 59.1259 60.3561 59.1222L62.8608 59.0099C62.967 59.0025 63.0732 59.096 63.0805 59.2195Z" fill="white"/>
<path d="M66.3595 58.9551L66.9637 58.9476C67.0845 58.9476 67.1798 59.0412 67.1798 59.1646L67.1871 60.0363C67.1871 60.1335 67.1724 60.2308 67.1285 60.3168L66.0556 62.6213L66.0775 64.8884C66.0775 65.0118 65.986 65.1091 65.8651 65.1091L65.2609 65.1166C65.1401 65.1166 65.0449 65.023 65.0449 64.8996L65.0229 62.6325L63.8987 60.3468C63.8621 60.2607 63.8364 60.1635 63.8364 60.0662L63.8291 59.1945C63.8291 59.0711 63.9207 58.9738 64.0415 58.9738L64.6457 58.9663C64.7666 58.9663 64.8618 59.0599 64.8618 59.1833L64.8691 59.853C64.8691 59.924 64.8874 59.9951 64.924 60.055L65.5282 61.297L66.1105 60.0438C66.1361 59.9839 66.1508 59.9128 66.1508 59.8417L66.1434 59.1721C66.1471 59.0561 66.2387 58.9589 66.3595 58.9551Z" fill="white"/>
<path d="M72.6544 62.2137C72.6251 62.8909 72.0649 63.4111 71.4021 63.3774C70.7466 63.3475 70.2303 62.7749 70.2632 62.0977C70.2925 61.4278 70.8601 60.9002 71.5156 60.9339C72.1784 60.9676 72.6837 61.5476 72.6544 62.2137Z" fill="white"/>
<path d="M79.0615 63.4256L78.9553 64.4582C78.8784 65.2289 78.2046 65.7938 77.4503 65.7115L75.8244 65.5394C75.7035 65.5282 75.6193 65.4197 75.634 65.2962L76.2162 59.6133C76.2272 59.4899 76.3334 59.4038 76.4542 59.4188L77.9446 59.5759C78.699 59.6545 79.2409 60.3504 79.164 61.121L79.1054 61.6897C79.0762 61.9778 78.9736 62.2322 78.7942 62.4342C78.9992 62.7148 79.1018 63.059 79.0615 63.4256ZM78.0398 63.2647C78.0581 63.0739 77.9226 62.8981 77.7432 62.8794L76.9303 62.7934L76.7435 64.6116L77.5565 64.6976C77.7359 64.7163 77.908 64.5742 77.9263 64.3759L78.0398 63.2647ZM77.0292 61.8057L77.7066 61.8768C77.886 61.8955 78.0581 61.7533 78.0765 61.57L78.1387 60.9677C78.157 60.7769 78.0215 60.601 77.8421 60.5823L77.1646 60.5112L77.0292 61.8057Z" fill="white"/>
<path d="M81.4404 61.0275L81.2573 62.3258L82.008 62.4343C82.1288 62.453 82.2094 62.5615 82.1911 62.6812L82.1142 63.22C82.0959 63.3435 81.9897 63.4258 81.8725 63.4071L81.1218 63.2986L80.8655 65.1356L82.0483 65.3077C82.1691 65.3264 82.2497 65.4349 82.2314 65.5547L82.1545 66.1122C82.1362 66.2356 82.0299 66.3179 81.9091 66.2992L79.9061 66.0074C79.7852 65.9887 79.7083 65.8802 79.723 65.7605L80.5139 60.1033C80.5322 59.9799 80.6384 59.9013 80.7593 59.9163L82.7623 60.2081C82.8832 60.2268 82.9601 60.3353 82.9454 60.455L82.8685 61.0125C82.8502 61.136 82.744 61.2146 82.6232 61.1996L81.4404 61.0275Z" fill="white"/>
<path d="M85.8125 62.3221L85.8454 62.1387C85.8784 61.9479 85.7539 61.7721 85.5671 61.7384L85.179 61.6673C84.9922 61.6337 84.8128 61.7496 84.7798 61.9404L84.6846 62.468C84.6517 62.6588 84.7762 62.8346 84.9629 62.8757L85.3511 62.9468C86.1054 63.089 86.5961 63.8148 86.457 64.5817L86.2665 65.6442C86.131 66.4074 85.4097 66.9162 84.6663 66.7778L84.2781 66.7067C83.5348 66.5683 83.0331 65.8313 83.1686 65.0718L83.2968 64.361C83.3187 64.2413 83.4286 64.1627 83.5458 64.1851L84.139 64.2974C84.2562 64.3198 84.3331 64.4321 84.3111 64.5518L84.1756 65.3038C84.1426 65.4946 84.2672 65.6779 84.4539 65.7116L84.8421 65.7826C85.0288 65.8163 85.2083 65.6891 85.2412 65.4983L85.4426 64.3722C85.4756 64.1814 85.3511 64.0056 85.1643 63.9719L84.7762 63.9008C84.0328 63.7549 83.5311 63.0329 83.6666 62.2734L83.7545 61.7796C83.89 61.0201 84.6114 60.5076 85.3547 60.646L85.7429 60.7171C86.4972 60.8555 86.9879 61.5925 86.8488 62.352L86.8231 62.4979C86.8012 62.6176 86.6913 62.6962 86.5741 62.6737L85.9809 62.5615C85.8674 62.5577 85.7905 62.4455 85.8125 62.3221Z" fill="white"/>
<path d="M90.8169 62.0412L90.6924 62.6061C90.6668 62.7259 90.5459 62.797 90.4361 62.7708L89.7147 62.6061L88.6601 67.4024C88.6344 67.5222 88.5209 67.597 88.4037 67.5671L87.8142 67.4324C87.7043 67.4062 87.6237 67.2902 87.653 67.1705L88.7077 62.3742L87.9936 62.2096C87.8764 62.1834 87.8032 62.0674 87.8325 61.9477L87.957 61.3828C87.9826 61.263 88.0961 61.1882 88.2133 61.2181L90.6558 61.7793C90.762 61.8055 90.8425 61.9215 90.8169 62.0412Z" fill="white"/>
<path d="M96.668 64.9409L96.5105 65.4797C96.2944 66.2205 95.5218 66.647 94.804 66.4262L94.1705 66.2317L93.4528 68.6823C93.4198 68.8021 93.299 68.8657 93.1855 68.832L92.6069 68.6562C92.4897 68.6225 92.4275 68.499 92.4641 68.383L94.0643 62.9055C94.0973 62.7895 94.2181 62.7222 94.3317 62.7559L95.7488 63.1899C96.4666 63.4106 96.884 64.2001 96.668 64.9409ZM95.6902 64.5967C95.7451 64.4096 95.6499 64.2188 95.4668 64.1627L94.8333 63.9681L94.4708 65.214L95.1043 65.4086C95.2874 65.4647 95.4705 65.3562 95.5218 65.1766L95.6902 64.5967Z" fill="white"/>
<path d="M99.1156 67.7842L99.3646 69.4416C99.3755 69.5388 99.3572 69.6436 99.3279 69.7371L99.0423 70.5676C99.002 70.6836 98.8885 70.7472 98.775 70.7061L98.2074 70.5003C98.0939 70.4592 98.028 70.332 98.0682 70.216L98.2697 69.6361C98.3026 69.5463 98.3173 69.449 98.3099 69.3331L98.0097 67.3764L97.1418 69.8905C97.1015 70.0065 96.9807 70.0663 96.8671 70.0252L96.2996 69.8194C96.1934 69.782 96.1274 69.6548 96.1677 69.5388L98.0316 64.1478C98.0719 64.0318 98.2001 63.9757 98.3063 64.0131L99.7124 64.5182C100.427 64.7763 100.796 65.5807 100.544 66.3102L100.364 66.834C100.163 67.3951 99.6575 67.7543 99.1156 67.7842ZM99.3755 65.4722L98.742 65.2439L98.3136 66.4785L98.9471 66.7068C99.1192 66.7666 99.317 66.6731 99.3829 66.4823L99.5806 65.9099C99.6465 65.7266 99.5476 65.532 99.3755 65.4722Z" fill="white"/>
<path d="M100.502 71.4098L99.9421 71.1816C99.8286 71.1367 99.7774 71.0095 99.8213 70.8972L101.894 65.5957C101.938 65.4797 102.066 65.4199 102.176 65.4648L102.736 65.693C102.85 65.7379 102.897 65.8726 102.853 65.9886L100.781 71.2901C100.737 71.4023 100.616 71.4584 100.502 71.4098Z" fill="white"/>
<path d="M104.794 70.2012L105.343 70.4556C105.453 70.508 105.497 70.6427 105.446 70.7549L104.845 72.1168C104.596 72.678 103.944 72.9361 103.388 72.6817L102.523 72.2851C101.974 72.0307 101.725 71.3573 101.971 70.7961L103.541 67.2381C103.794 66.6694 104.442 66.4188 104.999 66.6732L105.863 67.0698C106.42 67.3279 106.665 67.9901 106.416 68.5588L106.028 69.4418C105.98 69.554 105.848 69.6101 105.739 69.5615L105.189 69.3071C105.079 69.2547 105.036 69.12 105.087 69.0078L105.438 68.2146C105.486 68.1024 105.431 67.9714 105.332 67.9228L104.743 67.6534C104.633 67.601 104.501 67.6459 104.45 67.7582L102.967 71.1253C102.919 71.2376 102.974 71.3685 103.084 71.4209L103.673 71.6903C103.776 71.7389 103.908 71.694 103.959 71.5818L104.516 70.3247C104.556 70.2087 104.684 70.1526 104.794 70.2012Z" fill="white"/>
<path d="M108.426 69.4606L107.833 70.6241L108.503 70.9833C108.609 71.0394 108.65 71.1704 108.595 71.2789L108.346 71.7615C108.291 71.87 108.163 71.9111 108.057 71.855L107.386 71.4959L106.544 73.1421L107.606 73.707C107.712 73.7631 107.753 73.8941 107.698 74.0026L107.441 74.5002C107.386 74.6087 107.258 74.6498 107.152 74.5937L105.358 73.6359C105.252 73.5798 105.211 73.4488 105.266 73.3403L107.859 68.2708C107.914 68.1623 108.042 68.1212 108.148 68.1773L109.942 69.1351C110.049 69.1912 110.089 69.3221 110.034 69.4306L109.778 69.9282C109.723 70.0367 109.595 70.0779 109.488 70.0218L108.426 69.4606Z" fill="white"/>
<path d="M111.619 73.6994C111.279 74.2794 110.546 74.4702 109.979 74.1222C109.419 73.778 109.225 73.0259 109.565 72.4459C109.902 71.8734 110.645 71.6826 111.206 72.0231C111.777 72.3711 111.956 73.1269 111.619 73.6994Z" fill="white"/>
<path d="M69.0525 12.7314C69.0525 16.1584 66.3317 18.9381 62.9774 18.9381C59.6231 18.9381 56.9023 16.1584 56.9023 12.7314C56.9023 9.30445 62.9774 0 62.9774 0C62.9774 0 69.0525 9.30445 69.0525 12.7314Z" fill="#767676"/>
<path d="M50.1758 21.2205C47.8322 21.2205 45.9243 19.2712 45.9243 16.8768C45.9243 14.6882 49.3152 9.43168 49.7034 8.84056L50.1794 8.11475L50.6555 8.84056C51.0436 9.43168 54.4346 14.6882 54.4346 16.8768C54.4272 19.2712 52.5194 21.2205 50.1758 21.2205ZM50.1758 10.2323C49.0076 12.1142 47.0632 15.5262 47.0632 16.8768C47.0632 18.6277 48.4583 20.0569 50.1758 20.0569C51.8895 20.0569 53.2884 18.6315 53.2884 16.8768C53.2884 15.5262 51.3439 12.1104 50.1758 10.2323Z" fill="#767676"/>
<path d="M77.1411 20.4683C74.7975 20.4683 72.8896 18.5191 72.8896 16.1246C72.8896 13.936 76.2805 8.67948 76.6687 8.08836L77.1447 7.36255L77.6208 8.08836C78.0089 8.67948 81.3998 13.936 81.3998 16.1246C81.3925 18.5191 79.4847 20.4683 77.1411 20.4683ZM77.1411 9.48012C75.9729 11.362 74.0285 14.774 74.0285 16.1246C74.0285 17.8793 75.4237 19.3047 77.1411 19.3047C78.8548 19.3047 80.2537 17.8793 80.2537 16.1246C80.2537 14.774 78.3092 11.362 77.1411 9.48012Z" fill="#767676"/>
</svg>
