<svg width="134" height="85" viewBox="0 0 134 85" fill="none" xmlns="http://www.w3.org/2000/svg">
<path d="M25.1254 28.929C25.1424 29.6382 25.0611 30.3716 24.8782 31.1292C24.6954 31.8869 24.438 32.6203 24.1096 33.3295C23.6897 34.2255 23.1818 35.0351 22.5858 35.7547C21.9898 36.4742 21.3465 37.0935 20.6523 37.6194C20.0123 38.0864 19.3418 38.4427 18.6375 38.6849C17.9332 38.9271 17.2526 39.0482 16.5957 39.0482H16.4873C15.6645 39.0309 14.9229 38.8371 14.266 38.4739C13.609 38.1106 13.0605 37.5813 12.6203 36.8894C12.3291 37.3945 12.0717 37.8477 11.8516 38.249C11.6315 38.6503 11.4487 38.9651 11.3031 39.1865C9.94859 41.4456 8.672 43.1373 7.46313 44.2582C6.76897 44.874 6.0748 45.3376 5.37725 45.6455C4.68308 45.9534 3.96183 46.1091 3.2101 46.1091C2.12991 46.1091 1.31722 45.8185 0.768661 45.2407C0.257348 44.6803 0 43.9607 0 43.082C0 42.3174 0.179468 41.4975 0.535017 40.6292C0.890565 39.7608 1.38156 38.934 2.00123 38.1487C2.67846 37.2907 3.40988 36.6265 4.19547 36.1594C4.98106 35.6924 5.75989 35.4571 6.52516 35.4571C7.16515 35.4571 7.68662 35.6439 8.08957 36.0176C8.43835 36.3532 8.61105 36.8133 8.61105 37.391C8.61105 37.8753 8.48915 38.3908 8.24196 38.9305C7.99477 39.4737 7.66292 39.9753 7.23965 40.4423C6.79944 40.9301 6.31522 41.3107 5.78698 41.5909C5.16392 41.9092 4.56118 42.0683 3.97537 42.0683C3.82977 42.0683 3.71125 42.0234 3.61982 41.9265C3.52839 41.8331 3.48438 41.712 3.48438 41.5632C3.48438 41.4145 3.52839 41.2969 3.61982 41.2138C3.71125 41.1308 3.82977 41.0893 3.97537 41.0893C4.41557 41.0893 4.85578 40.9786 5.30614 40.7537C5.75312 40.5288 6.16961 40.2036 6.55225 39.7747C6.88071 39.401 7.14484 38.9997 7.34801 38.5707C7.54779 38.1417 7.64938 37.7508 7.64938 37.3945C7.64938 37.3011 7.63922 37.1973 7.62229 37.0866C7.60535 36.9759 7.55456 36.8721 7.46991 36.7787C7.38864 36.6853 7.27351 36.6057 7.1279 36.54C6.9823 36.4742 6.77913 36.4431 6.52516 36.4431C5.90211 36.4431 5.26212 36.6437 4.6052 37.0451C3.94828 37.4464 3.32523 38.0207 2.73942 38.7679C2.19086 39.4598 1.75743 40.1863 1.43574 40.9544C1.11405 41.7189 0.954902 42.4316 0.954902 43.0854C0.954902 43.722 1.12082 44.2064 1.44928 44.5419C1.79467 44.9329 2.38048 45.13 3.20332 45.13C4.42912 45.13 5.62444 44.5869 6.79606 43.5041C7.94736 42.4593 9.17316 40.8506 10.4701 38.6849C10.6157 38.4427 10.8121 38.1106 11.0593 37.6885C11.3064 37.2699 11.5807 36.7891 11.8821 36.2459C12.1835 35.7028 12.495 35.1215 12.8133 34.4954C13.1316 33.8692 13.4397 33.2292 13.7309 32.5753C14.1711 31.6239 14.5132 30.7971 14.7603 30.0948C15.0075 29.396 15.1802 28.7906 15.2818 28.2889C15.3834 27.7838 15.4274 27.3756 15.4173 27.0573C15.4071 26.739 15.3766 26.4865 15.3224 26.2997C15.2141 25.9641 15.0109 25.7392 14.7197 25.6285C14.2998 25.459 13.8833 25.4002 13.4736 25.4452C13.0605 25.4936 12.6677 25.6043 12.2952 25.7807C11.9193 25.9572 11.574 26.1959 11.2523 26.4969C10.9306 26.7944 10.6529 27.1127 10.4159 27.4483C10.0332 28.0468 9.79282 28.6245 9.7014 29.185C9.66415 29.3718 9.66076 29.5759 9.68785 29.8007C9.71494 30.0256 9.80975 30.2401 9.97568 30.4442C10.3414 30.894 10.7884 30.9286 11.32 30.5549C11.7026 30.3128 11.9972 29.9668 12.197 29.5171C12.3968 29.1261 12.434 28.7975 12.3054 28.538C12.1767 28.2405 12.258 28.026 12.5526 27.8946C12.6609 27.8392 12.7794 27.8288 12.9081 27.8669C13.0368 27.9049 13.1282 27.9879 13.1824 28.1194C13.3111 28.3823 13.3619 28.666 13.3348 28.9739C13.3077 29.2818 13.2264 29.5863 13.0876 29.8838C12.9521 30.1813 12.776 30.4685 12.5661 30.7383C12.3562 31.0081 12.1225 31.2296 11.8652 31.3956C11.4622 31.6585 11.0254 31.7866 10.5479 31.7866C10.0739 31.7693 9.63367 31.534 9.23072 31.0877C8.79052 30.5446 8.62798 29.863 8.73634 29.0431C8.84469 28.3131 9.13929 27.597 9.61335 26.8843C9.90456 26.4727 10.2533 26.0852 10.6563 25.7219C11.0593 25.3587 11.4961 25.0681 11.9735 24.8536C12.4476 24.6391 12.9487 24.5076 13.4668 24.4627C13.9883 24.4177 14.5132 24.4938 15.0448 24.7014C15.5933 24.9262 15.9861 25.3449 16.2232 25.9607C16.3146 26.2789 16.3654 26.6387 16.3755 27.04C16.3857 27.4413 16.3349 27.8945 16.2232 28.3996C16.7176 27.8565 17.2119 27.3894 17.7029 26.9985C18.3802 26.4208 19.0574 25.9606 19.7313 25.6251C20.4085 25.2895 21.0383 25.075 21.6241 24.9816C22.6671 24.8328 23.4798 25.075 24.0656 25.7116C24.7767 26.4173 25.1254 27.4898 25.1254 28.929ZM23.2326 32.9074C23.8895 31.5824 24.201 30.2643 24.1638 28.9566C24.1638 28.3789 24.0994 27.8703 23.9707 27.431C23.8421 26.9916 23.6491 26.6526 23.3951 26.4069C23.0463 25.9952 22.5079 25.8465 21.7765 25.9572C21.2821 26.0333 20.7336 26.2236 20.1308 26.5315C19.5281 26.8394 18.9253 27.2476 18.3192 27.7492C17.6962 28.2543 17.1341 28.8079 16.6329 29.4167C16.1284 30.0256 15.7051 30.6449 15.3563 31.2814C15.3563 31.2987 15.3529 31.3091 15.3428 31.3091C15.3326 31.3091 15.3292 31.3195 15.3292 31.3368C15.2209 31.5997 15.1091 31.8661 15.0008 32.1359C14.8924 32.4058 14.7637 32.6929 14.6181 32.9905C14.1441 34.018 13.6598 34.9797 13.1655 35.8757C13.4939 36.5849 13.9477 37.1212 14.5233 37.4879C15.099 37.8511 15.7627 38.0449 16.511 38.0622C17.0968 38.0795 17.6962 37.9826 18.3091 37.7681C18.922 37.5536 19.5213 37.2319 20.1071 36.8029C20.7471 36.3359 21.3329 35.7754 21.8612 35.1215C22.3894 34.4677 22.8465 33.7308 23.2326 32.9074Z" fill="#767676"/>
<path d="M30.8828 40.695C30.9742 40.7884 31.025 40.8991 31.0352 41.0306C31.0454 41.1621 31.0013 41.2728 30.9133 41.3662C30.8964 41.4042 30.6932 41.6291 30.3106 42.0373C29.9279 42.449 29.4132 42.9057 28.7732 43.4108C26.9989 44.7739 25.3904 45.4554 23.9479 45.4554C23.1793 45.4554 22.6002 45.3171 22.2074 45.0368C21.8146 44.7566 21.5268 44.466 21.344 44.1685C20.9952 43.5527 20.897 42.7812 21.0426 41.8575C21.1882 40.9337 21.581 39.9097 22.221 38.7888C23.1149 37.1628 24.0901 35.8377 25.1432 34.8102C26.193 33.7827 27.1851 33.1842 28.1197 33.0182C28.8342 32.9074 29.4268 33.0458 29.9008 33.4402C30.2665 33.7585 30.4663 34.1875 30.5036 34.7306C30.5205 35.2911 30.3478 35.9138 29.9821 36.5954C29.6164 37.2769 29.0848 37.9723 28.3906 38.6815C27.6219 39.4842 26.8092 40.0723 25.9492 40.4459C25.2347 40.7642 24.5507 40.9234 23.8937 40.9234C23.5653 40.9234 23.2707 40.8957 23.0167 40.8403C22.7594 40.785 22.5494 40.7192 22.3869 40.6431C22.2955 40.8853 22.2176 41.1136 22.1532 41.3281C22.0889 41.5426 22.0381 41.7537 22.0009 41.9578C21.8925 42.7051 21.9535 43.2759 22.1939 43.6668C22.4851 44.21 23.0709 44.4798 23.9479 44.4798C24.6963 44.4798 25.4412 44.2896 26.1828 43.9055C26.9244 43.5215 27.5915 43.0995 28.184 42.6324C28.7766 42.1654 29.2608 41.7364 29.6367 41.342C30.0126 40.951 30.1988 40.7435 30.1988 40.7262C30.2902 40.6327 30.3986 40.5808 30.5273 40.5705C30.6559 40.5601 30.7745 40.6016 30.8828 40.695ZM23.0404 39.2662C23.0032 39.3596 22.9592 39.4426 22.905 39.5188C22.8508 39.5949 22.8034 39.6779 22.7661 39.7713C22.9118 39.8094 23.0811 39.8474 23.2741 39.882C23.4671 39.9201 23.6906 39.9374 23.9445 39.9374C25.2076 39.9201 26.4672 39.2731 27.7303 38.0034C28.3161 37.4049 28.7665 36.8237 29.0881 36.2529C29.4064 35.682 29.5588 35.1942 29.5419 34.7825C29.5046 34.5404 29.4234 34.3432 29.2947 34.1944C29.0373 33.9695 28.6987 33.9038 28.2788 33.9972C27.9131 34.0526 27.5203 34.2186 27.1005 34.4885C26.6806 34.7583 26.2505 35.1112 25.8103 35.5402C24.8216 36.5124 23.9005 37.7544 23.0404 39.2662Z" fill="#767676"/>
<path d="M37.5191 33.5786C37.8306 33.6166 37.9864 33.7931 37.9864 34.1113C37.9695 34.2601 37.9085 34.3777 37.8069 34.4608C37.7054 34.5438 37.5936 34.5784 37.4649 34.5576C37.062 34.5196 36.5879 34.5023 36.0394 34.5023C35.4908 34.5023 34.9422 34.5127 34.3937 34.53C33.9907 35.2011 33.6013 35.8792 33.2288 36.5608C32.853 37.2423 32.5313 37.865 32.257 38.4255C31.7254 39.4703 31.3394 40.3456 31.0922 41.0444C30.845 41.7433 30.6757 42.3106 30.5842 42.7396C30.4928 43.1686 30.4657 43.4973 30.503 43.7187C30.5402 43.9436 30.5842 44.0923 30.6418 44.1685C30.6587 44.2065 30.7061 44.2584 30.7773 44.3241C30.8517 44.3899 31.0041 44.421 31.2445 44.421C31.5561 44.421 31.9353 44.3138 32.3823 44.0993C32.8293 43.8848 33.3203 43.5803 33.8485 43.1894C34.2887 42.8538 34.7289 42.4732 35.1793 42.0546C35.6262 41.6326 36.0157 41.2174 36.3441 40.8092C36.4355 40.7157 36.5439 40.6604 36.6726 40.6396C36.8013 40.6223 36.9198 40.6569 37.0281 40.7503C37.1196 40.8438 37.1737 40.9545 37.1941 41.0859C37.211 41.2174 37.1771 41.3385 37.0857 41.4492C36.72 41.8782 36.3035 42.3141 35.8396 42.7535C35.3723 43.1928 34.8948 43.5976 34.4005 43.9713C33.1577 44.9227 32.1046 45.4001 31.2479 45.4001C30.828 45.4001 30.5064 45.3205 30.2896 45.1614C30.0695 45.0022 29.9138 44.8396 29.8224 44.6701C29.4736 44.1096 29.4668 43.2136 29.7953 41.9785C30.0695 40.9337 30.6079 39.5983 31.4139 37.9723C31.6712 37.4672 31.9523 36.9205 32.2638 36.3324C32.5753 35.7443 32.9139 35.1423 33.2796 34.5265C33.0223 34.5438 32.7886 34.5576 32.5787 34.568C32.3688 34.5784 32.1893 34.5818 32.0437 34.5818C31.8608 34.5991 31.6949 34.6095 31.5493 34.6095H31.5222C31.231 34.6095 31.0651 34.4504 31.0278 34.1321C31.0278 33.9833 31.0685 33.8623 31.1497 33.7688C31.231 33.6754 31.3461 33.627 31.4917 33.627C31.529 33.627 31.7694 33.6166 32.2198 33.5993C32.6667 33.582 33.2119 33.5613 33.8519 33.544C34.1804 32.9835 34.4953 32.4507 34.7966 31.9456C35.098 31.4405 35.3621 30.9942 35.5924 30.5998C35.8193 30.2089 36.08 29.7799 36.3746 29.3094C36.4491 29.1987 36.5473 29.1226 36.676 29.0845C36.8046 29.0464 36.9232 29.0672 37.0315 29.1399C37.3058 29.3267 37.36 29.5619 37.1974 29.8422C36.9401 30.2331 36.7132 30.5998 36.5134 30.9354C36.3136 31.271 36.08 31.6585 35.8125 32.0978C35.5484 32.5372 35.2673 33.0077 34.9761 33.5128C35.4502 33.5128 35.9141 33.5128 36.3611 33.5128C36.8013 33.5232 37.1907 33.5405 37.5191 33.5786Z" fill="#767676"/>
<path d="M45.8546 40.7538C45.946 40.8472 46.0002 40.9579 46.0205 41.0893C46.0375 41.2208 46.0036 41.3419 45.9122 41.4526C45.8749 41.4906 45.8309 41.5356 45.7767 41.591C45.7225 41.6463 45.6751 41.7017 45.6413 41.7605C44.8015 42.8053 44.0328 43.6771 43.3387 44.3655C42.6445 45.0574 42.0045 45.4034 41.4187 45.4034C40.9074 45.4034 40.5315 45.1993 40.2945 44.7876C40.0575 44.3378 40.0575 43.6875 40.2945 42.826C40.5315 41.9854 41.0428 40.8645 41.8318 39.4634C41.9774 39.2004 41.9876 38.7784 41.8589 38.1903C41.7302 37.6021 41.4763 36.9068 41.0902 36.1042C40.5959 36.8134 40.0236 37.6091 39.3768 38.4843C38.7267 39.363 37.975 40.3421 37.1149 41.4249C37.0234 41.5356 36.9151 41.6014 36.7864 41.6221C36.6577 41.6394 36.5494 41.6048 36.458 41.5114C36.3496 41.418 36.2853 41.3073 36.2649 41.1758C36.248 41.0444 36.2819 40.9233 36.3733 40.8126C38.2018 38.4774 39.6003 36.592 40.5688 35.1528C40.4029 34.7999 40.3588 34.3744 40.4333 33.8797C40.5044 33.385 40.5891 32.9802 40.6805 32.6619C40.7178 32.5685 40.7686 32.4232 40.8329 32.226C40.8972 32.0288 40.9853 31.8213 41.0936 31.5964C41.202 31.3715 41.3273 31.1467 41.4627 30.9252C41.6016 30.7004 41.7607 30.5136 41.9436 30.3648C42.1434 30.1953 42.3533 30.1088 42.5734 30.0984C42.7935 30.0881 42.9933 30.1676 43.1761 30.3371C43.5588 30.6727 43.6434 31.2262 43.4233 31.9908C43.2235 32.5893 42.8477 33.3469 42.2991 34.2602C42.2077 34.409 42.1129 34.5647 42.0113 34.7238C41.9097 34.883 41.8047 35.0455 41.6964 35.2151C42.8849 37.4395 43.2032 39.024 42.6547 39.9788C42.1806 40.8195 41.8284 41.5114 41.5982 42.0511C41.3679 42.5942 41.2189 43.0267 41.1444 43.3553C41.0699 43.684 41.0428 43.9158 41.0632 44.0542C41.0801 44.196 41.1004 44.2825 41.1173 44.3205C41.1343 44.3378 41.1614 44.3621 41.1986 44.3897C41.2359 44.4174 41.307 44.4313 41.4187 44.4313C41.5101 44.4313 41.6761 44.369 41.9131 44.2479C42.1501 44.1268 42.4887 43.8431 42.9289 43.3934C43.2777 43.0751 43.613 42.7153 43.9448 42.314C44.2733 41.9127 44.5949 41.5252 44.9031 41.1516C44.9403 41.0963 44.9844 41.0409 45.0385 40.9821C45.0927 40.9267 45.1401 40.8714 45.174 40.8126C45.2654 40.7192 45.3738 40.6638 45.5024 40.6431C45.6277 40.6223 45.7462 40.6604 45.8546 40.7538ZM41.4119 33.8589C41.4289 33.8209 41.4424 33.8001 41.4526 33.7897C41.4627 33.7794 41.4763 33.7586 41.4932 33.7205C41.7844 33.2362 42.0045 32.8349 42.1501 32.5166C42.2957 32.1984 42.4075 31.9389 42.4786 31.7313C42.5531 31.5272 42.5869 31.3785 42.5869 31.2816C42.5869 31.1882 42.5768 31.1224 42.5598 31.0844C42.4854 31.1397 42.3804 31.2608 42.2449 31.4476C42.1061 31.6345 41.9673 31.9147 41.8183 32.2883C41.7099 32.5685 41.6219 32.8453 41.5575 33.1151C41.5 33.3884 41.4492 33.6341 41.4119 33.8589Z" fill="#767676"/>
<path d="M53.2068 40.8922C52.9698 41.3212 52.6684 41.7986 52.3027 42.321C51.937 42.8434 51.5171 43.345 51.0397 43.819C50.5656 44.2964 50.0374 44.6908 49.4617 45.0091C48.886 45.3274 48.2698 45.4865 47.6095 45.4865C46.9525 45.4865 46.4446 45.355 46.0857 45.0956C45.7301 44.8327 45.4694 44.5628 45.3035 44.2826C44.9005 43.5907 44.7989 42.6947 45.0021 41.5911C45.2019 40.5463 45.6319 39.4254 46.2922 38.2284C46.5496 37.7786 46.895 37.2493 47.3352 36.6301C47.7754 36.0143 48.2867 35.4158 48.8725 34.838C49.0926 34.6132 49.3432 34.3848 49.6276 34.153C49.9121 33.9212 50.2033 33.7102 50.5047 33.5234C50.806 33.3366 51.1176 33.1844 51.4359 33.0598C51.7542 32.9387 52.0725 32.8765 52.3806 32.8765C52.5262 32.8765 52.6447 32.9249 52.7361 33.0183C52.8276 33.1117 52.8716 33.2328 52.8716 33.3816C52.8716 33.5303 52.8276 33.648 52.7361 33.731C52.6447 33.814 52.5262 33.8555 52.3806 33.8555C52.0149 33.8555 51.5848 34.0008 51.0905 34.2914C50.5961 34.582 50.0848 34.9972 49.5531 35.5369C49.0046 36.08 48.5203 36.6404 48.1005 37.2182C47.6806 37.7959 47.3521 38.2941 47.1117 38.7023C46.509 39.7852 46.1229 40.8023 45.9604 41.7571C45.7945 42.5978 45.8588 43.2689 46.1534 43.774C46.3904 44.2618 46.8747 44.504 47.6061 44.504C47.9887 44.504 48.3544 44.4244 48.7032 44.2653C49.052 44.1061 49.3838 43.9055 49.7055 43.6633C50.0238 43.4212 50.3218 43.1513 50.5961 42.8503C50.8704 42.5528 51.1175 42.2622 51.3377 41.982C51.4833 41.7952 51.6119 41.6118 51.7203 41.4354C51.8286 41.2589 51.9404 41.086 52.0488 40.9164C51.6661 40.8784 51.358 40.785 51.1311 40.6362C50.9008 40.4875 50.7248 40.3387 50.5961 40.1865C50.2134 39.7367 50.0204 39.159 50.0204 38.4498C50.0204 38.0208 50.0848 37.5814 50.2134 37.1317C50.3421 36.682 50.5317 36.2737 50.7891 35.9001C51.3918 35.0041 52.0792 34.5544 52.8445 34.5544C53.4303 34.5544 53.8773 34.8069 54.1888 35.312C54.48 35.779 54.6053 36.3879 54.5579 37.1317C54.5105 37.879 54.2701 38.7196 53.8299 39.6537C53.6843 39.9512 53.5658 40.19 53.4743 40.3698C53.3897 40.5532 53.2983 40.7262 53.2068 40.8922ZM52.8513 35.5403C52.6312 35.5403 52.4111 35.6233 52.1944 35.7929C51.9743 35.9624 51.7745 36.1838 51.5916 36.464C51.4088 36.7442 51.2632 37.0556 51.1514 37.4016C51.0431 37.7475 50.9855 38.0969 50.9855 38.4532C50.9855 38.602 51.0024 38.7819 51.0397 38.986C51.0769 39.1901 51.1683 39.377 51.3139 39.5465C51.551 39.8267 51.9336 39.9685 52.4653 39.9685H52.6041C52.6955 39.7817 52.77 39.6364 52.8242 39.5326C52.8784 39.4288 52.9156 39.37 52.9325 39.3493C53.1899 38.7715 53.3626 38.2768 53.454 37.8651C53.5454 37.4534 53.5895 37.1075 53.5895 36.8273C53.5895 36.547 53.5658 36.3291 53.5217 36.17C53.4777 36.0108 53.4337 35.9036 53.3998 35.8482C53.2508 35.6441 53.0714 35.5403 52.8513 35.5403Z" fill="#767676"/>
<path d="M56.2784 46.9155C55.7468 46.9155 55.3472 46.8047 55.0729 46.5799C54.7986 46.355 54.5887 46.1301 54.4431 45.9087C54.0232 45.1614 53.9961 44.0682 54.3618 42.629C54.5277 41.9578 54.7817 41.2244 55.1305 40.4287C55.4793 39.6365 55.8991 38.8096 56.3935 37.9482C56.6306 37.5365 56.9184 37.0383 57.257 36.4502C57.5956 35.862 57.9478 35.2497 58.3135 34.6131C58.6792 33.98 59.0449 33.3469 59.4106 32.7207C59.7763 32.0945 60.1014 31.5306 60.3825 31.0255C60.6669 30.5204 60.9005 30.1156 61.0834 29.8077C61.2663 29.4998 61.3577 29.3372 61.3577 29.3165C61.5236 29.0535 61.7403 28.9982 62.0146 29.1469C62.2719 29.3165 62.3261 29.5379 62.1805 29.8181C62.1805 29.8354 62.0891 30.0015 61.9062 30.3094C61.7234 30.6173 61.4897 31.0186 61.2053 31.5133C60.9209 32.008 60.5958 32.5754 60.2335 33.2085C59.8678 33.8451 59.502 34.4782 59.1363 35.1148C58.7706 35.7513 58.4185 36.3602 58.0798 36.9518C57.7412 37.5399 57.4534 38.0416 57.2164 38.4498C56.7423 39.2732 56.3394 40.0551 56.0109 40.8024C55.6824 41.5496 55.4352 42.2415 55.2693 42.8747C54.9781 44.0336 54.9849 44.8847 55.2964 45.4244C55.4793 45.76 55.8077 45.9295 56.2852 45.9295C56.6306 45.9295 56.9556 45.8188 57.257 45.5939C57.5584 45.369 57.8293 45.0992 58.0663 44.7809C58.3033 44.4626 58.5099 44.1374 58.6826 43.8018C58.8553 43.4662 58.9975 43.186 59.1093 42.9611L59.1634 42.9058C59.2921 42.6255 59.502 42.5494 59.7933 42.6809C59.9219 42.7363 60.0032 42.8297 60.0405 42.9611C60.0777 43.0926 60.0675 43.2137 60.0134 43.3244L59.9863 43.4074C59.8576 43.6704 59.6849 43.9956 59.4648 44.3865C59.2447 44.7774 58.984 45.1615 58.6826 45.5351C58.3812 45.9087 58.0291 46.2305 57.6261 46.5003C57.2198 46.7805 56.7728 46.9155 56.2784 46.9155Z" fill="#767676"/>
<path d="M72.3234 33.6654C71.6664 34.731 71.084 35.7792 70.5829 36.8171C70.0783 37.855 69.6821 38.8479 69.3909 39.8028C69.0997 40.7542 68.9338 41.5948 68.8965 42.3248C68.8593 43.0548 68.9609 43.6326 69.1979 44.0616C69.4891 44.6393 70.058 44.9299 70.8978 44.9299C72.1236 44.9299 73.5593 43.9197 75.205 41.9028C75.9195 41.0067 76.5764 40.083 77.1791 39.1281C77.7819 38.1767 78.2932 37.343 78.7165 36.6337C78.8248 36.4469 78.9264 36.2739 79.0179 36.1148C79.1093 35.9556 79.2007 35.8104 79.2921 35.6789C79.2921 35.6616 79.2955 35.6512 79.3057 35.6512C79.3158 35.6512 79.3192 35.6408 79.3192 35.6235C79.668 34.987 79.9998 34.3781 80.3215 33.7865C80.6398 33.1983 80.948 32.6621 81.2392 32.1743C81.2934 32.0428 81.3848 31.9598 81.5135 31.9217C81.6421 31.8837 81.7708 31.9044 81.8961 31.9771C82.0045 32.0532 82.079 32.1535 82.1162 32.285C82.1535 32.4164 82.1331 32.5375 82.062 32.6483C81.6591 33.3402 81.2358 34.1047 80.7854 34.9454C80.3385 35.7861 79.8813 36.6441 79.414 37.5229C78.9467 38.4016 78.4862 39.2803 78.0291 40.1556C77.5719 41.0344 77.1453 41.8543 76.7525 42.6224C76.3597 43.3869 76.0109 44.0754 75.7095 44.6808C75.4082 45.2897 75.1745 45.7499 75.0086 46.0681C75.2084 45.9574 75.4149 45.8398 75.6249 45.7187C75.8348 45.5976 76.0515 45.4627 76.2683 45.314C76.9624 44.8642 77.7311 44.2864 78.5709 43.5772C79.4106 42.868 80.2538 41.9443 81.0936 40.8026C81.185 40.6919 81.2934 40.6262 81.422 40.6054C81.5507 40.5881 81.6692 40.6158 81.7776 40.6884C81.869 40.7818 81.93 40.8925 81.9571 41.024C81.9841 41.1555 81.9537 41.2766 81.8622 41.3873C80.9649 42.5843 80.0743 43.5495 79.1872 44.2864C78.3 45.0233 77.5008 45.6357 76.7863 46.1235C76.3123 46.4418 75.8585 46.7151 75.4285 46.9504C74.9984 47.1856 74.5921 47.3759 74.2095 47.5247C73.6237 48.4761 73.0209 49.251 72.3979 49.8495C71.5208 50.6902 70.742 51.1192 70.0682 51.14H69.9869C69.4553 51.14 69.0726 50.9359 68.8356 50.5242C68.6527 50.2439 68.6155 49.9083 68.7272 49.5139C68.8356 49.1403 69.0692 48.784 69.4282 48.4484C69.7837 48.1128 70.2172 47.8499 70.7319 47.663C70.8402 47.625 70.9689 47.5835 71.1145 47.5385C71.2601 47.4901 71.4159 47.4416 71.5818 47.3828C71.8391 47.3067 72.1303 47.2202 72.4588 47.1164C72.7873 47.0126 73.153 46.8881 73.5559 46.7393C73.6101 46.6459 73.6711 46.5421 73.7354 46.4314C73.7997 46.3207 73.8573 46.2065 73.9149 46.0958C73.9521 46.0578 74.1079 45.7637 74.3822 45.2136C74.6564 44.6636 75.0052 43.9682 75.4251 43.1275C74.802 43.8367 74.1824 44.4248 73.5593 44.8919C72.6281 45.563 71.7409 45.9021 70.8978 45.9021C70.146 45.9021 69.5772 45.7533 69.1844 45.4523C68.7916 45.1548 68.5139 44.8469 68.348 44.5286C67.7452 43.4077 67.7825 41.7367 68.4563 39.5121C68.7679 38.5227 69.1844 37.4814 69.7024 36.3881C70.2239 35.2949 70.83 34.2085 71.5276 33.1222C71.9678 32.4303 72.5164 31.6934 73.1733 30.908C73.0277 30.7212 72.899 30.5344 72.7906 30.3476C72.3166 29.4135 72.2048 28.2753 72.4622 26.9295C72.5705 26.331 72.7534 25.7255 73.0108 25.1097C73.2681 24.4939 73.5762 23.9127 73.942 23.373C74.1417 23.1101 74.372 23.0651 74.626 23.2311C74.7343 23.3245 74.8054 23.4353 74.8325 23.5667C74.8596 23.6982 74.8291 23.8193 74.7377 23.93C74.4092 24.4143 74.1248 24.9333 73.8878 25.4868C73.6507 26.0369 73.4848 26.5835 73.3934 27.1267C73.302 27.6698 73.2749 28.1715 73.3121 28.6385C73.3494 29.1056 73.4679 29.5242 73.6677 29.8978C73.6846 29.9359 73.7083 29.9809 73.7354 30.0397C73.7625 30.095 73.7964 30.1435 73.8302 30.1815C74.67 29.2682 75.5572 28.4171 76.4918 27.6318C76.783 27.3896 77.1419 27.1128 77.5618 26.8049C77.9817 26.497 78.4253 26.203 78.8926 25.9227C79.3598 25.6425 79.8305 25.4107 80.3046 25.2239C80.7787 25.0371 81.229 24.9333 81.6489 24.916C82.0688 24.8779 82.3973 24.9333 82.6377 25.0855C82.8747 25.2342 83.0474 25.383 83.1592 25.5353C83.3589 25.7982 83.4504 26.1234 83.4334 26.5143C83.4165 26.9053 83.298 27.3446 83.0779 27.8324C82.8205 28.3548 82.4751 28.8738 82.0349 29.3893C81.5947 29.9048 81.0936 30.3649 80.5281 30.7766C80.054 31.1122 79.4581 31.4443 78.747 31.7695C78.0325 32.0982 77.2096 32.2608 76.2784 32.2608C75.4725 32.2608 74.7513 32.0843 74.1113 31.728C74.074 31.7107 74.0368 31.6899 74.0029 31.6726C73.9657 31.6553 73.9284 31.6277 73.8946 31.5896C73.302 32.2642 72.7805 32.9527 72.3234 33.6654ZM71.7477 49.1576C72.0762 48.822 72.3775 48.476 72.6518 48.1197C72.5062 48.1578 72.364 48.1958 72.2252 48.2304C72.0863 48.2685 71.9543 48.3065 71.829 48.3411C71.6834 48.3792 71.5411 48.4172 71.4023 48.4518C71.2635 48.4899 71.1517 48.528 71.0603 48.5626C70.6574 48.7321 70.3323 48.9327 70.0851 49.1645C69.8379 49.3963 69.6889 49.6074 69.6313 49.7942C69.6144 49.9049 69.6144 49.9706 69.6313 49.9914C69.6686 50.0294 69.7126 50.0709 69.7668 50.1159C69.821 50.1609 69.9056 50.1747 70.014 50.1574C70.4779 50.1298 71.0535 49.7942 71.7477 49.1576ZM77.0945 28.424C76.1802 29.154 75.3303 29.9636 74.5447 30.8631C74.9849 31.1433 75.5606 31.2817 76.2717 31.2817C76.9658 31.2817 77.6295 31.1571 78.2593 30.9046C78.8892 30.652 79.4648 30.3337 79.9863 29.9532C80.5078 29.5692 80.9547 29.1506 81.3306 28.6939C81.7065 28.2372 81.9943 27.8013 82.1941 27.3896C82.36 27.0713 82.4514 26.8049 82.4684 26.5904C82.4853 26.3759 82.4684 26.2306 82.4142 26.1545C82.377 26.1165 82.3126 26.0611 82.2212 25.985C82.1298 25.9089 81.9571 25.8812 81.6997 25.902C81.1681 25.9193 80.501 26.1511 79.6985 26.587C78.8959 27.0263 78.0291 27.6387 77.0945 28.424Z" fill="#767676"/>
<path d="M92.8908 40.754C92.9822 40.8474 93.0364 40.9581 93.0567 41.0896C93.0737 41.221 93.0398 41.3421 92.9484 41.4528C92.9111 41.4909 92.8705 41.5359 92.8265 41.5912C92.7791 41.6466 92.7317 41.7019 92.6741 41.7607C91.8343 42.8055 91.0657 43.6774 90.3715 44.3658C89.6773 45.0578 89.0373 45.4037 88.4515 45.4037C88.0316 45.4037 87.7167 45.3242 87.5068 45.165C87.2968 45.0059 87.1444 44.8433 87.053 44.6738C86.8532 44.3001 86.7787 43.8434 86.8329 43.3003C85.5699 44.7948 84.3542 45.5421 83.186 45.5421C82.546 45.5421 82.0618 45.4106 81.7333 45.1512C81.4048 44.8882 81.1678 44.6288 81.0188 44.3658C80.6362 43.6566 80.5718 42.7675 80.8258 41.7054C80.9342 41.183 81.1102 40.6467 81.3473 40.0932C81.5843 39.5431 81.8789 38.9861 82.2243 38.4257C83.2131 36.855 84.3271 35.613 85.5699 34.6996C86.1184 34.3087 86.6501 34.0043 87.1614 33.7898C87.6727 33.5753 88.14 33.468 88.5599 33.468C89.0339 33.468 89.4064 33.551 89.6706 33.7206C89.9347 33.8901 90.1311 34.0665 90.2597 34.2533C90.4595 34.5163 90.5882 34.8242 90.6424 35.1771C90.788 34.9522 90.9065 34.755 90.9979 34.5889C91.0894 34.4194 91.1808 34.2707 91.2722 34.1392C91.3467 33.9904 91.428 33.859 91.5194 33.7482C91.5939 33.6375 91.6921 33.5649 91.8208 33.5372C91.9495 33.5095 92.068 33.5337 92.1763 33.6064C92.2847 33.6825 92.3592 33.7828 92.3964 33.9143C92.4337 34.0458 92.4066 34.1669 92.3152 34.2776C92.3152 34.2949 92.0781 34.6824 91.6007 35.44C91.1266 36.1977 90.5306 37.2009 89.8195 38.4533C89.3455 39.294 88.9595 40.0378 88.6682 40.6813C88.377 41.3248 88.1603 41.8853 88.0249 42.3627C87.886 42.8401 87.8081 43.2276 87.7912 43.5252C87.7743 43.8227 87.8081 44.0406 87.8996 44.1686C87.9165 44.2067 87.9571 44.2586 88.0215 44.3243C88.0858 44.3901 88.228 44.4212 88.4481 44.4212C88.5396 44.4212 88.7055 44.3589 88.9425 44.2378C89.1796 44.1168 89.5283 43.8331 89.9855 43.3833C90.3139 43.065 90.6424 42.7052 90.9742 42.3039C91.3027 41.9026 91.6244 41.5151 91.9325 41.1415C91.9867 41.0861 92.0375 41.0308 92.0849 40.972C92.1289 40.9166 92.1729 40.8612 92.2068 40.8024C92.2982 40.709 92.4066 40.6537 92.5353 40.6329C92.6639 40.6225 92.7825 40.6606 92.8908 40.754ZM86.2844 42.4631C86.7415 41.9026 87.1072 41.394 87.3815 40.9373C87.6558 40.4807 87.8014 40.242 87.8217 40.2212C87.8217 40.2039 87.8251 40.1935 87.8352 40.1935C87.8454 40.1935 87.8488 40.1832 87.8488 40.1659C88.1231 39.5327 88.5057 38.7924 89.0001 37.9517C89.0915 37.7822 89.1863 37.6161 89.2879 37.4466C89.3895 37.2771 89.4843 37.1214 89.5757 36.9692V36.9138C89.5927 36.8204 89.6198 36.6855 89.657 36.509C89.6943 36.3326 89.7146 36.1458 89.7247 35.9486C89.7349 35.7514 89.7247 35.5576 89.6976 35.3604C89.6705 35.1632 89.6028 34.9902 89.4911 34.8415C89.2913 34.5785 88.9798 34.4505 88.5599 34.4505C88.3025 34.4505 87.9639 34.5301 87.544 34.6893C87.1241 34.8484 86.667 35.1079 86.1726 35.4746C85.6782 35.8379 85.1567 36.3049 84.6082 36.8757C84.0596 37.4466 83.528 38.142 83.0167 38.9619C82.3767 39.9894 81.9568 40.9685 81.7536 41.9026C81.5877 42.7813 81.6249 43.4421 81.862 43.8919C82.0821 44.3416 82.5189 44.5631 83.1792 44.5631C84.0969 44.5631 85.1297 43.8642 86.2844 42.4631Z" fill="#767676"/>
<path d="M101.694 40.7538C101.786 40.8472 101.84 40.9579 101.86 41.0893C101.877 41.2208 101.843 41.3419 101.752 41.4526C101.715 41.4906 101.671 41.5356 101.613 41.591C101.559 41.6463 101.512 41.7017 101.478 41.7605C100.638 42.8053 99.8693 43.6771 99.1751 44.3655C98.4809 45.0574 97.8409 45.4034 97.2551 45.4034C96.7438 45.4034 96.368 45.1993 96.1309 44.7876C95.8939 44.3378 95.8939 43.6875 96.1309 42.826C96.368 41.9854 96.8793 40.8645 97.6683 39.4634C97.8139 39.2004 97.824 38.7784 97.6953 38.1903C97.5667 37.6021 97.3127 36.9068 96.9267 36.1042C96.4323 36.8134 95.86 37.6091 95.2133 38.4843C94.5631 39.363 93.8114 40.3421 92.9513 41.4249C92.8599 41.5356 92.7515 41.6014 92.6228 41.6221C92.4942 41.6394 92.3858 41.6048 92.2944 41.5114C92.186 41.418 92.1217 41.3073 92.1014 41.1758C92.0844 41.0444 92.1183 40.9233 92.2097 40.8126C94.0383 38.4774 95.4368 36.592 96.4052 35.1528C96.2393 34.7999 96.1953 34.3744 96.2664 33.8797C96.3409 33.385 96.4221 32.9802 96.5136 32.6619C96.5508 32.5685 96.6016 32.4232 96.6659 32.226C96.7303 32.0288 96.8183 31.8213 96.9267 31.5964C97.035 31.3715 97.1603 31.1467 97.2958 30.9252C97.4346 30.7004 97.5938 30.5136 97.7766 30.3648C97.9764 30.1953 98.1897 30.1088 98.4064 30.0984C98.6265 30.0881 98.8263 30.1676 99.0092 30.3371C99.3918 30.6727 99.4765 31.2262 99.2564 31.9908C99.0566 32.5893 98.6807 33.3469 98.1322 34.2602C98.0407 34.409 97.9459 34.5647 97.8443 34.7238C97.7427 34.883 97.6378 35.0455 97.5294 35.2151C98.718 37.4395 99.0363 39.024 98.4877 39.9788C98.0136 40.8195 97.6615 41.5114 97.4312 42.0511C97.201 42.5942 97.052 43.0267 96.9775 43.3553C96.903 43.684 96.8759 43.9158 96.8962 44.0542C96.9131 44.196 96.9335 44.2825 96.9504 44.3205C96.9673 44.3378 96.9944 44.3621 97.0316 44.3897C97.0689 44.4174 97.14 44.4313 97.2517 44.4313C97.3432 44.4313 97.5091 44.369 97.7461 44.2479C97.9832 44.1268 98.3218 43.8431 98.762 43.3934C99.1074 43.0751 99.446 42.7153 99.7778 42.314C100.106 41.9127 100.428 41.5252 100.736 41.1516C100.773 41.0963 100.817 41.0409 100.875 40.9821C100.929 40.9267 100.977 40.8714 101.014 40.8126C101.105 40.7192 101.214 40.6638 101.342 40.6431C101.468 40.6223 101.586 40.6604 101.694 40.7538ZM97.2517 33.8589C97.2687 33.8209 97.2822 33.8001 97.2924 33.7897C97.3025 33.7794 97.3161 33.7586 97.333 33.7205C97.6242 33.2362 97.8443 32.8349 97.9899 32.5166C98.1355 32.1984 98.2473 31.9389 98.3184 31.7313C98.3929 31.5272 98.4268 31.3785 98.4268 31.2816C98.4268 31.1882 98.4166 31.1224 98.3997 31.0844C98.3252 31.1397 98.2202 31.2608 98.0848 31.4476C97.9459 31.6345 97.8071 31.9147 97.6581 32.2883C97.5497 32.5685 97.4617 32.8453 97.3974 33.1151C97.3398 33.3884 97.289 33.6341 97.2517 33.8589Z" fill="#767676"/>
<path d="M112.8 40.754C112.892 40.8474 112.946 40.9581 112.966 41.0896C112.983 41.221 112.949 41.3421 112.858 41.4528C112.821 41.4909 112.78 41.5359 112.736 41.5912C112.692 41.6466 112.641 41.7019 112.584 41.7607C111.744 42.8055 110.975 43.6774 110.281 44.3658C109.587 45.0578 108.947 45.4037 108.361 45.4037C107.941 45.4037 107.626 45.3242 107.416 45.165C107.206 45.0059 107.054 44.8433 106.963 44.6738C106.763 44.3001 106.688 43.8434 106.743 43.3003C105.48 44.7948 104.264 45.5421 103.096 45.5421C102.456 45.5421 101.971 45.4106 101.643 45.1512C101.315 44.8882 101.077 44.6288 100.928 44.3658C100.546 43.6566 100.482 42.7675 100.735 41.7054C100.844 41.183 101.02 40.6467 101.257 40.0932C101.494 39.5431 101.789 38.9861 102.134 38.4257C103.123 36.855 104.237 35.613 105.48 34.6996C106.028 34.3087 106.56 34.0043 107.071 33.7898C107.582 33.5753 108.05 33.468 108.47 33.468C108.944 33.468 109.316 33.551 109.58 33.7206C109.844 33.8901 110.041 34.0665 110.169 34.2533C110.369 34.5163 110.498 34.8242 110.552 35.1771C110.698 34.9522 110.816 34.755 110.908 34.5889C110.999 34.4194 111.09 34.2707 111.182 34.1392C111.256 33.9904 111.338 33.859 111.429 33.7482C111.504 33.6375 111.602 33.5649 111.73 33.5372C111.859 33.5095 111.978 33.5337 112.086 33.6064C112.194 33.6825 112.269 33.7828 112.306 33.9143C112.343 34.0458 112.316 34.1669 112.225 34.2776C112.225 34.2949 111.988 34.6824 111.51 35.44C111.036 36.1977 110.44 37.2009 109.729 38.4533C109.255 39.294 108.869 40.0378 108.578 40.6813C108.287 41.3248 108.07 41.8853 107.934 42.3627C107.799 42.8401 107.718 43.2276 107.701 43.5252C107.684 43.8227 107.718 44.0406 107.809 44.1686C107.826 44.2067 107.867 44.2586 107.931 44.3243C107.995 44.3901 108.138 44.4212 108.358 44.4212C108.449 44.4212 108.615 44.3589 108.852 44.2378C109.089 44.1168 109.438 43.8331 109.895 43.3833C110.224 43.065 110.552 42.7052 110.884 42.3039C111.212 41.9026 111.534 41.5151 111.842 41.1415C111.896 41.0861 111.947 41.0308 111.995 40.972C112.039 40.9166 112.083 40.8612 112.116 40.8024C112.208 40.709 112.316 40.6537 112.445 40.6329C112.574 40.6225 112.692 40.6606 112.8 40.754ZM106.191 42.4631C106.648 41.9026 107.013 41.394 107.288 40.9373C107.562 40.4807 107.708 40.242 107.728 40.2212C107.728 40.2039 107.731 40.1935 107.741 40.1935C107.752 40.1935 107.755 40.1832 107.755 40.1659C108.029 39.5327 108.412 38.7924 108.906 37.9517C108.998 37.7822 109.093 37.6161 109.194 37.4466C109.296 37.2771 109.391 37.1214 109.482 36.9692V36.9138C109.499 36.8204 109.526 36.6855 109.563 36.509C109.6 36.3326 109.621 36.1458 109.631 35.9486C109.641 35.7514 109.631 35.5576 109.604 35.3604C109.577 35.1632 109.509 34.9902 109.397 34.8415C109.198 34.5785 108.886 34.4505 108.466 34.4505C108.209 34.4505 107.87 34.5301 107.45 34.6893C107.03 34.8484 106.573 35.1079 106.079 35.4746C105.584 35.8379 105.063 36.3049 104.514 36.8757C103.966 37.4466 103.434 38.142 102.923 38.9619C102.283 39.9894 101.863 40.9685 101.66 41.9026C101.494 42.7813 101.531 43.4421 101.768 43.8919C101.988 44.3416 102.425 44.5631 103.085 44.5631C104.007 44.5631 105.039 43.8642 106.191 42.4631Z" fill="#767676"/>
<path d="M124.153 40.7538C124.261 40.8472 124.326 40.9579 124.346 41.0894C124.363 41.2209 124.329 41.3419 124.238 41.4526C124.201 41.4907 124.17 41.5288 124.143 41.5634C124.116 41.6014 124.082 41.6395 124.048 41.6741C123.865 41.8989 123.632 42.1792 123.347 42.5147C123.063 42.8503 122.734 43.1998 122.358 43.5665C121.983 43.9297 121.576 44.2895 121.139 44.6459C120.699 45.0022 120.225 45.2997 119.714 45.5419C119.365 45.7114 119.009 45.8602 118.644 45.9917C118.278 46.1231 117.912 46.2546 117.547 46.3826C117.052 47.2786 116.514 48.0536 115.928 48.7074C115.088 49.6415 114.299 50.1536 113.568 50.247C113.531 50.247 113.493 50.2504 113.46 50.2608C113.422 50.2712 113.385 50.2746 113.351 50.2746C112.877 50.2746 112.501 50.0878 112.227 49.7142C112.007 49.472 111.942 49.126 112.034 48.6763C112.125 48.2646 112.345 47.8771 112.691 47.5139C113.04 47.1506 113.476 46.8358 114.008 46.5763C114.353 46.4276 114.729 46.2857 115.132 46.1542C115.535 46.0228 115.945 45.8844 116.365 45.7356C116.456 45.6976 116.544 45.6699 116.626 45.6526C116.707 45.6353 116.795 45.6042 116.886 45.5696C116.961 45.4208 117.029 45.2721 117.093 45.1198C117.157 44.9711 117.225 44.8223 117.299 44.6701C117.316 44.632 117.364 44.5144 117.435 44.3207C117.509 44.1235 117.618 43.8571 117.763 43.5215C116.446 44.8673 115.258 45.5385 114.198 45.5385C113.558 45.5385 113.073 45.407 112.745 45.1475C112.417 44.8846 112.18 44.6251 112.031 44.3622C111.648 43.653 111.584 42.7638 111.838 41.7017C111.946 41.1793 112.122 40.6431 112.359 40.0896C112.596 39.5395 112.891 38.9825 113.236 38.422C114.225 36.8514 115.339 35.6094 116.582 34.6961C117.13 34.3051 117.658 34.0007 118.173 33.7862C118.684 33.5717 119.152 33.4644 119.572 33.4644C120.046 33.4644 120.418 33.5475 120.682 33.717C120.946 33.8865 121.143 34.063 121.271 34.2498C121.38 34.3812 121.481 34.5577 121.573 34.7825C121.664 34.5784 121.756 34.3812 121.847 34.1944C121.939 34.0076 122.03 33.8104 122.121 33.6063C122.267 33.326 122.487 33.2499 122.778 33.3814C122.887 33.4368 122.965 33.5302 123.012 33.6616C123.056 33.7931 123.053 33.9142 122.998 34.0249C122.741 34.568 122.49 35.1043 122.243 35.6371C121.996 36.1698 121.746 36.7061 121.488 37.2492L121.461 37.3046C121.004 38.3321 120.574 39.3077 120.171 40.2314C119.768 41.1551 119.423 41.9785 119.128 42.6981C118.837 43.4177 118.603 43.9885 118.427 44.4072C118.254 44.8258 118.166 45.0472 118.166 45.0645C118.166 45.1025 118.156 45.1198 118.139 45.1198C118.339 45.0437 118.532 44.9711 118.715 44.8949C118.898 44.8188 119.081 44.7358 119.263 44.6424C119.721 44.4175 120.154 44.1477 120.567 43.8294C120.977 43.5111 121.356 43.179 121.705 42.833C122.05 42.4871 122.358 42.155 122.623 41.8401C122.887 41.5219 123.11 41.252 123.293 41.0271C123.33 40.9891 123.361 40.951 123.388 40.9164C123.415 40.8784 123.445 40.8438 123.483 40.8057C123.574 40.7123 123.682 40.6569 123.811 40.6362C123.953 40.6223 124.062 40.6604 124.153 40.7538ZM117.489 42.404C117.946 41.8816 118.329 41.4008 118.64 40.9614C118.952 40.522 119.125 40.2556 119.162 40.1622C119.382 39.6571 119.616 39.1312 119.863 38.5777C120.11 38.0276 120.361 37.4603 120.618 36.8825C120.635 36.7718 120.662 36.63 120.699 36.4639C120.736 36.2944 120.753 36.1145 120.753 35.9173C120.753 35.7201 120.74 35.5264 120.713 35.3292C120.686 35.132 120.618 34.9694 120.506 34.8379C120.306 34.575 119.995 34.4469 119.575 34.4469C119.318 34.4469 118.979 34.5265 118.559 34.6857C118.139 34.8448 117.682 35.1043 117.188 35.471C116.693 35.8343 116.172 36.3013 115.623 36.8721C115.075 37.443 114.543 38.1384 114.032 38.9583C113.392 39.9858 112.972 40.9649 112.769 41.8989C112.603 42.7777 112.64 43.4385 112.877 43.8882C113.097 44.338 113.534 44.5594 114.194 44.5594C114.651 44.5594 115.153 44.376 115.701 44.0128C116.257 43.653 116.849 43.1167 117.489 42.404ZM115.214 48.0363C115.379 47.8668 115.539 47.6799 115.694 47.4758C115.85 47.2717 115.999 47.0538 116.148 46.8323C115.491 47.0365 114.916 47.2544 114.421 47.4758C113.981 47.6799 113.639 47.9186 113.392 48.192C113.145 48.4618 113.002 48.7005 112.965 48.9081C112.948 49.0188 112.948 49.0845 112.965 49.1053C113.002 49.1607 113.057 49.2125 113.131 49.261C113.206 49.3059 113.314 49.3129 113.46 49.2748C113.971 49.216 114.557 48.8043 115.214 48.0363Z" fill="#767676"/>
<path d="M133.096 40.695C133.188 40.7884 133.238 40.8991 133.249 41.0306C133.259 41.1621 133.218 41.2728 133.127 41.3662C133.11 41.4042 132.907 41.6291 132.524 42.0373C132.141 42.449 131.627 42.9057 130.987 43.4108C129.212 44.7739 127.604 45.4554 126.161 45.4554C125.393 45.4554 124.814 45.3171 124.421 45.0368C124.028 44.7566 123.74 44.466 123.557 44.1685C123.209 43.5527 123.11 42.7812 123.256 41.8575C123.402 40.9337 123.794 39.9097 124.434 38.7888C125.328 37.1628 126.304 35.8377 127.357 34.8102C128.406 33.7827 129.399 33.1842 130.333 33.0182C131.048 32.9074 131.64 33.0458 132.114 33.4402C132.48 33.7585 132.68 34.1875 132.717 34.7306C132.734 35.2911 132.561 35.9138 132.196 36.5954C131.83 37.2769 131.298 37.9723 130.604 38.6815C129.835 39.4842 129.023 40.0723 128.163 40.4459C127.448 40.7642 126.764 40.9234 126.107 40.9234C125.779 40.9234 125.484 40.8957 125.23 40.8403C124.973 40.785 124.763 40.7192 124.6 40.6431C124.509 40.8853 124.431 41.1136 124.367 41.3281C124.302 41.5426 124.251 41.7537 124.214 41.9578C124.106 42.7051 124.167 43.2759 124.407 43.6668C124.698 44.21 125.284 44.4798 126.161 44.4798C126.91 44.4798 127.655 44.2896 128.396 43.9055C129.138 43.5215 129.805 43.0995 130.397 42.6324C130.99 42.1654 131.474 41.7364 131.85 41.342C132.226 40.951 132.412 40.7435 132.412 40.7262C132.504 40.6327 132.612 40.5808 132.741 40.5705C132.866 40.5601 132.984 40.6016 133.096 40.695ZM125.25 39.2662C125.213 39.3596 125.169 39.4426 125.115 39.5188C125.061 39.5949 125.013 39.6779 124.976 39.7713C125.122 39.8094 125.291 39.8474 125.484 39.882C125.677 39.9201 125.901 39.9374 126.155 39.9374C127.418 39.9201 128.677 39.2731 129.94 38.0034C130.526 37.4049 130.976 36.8237 131.298 36.2529C131.616 35.682 131.769 35.1942 131.752 34.7825C131.715 34.5404 131.633 34.3432 131.505 34.1944C131.247 33.9695 130.909 33.9038 130.489 33.9972C130.123 34.0526 129.73 34.2186 129.31 34.4885C128.891 34.7583 128.461 35.1112 128.02 35.5402C127.035 36.5124 126.111 37.7544 125.25 39.2662Z" fill="#767676"/>
<path d="M43.1907 65.2164C43.1297 65.2164 43.0688 65.1888 43.0281 65.1334C42.9604 65.04 42.9773 64.9085 43.0688 64.8393C44.4029 63.8154 45.7946 62.6807 47.3252 61.3696C47.4132 61.297 47.5419 61.3074 47.613 61.3973C47.6841 61.4872 47.674 61.6187 47.5859 61.6913C46.0486 63.0059 44.6501 64.144 43.3126 65.1749C43.2753 65.2026 43.2313 65.2164 43.1907 65.2164Z" fill="#767676"/>
<path d="M39.618 68.1229C39.557 68.1229 39.4994 68.0952 39.4588 68.0433C39.3877 67.9534 39.4046 67.8219 39.4927 67.7493L40.3934 67.0159C40.4814 66.9433 40.6101 66.9571 40.6812 67.0505C40.7523 67.1404 40.7388 67.2719 40.6474 67.3446L39.7466 68.0779C39.706 68.1091 39.662 68.1229 39.618 68.1229Z" fill="#767676"/>
<path d="M39.5061 62.1793C39.4113 62.1793 39.3266 62.1101 39.3063 62.0132C39.2826 61.899 39.3537 61.7883 39.4655 61.7676C40.6506 61.5185 41.9103 61.2106 43.319 60.83C43.4274 60.7989 43.5391 60.868 43.5696 60.9788C43.6 61.0895 43.5323 61.2037 43.424 61.2348C42.0119 61.6154 40.7421 61.9267 39.5501 62.1758C39.5332 62.1793 39.5197 62.1793 39.5061 62.1793Z" fill="#767676"/>
<path d="M36.2717 62.9647C36.1802 62.9647 36.0956 62.899 36.0719 62.8056C36.0448 62.6949 36.1125 62.5808 36.2243 62.5531L37.0403 62.3559C37.1487 62.3317 37.2604 62.3975 37.2875 62.5116C37.3146 62.6223 37.2469 62.7364 37.1351 62.7641L36.3191 62.9612C36.3021 62.9647 36.2852 62.9647 36.2717 62.9647Z" fill="#767676"/>
<path d="M105.19 62.9057C105.177 62.9057 105.163 62.9057 105.15 62.9023C103.721 62.6185 102.451 62.3314 101.266 62.0269C101.157 61.9992 101.09 61.885 101.117 61.7743C101.144 61.6636 101.256 61.5944 101.364 61.6221C102.542 61.9266 103.809 62.2103 105.228 62.494C105.339 62.5147 105.41 62.6255 105.39 62.7397C105.373 62.8365 105.285 62.9057 105.19 62.9057Z" fill="#767676"/>
<path d="M98.8893 61.4839C98.8757 61.4839 98.8588 61.4839 98.8452 61.4805L98.0291 61.2971C97.9174 61.2728 97.8497 61.1621 97.8734 61.0479C97.8971 60.9371 98.0054 60.8645 98.1172 60.8887L98.9333 61.0721C99.045 61.0963 99.1128 61.2071 99.0891 61.3213C99.0687 61.4182 98.9841 61.4839 98.8893 61.4839Z" fill="#767676"/>
<path d="M58.461 63.8259C58.4271 63.8259 58.3899 63.8155 58.3594 63.7982C58.2612 63.7394 58.2274 63.6114 58.2849 63.511L59.0603 62.1479C59.1179 62.0476 59.2432 62.013 59.3414 62.0718C59.4396 62.1306 59.4734 62.2586 59.4159 62.359L58.6405 63.7221C58.5998 63.7878 58.5287 63.8259 58.461 63.8259Z" fill="#767676"/>
<path d="M49.4485 77.7093C49.4112 77.7093 49.3706 77.699 49.3367 77.6748C49.2419 77.6125 49.2182 77.481 49.2792 77.3841L57.0674 65.376C57.1317 65.2791 57.257 65.2549 57.3518 65.3171C57.4466 65.3794 57.4703 65.5109 57.4093 65.6078L49.6212 77.6159C49.5805 77.6782 49.5162 77.7093 49.4485 77.7093Z" fill="#767676"/>
<path d="M61.3495 82.9819C61.336 82.9819 61.319 82.9819 61.3055 82.9785C61.1938 82.9542 61.126 82.8435 61.1497 82.7294C62.0979 78.3531 63.2526 73.9663 64.37 69.7249C65.0743 67.0541 65.799 64.2934 66.466 61.5638C66.4931 61.4531 66.6049 61.3839 66.7132 61.4116C66.8216 61.4393 66.8893 61.5535 66.8622 61.6642C66.1952 64.3972 65.4671 67.1579 64.7628 69.8322C63.6454 74.0701 62.494 78.4499 61.5459 82.8159C61.529 82.9162 61.4443 82.9819 61.3495 82.9819Z" fill="#767676"/>
<path d="M44.5077 73.8453C44.4603 73.8453 44.4129 73.828 44.3756 73.7934C44.291 73.7173 44.2808 73.5858 44.3519 73.4994L51.1142 65.4318C51.1887 65.3453 51.3173 65.3349 51.402 65.4075C51.4866 65.4836 51.4968 65.6151 51.4257 65.7016L44.6635 73.7692C44.6228 73.8211 44.5653 73.8453 44.5077 73.8453Z" fill="#767676"/>
<path d="M55.5119 80.2246C55.4882 80.2246 55.4645 80.2212 55.4408 80.2108C55.3358 80.1693 55.2816 80.0516 55.3189 79.9409C56.819 75.8067 58.6069 71.7175 60.3338 67.7632C60.8858 66.5039 61.4343 65.2412 61.9795 63.9784C62.0235 63.8746 62.1454 63.8262 62.2504 63.8712C62.3554 63.9162 62.3994 64.0407 62.3554 64.1479C61.8136 65.4141 61.2616 66.6735 60.7097 67.9362C58.9861 71.8836 57.2016 75.9693 55.7049 80.0897C55.6744 80.1727 55.5965 80.2246 55.5119 80.2246Z" fill="#767676"/>
<path d="M52.7183 63.7326C52.6709 63.7326 52.6269 63.7153 52.5862 63.6842C52.4982 63.6115 52.4881 63.4801 52.5592 63.3901L54.2116 61.3766C54.2828 61.2866 54.4148 61.2762 54.4995 61.3489C54.5875 61.4215 54.5977 61.553 54.5266 61.643L52.8741 63.6565C52.8334 63.7084 52.7759 63.7326 52.7183 63.7326Z" fill="#767676"/>
<path d="M55.5119 80.2246C55.4882 80.2246 55.4645 80.2212 55.4408 80.2108C55.3358 80.1693 55.2816 80.0516 55.3189 79.9409C56.819 75.8067 58.6069 71.7175 60.3338 67.7632C60.8858 66.5039 61.4343 65.2412 61.9795 63.9784C62.0235 63.8746 62.1454 63.8262 62.2504 63.8712C62.3554 63.9162 62.3994 64.0407 62.3554 64.1479C61.8136 65.4141 61.2616 66.6735 60.7097 67.9362C58.9861 71.8836 57.2016 75.9693 55.7049 80.0897C55.6744 80.1727 55.5965 80.2246 55.5119 80.2246Z" fill="#767676"/>
<path d="M76.1211 84.6321C76.0195 84.6321 75.9315 84.5526 75.9179 84.4488C75.4439 80.3596 75.1052 76.1873 74.7768 72.1534C74.4957 68.7008 74.2045 65.1271 73.832 61.626C73.8185 61.5118 73.8998 61.408 74.0115 61.3976C74.1233 61.3838 74.2248 61.4668 74.2384 61.581C74.6109 65.089 74.9021 68.6627 75.1831 72.1188C75.5116 76.1492 75.8502 80.318 76.3243 84.4003C76.3378 84.5145 76.2565 84.6183 76.1448 84.6321C76.138 84.6321 76.1312 84.6321 76.1211 84.6321Z" fill="#767676"/>
<path d="M83.3714 83.3659C83.2799 83.3659 83.1953 83.3037 83.1716 83.2068C82.0812 78.7059 80.7538 74.1842 79.4705 69.8148C78.8914 67.8428 78.2921 65.8051 77.7232 63.7917C77.6927 63.681 77.7536 63.5633 77.862 63.5322C77.9704 63.501 78.0855 63.5633 78.116 63.674C78.6849 65.684 79.2842 67.7217 79.8599 69.6902C81.1432 74.0666 82.474 78.5883 83.5644 83.103C83.5915 83.2137 83.5238 83.3279 83.4154 83.3555C83.4052 83.3625 83.3883 83.3659 83.3714 83.3659Z" fill="#767676"/>
<path d="M91.7523 79.9752C91.6778 79.9752 91.6067 79.9337 91.5694 79.8611C90.3843 77.4947 89.1991 75.08 88.0546 72.7447C86.392 69.3544 84.6752 65.8498 82.9245 62.4386C82.8737 62.3349 82.911 62.2103 83.0092 62.1584C83.1108 62.1065 83.2327 62.1446 83.2835 62.2449C85.0375 65.663 86.7543 69.1675 88.4169 72.5579C89.5614 74.8931 90.7466 77.3079 91.9283 79.6708C91.9791 79.7746 91.9385 79.8991 91.8403 79.951C91.8166 79.9683 91.7861 79.9752 91.7523 79.9752Z" fill="#767676"/>
<path d="M96.583 64.6531C96.5322 64.6531 96.4814 64.6358 96.4441 64.5943L93.4406 61.6883C93.3593 61.6087 93.3559 61.4772 93.4338 61.3942C93.5117 61.3112 93.6404 61.3077 93.7216 61.3873L96.7252 64.2933C96.8064 64.3729 96.8098 64.5043 96.7319 64.5873C96.6913 64.6323 96.6371 64.6531 96.583 64.6531Z" fill="#767676"/>
<path d="M101.631 69.9979C101.577 69.9979 101.523 69.9771 101.486 69.9356L100.131 68.5032C100.053 68.4202 100.053 68.2887 100.135 68.2091C100.216 68.1295 100.345 68.133 100.422 68.2125L101.777 69.645C101.855 69.728 101.855 69.8595 101.774 69.9391C101.733 69.9806 101.682 69.9979 101.631 69.9979Z" fill="#767676"/>
<path d="M68.5721 78.5774C68.5654 78.5774 68.562 78.5774 68.5552 78.5774C68.4435 78.567 68.3588 78.4667 68.369 78.3525C68.7381 73.6302 69.0665 69.4995 69.378 65.7251C69.3882 65.6109 69.4898 65.5313 69.5981 65.5348C69.7099 65.5452 69.7945 65.6455 69.7844 65.7597C69.4762 69.5341 69.1444 73.6648 68.7753 78.3871C68.7685 78.4944 68.6805 78.5774 68.5721 78.5774Z" fill="#767676"/>
<path d="M68.0927 84.677C68.0859 84.677 68.0825 84.677 68.0757 84.677C67.964 84.6667 67.8793 84.5663 67.8895 84.4522L68.3195 79.263C68.3297 79.1488 68.4313 79.0657 68.5397 79.0727C68.6514 79.083 68.736 79.1834 68.7259 79.2975L68.2958 84.4867C68.2891 84.594 68.1976 84.677 68.0927 84.677Z" fill="#767676"/>
<path d="M97.1322 75.7441C97.0679 75.7441 97.0069 75.713 96.9663 75.6576C93.5733 70.8591 90.2108 66.1472 86.9703 61.6463C86.9025 61.5529 86.9229 61.4214 87.0143 61.3557C87.1057 61.2865 87.2344 61.3072 87.2987 61.4006C90.5359 65.9016 93.8984 70.617 97.2947 75.4154C97.3625 75.5089 97.3421 75.6403 97.2473 75.706C97.2169 75.7303 97.1728 75.7441 97.1322 75.7441Z" fill="#767676"/>
<path d="M91.4124 27.4624C91.3549 27.4624 91.2973 27.4381 91.2567 27.3897C91.1822 27.3032 91.1957 27.1683 91.2804 27.0956L104.354 15.8001C104.442 15.724 104.571 15.7378 104.642 15.8243C104.717 15.9108 104.703 16.0457 104.619 16.1183L91.5445 27.4139C91.5072 27.4451 91.4598 27.4624 91.4124 27.4624Z" fill="#767676"/>
<path d="M84.1427 22.6361C84.1088 22.6361 84.0715 22.6257 84.0411 22.6084C83.9429 22.5496 83.909 22.4216 83.9666 22.3213L84.7488 20.9513C84.8064 20.851 84.9317 20.8198 85.0299 20.8752C85.1281 20.934 85.1619 21.062 85.1044 21.1623L84.3221 22.5323C84.2815 22.598 84.2104 22.6361 84.1427 22.6361Z" fill="#767676"/>
<path d="M86.1477 19.3877C86.1105 19.3877 86.0698 19.3773 86.036 19.3531C85.9411 19.2909 85.9174 19.1594 85.9784 19.0625L93.7666 7.05405C93.831 6.95718 93.9563 6.93297 94.0511 6.99524C94.1459 7.05752 94.1696 7.18899 94.1086 7.28586L86.3204 19.2943C86.2764 19.3531 86.212 19.3877 86.1477 19.3877Z" fill="#767676"/>
<path d="M77.6574 19.9481C77.6405 19.9481 77.6236 19.9446 77.6066 19.9411C77.4983 19.9135 77.4305 19.7993 77.4576 19.6886C77.8267 18.1975 78.1992 16.71 78.5717 15.2224C79.6688 10.846 80.7998 6.32442 81.8292 1.8547C81.8563 1.74399 81.9647 1.67134 82.0764 1.69902C82.1848 1.72669 82.2559 1.83739 82.2288 1.95156C81.1994 6.42474 80.065 10.9533 78.9679 15.3296C78.5954 16.8172 78.2229 18.3082 77.8538 19.7959C77.8301 19.8858 77.7488 19.9481 77.6574 19.9481Z" fill="#767676"/>
<path d="M96.1205 14.534C96.0731 14.534 96.0257 14.5167 95.9884 14.4821C95.9038 14.406 95.8936 14.2746 95.9647 14.1881L98.7211 10.8981C98.7956 10.8116 98.9243 10.8012 99.0089 10.8738C99.0936 10.9499 99.1038 11.0814 99.0326 11.1679L96.2763 14.4579C96.2356 14.5098 96.1781 14.534 96.1205 14.534Z" fill="#767676"/>
<path d="M85.96 9.54498C85.9363 9.54498 85.9092 9.54153 85.8855 9.53115C85.7805 9.48964 85.7297 9.36855 85.7703 9.2613C86.0345 8.57978 86.3257 7.90518 86.6033 7.25133C86.9927 6.34148 87.3618 5.48352 87.6767 4.58751C87.714 4.48026 87.8325 4.42146 87.9375 4.46297C88.0424 4.50102 88.1 4.62211 88.0594 4.72936C87.7377 5.63921 87.3517 6.54559 86.9758 7.42084C86.6981 8.06777 86.4103 8.73892 86.1462 9.41698C86.1157 9.49655 86.0412 9.54498 85.96 9.54498Z" fill="#767676"/>
<path d="M95.7808 27.7182C95.7063 27.7182 95.6352 27.6767 95.6013 27.6075C95.5505 27.5038 95.5877 27.3792 95.6859 27.3273L104.68 22.5082C104.781 22.4563 104.903 22.4943 104.954 22.5946C105.005 22.6984 104.967 22.823 104.869 22.8749L95.8756 27.694C95.8451 27.7113 95.8146 27.7182 95.7808 27.7182Z" fill="#767676"/>
<path d="M105.323 22.5913C105.249 22.5913 105.178 22.5498 105.144 22.4806C105.09 22.3768 105.13 22.2523 105.228 22.2004L107.453 21.0102C107.555 20.9583 107.677 20.9964 107.727 21.0967C107.782 21.2005 107.741 21.3251 107.643 21.377L105.418 22.5706C105.391 22.5844 105.357 22.5913 105.323 22.5913Z" fill="#767676"/>
<path d="M100.383 29.2161C100.298 29.2161 100.217 29.1608 100.19 29.0743C100.153 28.9636 100.21 28.846 100.319 28.8079L107.843 26.1962C107.948 26.1616 108.066 26.2169 108.104 26.3276C108.141 26.4383 108.083 26.5559 107.975 26.594L100.451 29.2058C100.427 29.2127 100.407 29.2161 100.383 29.2161Z" fill="#767676"/>
<path d="M85.5884 27.5488C85.541 27.5488 85.497 27.5315 85.4564 27.5004C85.3683 27.4277 85.3582 27.2962 85.4293 27.2063L93.2142 17.7099C93.2887 17.62 93.4173 17.6096 93.502 17.6822C93.59 17.7549 93.6002 17.8863 93.5291 17.9763L85.7442 27.4727C85.707 27.5211 85.6494 27.5488 85.5884 27.5488Z" fill="#767676"/>
<path d="M81.4195 20.8162C81.3924 20.8162 81.3653 20.8093 81.3382 20.7989C81.2333 20.7539 81.1892 20.6294 81.2333 20.5221C82.6351 17.2564 83.8813 14.302 84.9648 11.2334C85.0021 11.1261 85.1206 11.0673 85.2256 11.1088C85.3305 11.1469 85.3881 11.268 85.3475 11.3752C84.2639 14.4542 83.011 17.4155 81.6057 20.6882C81.5719 20.7712 81.4974 20.8162 81.4195 20.8162Z" fill="#767676"/>
<path d="M69.3252 22.1995C69.2236 22.1995 69.1356 22.1199 69.1221 22.0127C68.6582 17.7539 68.2654 13.4121 67.8895 9.21566C67.6254 6.28193 67.3511 3.24787 67.0565 0.265699C67.0464 0.151532 67.1276 0.0477537 67.2394 0.037375C67.3511 0.0269962 67.4527 0.110019 67.4629 0.224185C67.7608 3.20635 68.0317 6.24387 68.2958 9.17761C68.6717 13.3706 69.0645 17.709 69.5284 21.9643C69.5419 22.0784 69.4607 22.1822 69.3489 22.196C69.3422 22.1995 69.3354 22.1995 69.3252 22.1995Z" fill="#767676"/>
<path d="M65.8598 23.1414C65.7718 23.1414 65.6871 23.0791 65.6634 22.9892L62.24 10.4584C62.2095 10.3477 62.2739 10.2336 62.3822 10.2024C62.4906 10.1713 62.6023 10.237 62.6328 10.3477L66.0562 22.8785C66.0867 22.9892 66.0224 23.1033 65.914 23.1345C65.8937 23.1414 65.8768 23.1414 65.8598 23.1414Z" fill="#767676"/>
<path d="M61.5102 7.20621C61.4222 7.20621 61.3375 7.14393 61.3138 7.05399L59.8171 1.57062C59.7867 1.45992 59.851 1.34576 59.9594 1.31462C60.0677 1.28349 60.1795 1.34921 60.2099 1.45992L61.7066 6.94328C61.7371 7.05398 61.6728 7.16817 61.5644 7.1993C61.5441 7.20276 61.5272 7.20621 61.5102 7.20621Z" fill="#767676"/>
<path d="M61.9604 25.3106C61.8859 25.3106 61.8148 25.2691 61.7776 25.1964C58.1612 17.9209 54.7817 11.3165 51.4497 5.00619C51.3956 4.90586 51.4328 4.77785 51.531 4.7225C51.6292 4.66715 51.7545 4.7052 51.8087 4.80553C55.1407 11.1193 58.5201 17.7271 62.1399 25.0062C62.1907 25.1099 62.1501 25.2345 62.0519 25.2864C62.0214 25.3037 61.9909 25.3106 61.9604 25.3106Z" fill="#767676"/>
<path d="M54.1288 27.5244C54.078 27.5244 54.0272 27.5071 53.99 27.4656L46.6622 20.3805C46.581 20.301 46.5776 20.1695 46.6555 20.0865C46.7334 20.0034 46.862 20 46.9433 20.0795L54.271 27.1646C54.3523 27.2442 54.3557 27.3757 54.2778 27.4587C54.2371 27.5002 54.183 27.5244 54.1288 27.5244Z" fill="#767676"/>
<path d="M44.4731 18.0695C44.4189 18.0695 44.3647 18.0487 44.3275 18.0072L40.0202 13.4439C39.9423 13.3609 39.9457 13.2294 40.027 13.1499C40.1083 13.0703 40.2369 13.0738 40.3148 13.1568L44.6221 17.72C44.6999 17.8031 44.6966 17.9345 44.6153 18.0141C44.5746 18.0487 44.5239 18.0695 44.4731 18.0695Z" fill="#767676"/>
<path d="M40.5152 27.272C40.4847 27.272 40.4542 27.2651 40.4271 27.2512L33.1502 23.6879C33.0486 23.6395 33.0046 23.5149 33.0554 23.4077C33.1028 23.3039 33.2281 23.2589 33.3296 23.3108L40.6066 26.8742C40.7082 26.9226 40.7522 27.0471 40.7014 27.1544C40.6676 27.227 40.5931 27.272 40.5152 27.272Z" fill="#767676"/>
<path d="M73.6313 20.5294C73.6279 20.5294 73.6211 20.5294 73.6177 20.5294C73.506 20.5225 73.4213 20.4221 73.4281 20.308C73.462 19.7787 73.4958 19.2528 73.5263 18.7235C73.7092 15.7587 73.8988 12.6969 74.2543 9.69402C74.2679 9.57986 74.3695 9.5003 74.4812 9.51067C74.5929 9.52451 74.6742 9.62829 74.6607 9.74246C74.3051 12.7315 74.1155 15.7898 73.9326 18.7477C73.8988 19.277 73.8683 19.8063 73.8344 20.3322C73.8277 20.4429 73.7362 20.5294 73.6313 20.5294Z" fill="#767676"/>
<path d="M74.8607 5.60477C74.854 5.60477 74.8506 5.60477 74.8438 5.60477C74.7321 5.59439 74.6474 5.49407 74.6576 5.3799L75.0876 0.190387C75.0978 0.0762173 75.2027 -0.00335112 75.3077 0.000108562C75.4195 0.0104876 75.5041 0.110806 75.494 0.224975L75.0639 5.41449C75.0538 5.52174 74.9657 5.60477 74.8607 5.60477Z" fill="#767676"/>
<path d="M47.416 10.9289C47.3551 10.9289 47.2941 10.9012 47.2535 10.8458C46.6982 10.0986 46.1394 9.31676 45.5977 8.55913L45.2793 8.11631C45.2116 8.0229 45.2319 7.89145 45.3234 7.82572C45.4148 7.75999 45.5435 7.77729 45.6078 7.8707L45.9261 8.3135C46.4679 9.06767 47.0232 9.84952 47.5786 10.5933C47.6463 10.6867 47.6294 10.8147 47.5379 10.8874C47.5041 10.915 47.4601 10.9289 47.416 10.9289Z" fill="#767676"/>
<path d="M58.8809 26.8257C58.82 26.8257 58.759 26.7981 58.7184 26.7427C56.4361 23.643 54.1606 20.4602 51.9596 17.3812L50.4019 15.2017C50.3342 15.1083 50.3545 14.9768 50.4459 14.9111C50.5374 14.8419 50.666 14.8626 50.7304 14.9561L52.288 17.1356C54.489 20.2145 56.7612 23.3939 59.0435 26.4936C59.1112 26.587 59.0943 26.7185 59.0028 26.7877C58.9656 26.8119 58.9216 26.8257 58.8809 26.8257Z" fill="#767676"/>
<path d="M47.5377 27.4763C47.4971 27.4763 47.4564 27.466 47.4226 27.4383L41.7541 23.4421C41.6627 23.3764 41.639 23.2449 41.7033 23.1515C41.7677 23.0581 41.8963 23.0339 41.9878 23.0996L47.6562 27.0957C47.7477 27.1615 47.7714 27.293 47.707 27.3864C47.6664 27.4452 47.6021 27.4763 47.5377 27.4763Z" fill="#767676"/>
<path d="M40.1661 22.2589C40.1255 22.2589 40.0848 22.2486 40.051 22.2209L36.6682 19.8339C36.5767 19.7682 36.553 19.6368 36.6174 19.5433C36.6817 19.4499 36.8104 19.4257 36.9018 19.4914L40.2846 21.8784C40.376 21.9442 40.3998 22.0756 40.3354 22.169C40.2948 22.2278 40.2304 22.2589 40.1661 22.2589Z" fill="#767676"/>
<path d="M35.6211 54.8882V55.7601C35.6211 56.4105 35.1064 56.9433 34.4698 56.9433H33.095C32.9934 56.9433 32.9155 56.8603 32.9155 56.76V51.9577C32.9155 51.8539 32.9934 51.7743 33.095 51.7743H34.3547C34.9913 51.7743 35.506 52.3071 35.506 52.9576V53.4385C35.506 53.6807 35.4416 53.9021 35.3096 54.0889C35.506 54.2965 35.6211 54.5802 35.6211 54.8882ZM33.7858 53.7153H34.358C34.5104 53.7153 34.6391 53.5838 34.6391 53.4281V52.9195C34.6391 52.7569 34.5104 52.6254 34.358 52.6254H33.7858V53.7153ZM34.7542 54.8467C34.7542 54.684 34.6256 54.5526 34.4732 54.5526H33.7858V56.0888H34.4732C34.6256 56.0888 34.7542 55.9573 34.7542 55.7843V54.8467Z" fill="#767676"/>
<path d="M37.2921 52.6134V53.7136H37.9287C38.0303 53.7136 38.1082 53.7932 38.1082 53.897V54.3537C38.1082 54.4575 38.0303 54.537 37.9287 54.537H37.2921V56.0973H38.2978C38.3994 56.0973 38.4773 56.1769 38.4773 56.2807V56.7547C38.4773 56.8585 38.3994 56.938 38.2978 56.938H36.5979C36.4963 56.938 36.4185 56.855 36.4185 56.7547V51.9527C36.4185 51.8489 36.4963 51.7693 36.5979 51.7693H38.2978C38.3994 51.7693 38.4773 51.8523 38.4773 51.9527V52.4266C38.4773 52.5304 38.3994 52.61 38.2978 52.61H37.2921V52.6134Z" fill="#767676"/>
<path d="M40.9803 53.077V52.9213C40.9803 52.7587 40.8516 52.6342 40.6925 52.6342H40.3606C40.2015 52.6342 40.0728 52.7587 40.0728 52.9213V53.3711C40.0728 53.5337 40.2015 53.6582 40.3606 53.6651H40.6925C41.3359 53.6651 41.8506 54.191 41.8506 54.8483V55.7581C41.8506 56.4085 41.3291 56.9413 40.6925 56.9413H40.3606C39.724 56.9413 39.2026 56.4085 39.2026 55.7581V55.1527C39.2026 55.0489 39.2805 54.9694 39.382 54.9694H39.8866C39.9882 54.9694 40.066 55.0524 40.066 55.1527V55.7962C40.066 55.9588 40.1947 56.0902 40.3539 56.0902H40.6857C40.8449 56.0902 40.9735 55.9588 40.9735 55.7962V54.8344C40.9735 54.6718 40.8449 54.5473 40.6857 54.5473H40.3539C39.7173 54.5404 39.1958 54.0214 39.1958 53.3711V52.949C39.1958 52.2986 39.7173 51.7659 40.3539 51.7659H40.6857C41.3291 51.7659 41.8438 52.2986 41.8438 52.949V53.0736C41.8438 53.1773 41.7625 53.2569 41.6643 53.2569H41.1598C41.0582 53.2638 40.9803 53.1808 40.9803 53.077Z" fill="#767676"/>
<path d="M44.9295 51.9558V52.4436C44.9295 52.5474 44.8414 52.627 44.75 52.627H44.127V56.7577C44.127 56.8615 44.0491 56.9411 43.9475 56.9411H43.4396C43.3448 56.9411 43.2601 56.8581 43.2601 56.7577V52.627H42.6438C42.5422 52.627 42.4644 52.5439 42.4644 52.4436V51.9558C42.4644 51.852 42.5422 51.7724 42.6438 51.7724H44.7466C44.8414 51.769 44.9295 51.852 44.9295 51.9558Z" fill="#767676"/>
<path d="M49.6724 56.0904H49.9602C50.0483 56.0904 50.1329 56.1734 50.1329 56.2737V56.7546C50.1329 56.8584 50.0449 56.9379 49.9433 56.9379H48.5109C47.9454 56.9379 47.4917 56.4709 47.4917 55.9035V52.8072C47.4917 52.2294 47.9488 51.7659 48.5109 51.7659H49.1171C49.6826 51.7659 50.1363 52.2329 50.1363 52.8072V55.3569C50.1431 55.6856 49.9467 55.9658 49.6724 56.0904ZM49.2728 52.8107C49.2728 52.7069 49.1848 52.6204 49.0832 52.6204H48.5482C48.4466 52.6204 48.3619 52.7103 48.3619 52.8107V55.907C48.3619 56.0039 48.45 56.0904 48.5482 56.0904H49.2728V52.8107Z" fill="#767676"/>
<path d="M52.9714 51.7693H53.4759C53.5775 51.7693 53.6554 51.8592 53.6554 51.963V55.9969C53.6554 56.5124 53.2355 56.9414 52.731 56.9414H51.9352C51.4273 56.9414 51.0107 56.5124 51.0107 55.9969V51.963C51.0107 51.8592 51.0886 51.7693 51.1902 51.7693H51.6982C51.7997 51.7693 51.8776 51.8592 51.8776 51.963V55.907C51.8776 56.0107 51.9657 56.0903 52.0673 56.0903H52.6023C52.7039 56.0903 52.7919 56.0107 52.7919 55.907V51.963C52.7885 51.8592 52.8698 51.7693 52.9714 51.7693Z" fill="#767676"/>
<path d="M57.086 56.1076V56.758C57.086 56.8618 57.0047 56.9414 56.9065 56.9414H56.3918C56.297 56.9414 56.2191 56.8583 56.2191 56.758V56.0869H55.2507V56.758C55.2507 56.8618 55.1728 56.9414 55.0712 56.9414H54.5633C54.4617 56.9414 54.3838 56.8583 54.3838 56.758V56.1076C54.3838 56.0765 54.3838 56.0557 54.3906 56.0107L55.0136 51.9319C55.0272 51.835 55.1084 51.7693 55.2032 51.7693H56.2868C56.3816 51.7693 56.4527 51.8523 56.4663 51.9319L57.0792 56.0107C57.086 56.0557 57.086 56.0765 57.086 56.1076ZM56.1175 55.2496L55.7349 52.6411L55.3522 55.2496H56.1175Z" fill="#767676"/>
<path d="M58.6769 51.9558V56.1004H59.6894C59.791 56.1004 59.8689 56.18 59.8689 56.2838V56.7577C59.8689 56.8615 59.791 56.9411 59.6894 56.9411H57.9895C57.8879 56.9411 57.8101 56.8581 57.8101 56.7577V51.9558C57.8101 51.852 57.8879 51.7724 57.9895 51.7724H58.4975C58.599 51.769 58.6769 51.852 58.6769 51.9558Z" fill="#767676"/>
<path d="M61.2446 56.9414H60.74C60.6384 56.9414 60.5605 56.8583 60.5605 56.758V51.963C60.5605 51.8592 60.6418 51.7693 60.74 51.7693H61.2446C61.3461 51.7693 61.424 51.8592 61.424 51.963V56.758C61.4274 56.8618 61.3461 56.9414 61.2446 56.9414Z" fill="#767676"/>
<path d="M64.5784 51.9558V52.4436C64.5784 52.5474 64.4904 52.627 64.3989 52.627H63.7759V56.7577C63.7759 56.8615 63.698 56.9411 63.5964 56.9411H63.0885C62.9937 56.9411 62.909 56.8581 62.909 56.7577V52.627H62.2927C62.1912 52.627 62.1133 52.5439 62.1133 52.4436V51.9558C62.1133 51.852 62.1912 51.7724 62.2927 51.7724H64.3956C64.4904 51.769 64.5784 51.852 64.5784 51.9558Z" fill="#767676"/>
<path d="M67.2105 51.7693H67.7151C67.8167 51.7693 67.8946 51.8523 67.8946 51.9527V52.6827C67.8946 52.7622 67.881 52.8453 67.8438 52.9179L66.9261 54.845V56.7514C66.9261 56.8552 66.8448 56.9347 66.7466 56.9347H66.2421C66.1405 56.9347 66.0626 56.8517 66.0626 56.7514V54.845L65.1382 52.9179C65.1077 52.8453 65.0874 52.7622 65.0874 52.6827V51.9527C65.0874 51.8489 65.1653 51.7693 65.2669 51.7693H65.7748C65.8764 51.7693 65.9543 51.8523 65.9543 51.9527V52.5131C65.9543 52.572 65.9678 52.6308 65.9983 52.6827L66.4961 53.731L66.9938 52.6827C67.0142 52.6308 67.0311 52.572 67.0311 52.5131V51.9527C67.0311 51.8523 67.109 51.7693 67.2105 51.7693Z" fill="#767676"/>
<path d="M72.405 54.3571C72.405 54.9245 71.958 55.3847 71.3993 55.3847C70.8507 55.3847 70.3936 54.928 70.3936 54.3571C70.3936 53.7966 70.8507 53.3295 71.3993 53.3295C71.9546 53.3295 72.405 53.7931 72.405 54.3571Z" fill="#767676"/>
<path d="M77.7856 54.8861V55.7579C77.7856 56.4083 77.2709 56.9411 76.6343 56.9411H75.2595C75.158 56.9411 75.0801 56.858 75.0801 56.7577V51.9559C75.0801 51.8522 75.1613 51.7726 75.2595 51.7726H76.5192C77.1558 51.7726 77.6705 52.3053 77.6705 52.9557V53.4366C77.6705 53.6788 77.6062 53.9002 77.4741 54.087C77.6671 54.2946 77.7856 54.5782 77.7856 54.8861ZM75.9469 53.7134H76.5192C76.6716 53.7134 76.8003 53.5819 76.8003 53.4262V52.9177C76.8003 52.7551 76.6716 52.6236 76.5192 52.6236H75.9469V53.7134ZM76.9154 54.8446C76.9154 54.682 76.7867 54.5506 76.6343 54.5506H75.9469V56.0866H76.6343C76.7867 56.0866 76.9154 55.9551 76.9154 55.7821V54.8446Z" fill="#767676"/>
<path d="M79.4552 52.6134V53.7136H80.0918C80.1934 53.7136 80.2713 53.7932 80.2713 53.897V54.3537C80.2713 54.4575 80.1934 54.537 80.0918 54.537H79.4552V56.0973H80.4609C80.5625 56.0973 80.6404 56.1769 80.6404 56.2807V56.7547C80.6404 56.8585 80.5625 56.938 80.4609 56.938H78.761C78.6594 56.938 78.5815 56.855 78.5815 56.7547V51.9527C78.5815 51.8489 78.6594 51.7693 78.761 51.7693H80.4609C80.5625 51.7693 80.6404 51.8523 80.6404 51.9527V52.4266C80.6404 52.5304 80.5625 52.61 80.4609 52.61H79.4552V52.6134Z" fill="#767676"/>
<path d="M83.1429 53.077V52.9213C83.1429 52.7587 83.0142 52.6342 82.8551 52.6342H82.5232C82.3641 52.6342 82.2354 52.7587 82.2354 52.9213V53.3711C82.2354 53.5337 82.3641 53.6582 82.5232 53.6651H82.8551C83.4985 53.6651 84.0132 54.191 84.0132 54.8483V55.7581C84.0132 56.4085 83.4917 56.9413 82.8551 56.9413H82.5232C81.8866 56.9413 81.3652 56.4085 81.3652 55.7581V55.1527C81.3652 55.0489 81.4431 54.9694 81.5446 54.9694H82.0492C82.1508 54.9694 82.2286 55.0524 82.2286 55.1527V55.7962C82.2286 55.9588 82.3573 56.0902 82.5165 56.0902H82.8483C83.0075 56.0902 83.1361 55.9588 83.1361 55.7962V54.8344C83.1361 54.6718 83.0075 54.5473 82.8483 54.5473H82.5165C81.8799 54.5404 81.3584 54.0214 81.3584 53.3711V52.949C81.3584 52.2986 81.8799 51.7659 82.5165 51.7659H82.8483C83.4917 51.7659 84.0064 52.2986 84.0064 52.949V53.0736C84.0064 53.1773 83.9251 53.2569 83.8269 53.2569H83.3224C83.2242 53.2638 83.1429 53.1808 83.1429 53.077Z" fill="#767676"/>
<path d="M87.0902 51.9558V52.4436C87.0902 52.5474 87.0022 52.627 86.9107 52.627H86.2876V56.7577C86.2876 56.8615 86.2098 56.9411 86.1082 56.9411H85.6002C85.5054 56.9411 85.4208 56.8581 85.4208 56.7577V52.627H84.8045C84.7029 52.627 84.625 52.5439 84.625 52.4436V51.9558C84.625 51.852 84.7029 51.7724 84.8045 51.7724H86.9073C87.0055 51.769 87.0902 51.852 87.0902 51.9558Z" fill="#767676"/>
<path d="M92.2337 52.9523V53.4262C92.2337 54.0766 91.7122 54.6094 91.0824 54.6094H90.5271V56.7577C90.5271 56.8615 90.4458 56.9411 90.3476 56.9411H89.843C89.7415 56.9411 89.6636 56.858 89.6636 56.7577V51.956C89.6636 51.8522 89.7448 51.7726 89.843 51.7726H91.0858C91.7122 51.7691 92.2337 52.3019 92.2337 52.9523ZM91.3668 52.9142C91.3668 52.7516 91.2449 52.6202 91.0858 52.6202H90.5304V53.7134H91.0858C91.2449 53.7134 91.3668 53.5819 91.3668 53.4262V52.9142Z" fill="#767676"/>
<path d="M94.8131 54.5263L95.4633 55.7683C95.5005 55.8409 95.5141 55.9309 95.5141 56.0105V56.7508C95.5141 56.8546 95.443 56.9341 95.3414 56.9341H94.8368C94.7353 56.9341 94.6472 56.8546 94.6472 56.7508V56.2353C94.6472 56.1523 94.6337 56.0727 94.5964 55.9828L93.8244 54.5194V56.7577C93.8244 56.8615 93.7431 56.9411 93.6449 56.9411H93.1404C93.0456 56.9411 92.9609 56.858 92.9609 56.7577V51.9559C92.9609 51.8522 93.049 51.7726 93.1404 51.7726H94.3899C95.0265 51.7726 95.5378 52.3053 95.5378 52.9557V53.4228C95.5378 53.9209 95.233 54.3465 94.8131 54.5263ZM94.3865 52.6202H93.821V53.7203H94.3865C94.5389 53.7203 94.6675 53.5888 94.6675 53.4158V52.9073C94.6709 52.7447 94.5389 52.6202 94.3865 52.6202Z" fill="#767676"/>
<path d="M96.9472 56.9414H96.4427C96.3411 56.9414 96.2632 56.8583 96.2632 56.758V51.963C96.2632 51.8592 96.3445 51.7693 96.4427 51.7693H96.9472C97.0488 51.7693 97.1267 51.8592 97.1267 51.963V56.758C97.13 56.8618 97.0488 56.9414 96.9472 56.9414Z" fill="#767676"/>
<path d="M99.8825 54.5474H100.387C100.489 54.5474 100.566 54.6374 100.566 54.7377V55.9936C100.566 56.5091 100.153 56.938 99.642 56.938H98.8463C98.3384 56.938 97.9219 56.5091 97.9219 55.9936V52.7138C97.9219 52.1879 98.335 51.7693 98.8463 51.7693H99.642C100.157 51.7693 100.566 52.1914 100.566 52.7138V53.5268C100.566 53.6306 100.485 53.7206 100.387 53.7206H99.8825C99.7809 53.7206 99.703 53.6306 99.703 53.5268V52.7968C99.703 52.693 99.615 52.6134 99.5235 52.6134H98.9817C98.8802 52.6134 98.7921 52.6965 98.7921 52.7968V55.9001C98.7921 56.0039 98.8802 56.0835 98.9817 56.0835H99.5235C99.6183 56.0835 99.703 56.0039 99.703 55.9001V54.7412C99.703 54.6374 99.7843 54.5474 99.8825 54.5474Z" fill="#767676"/>
<path d="M102.244 52.6134V53.7136H102.88C102.982 53.7136 103.06 53.7932 103.06 53.897V54.3537C103.06 54.4575 102.982 54.537 102.88 54.537H102.244V56.0973H103.249C103.351 56.0973 103.429 56.1769 103.429 56.2807V56.7547C103.429 56.8585 103.351 56.938 103.249 56.938H101.55C101.448 56.938 101.37 56.855 101.37 56.7547V51.9527C101.37 51.8489 101.448 51.7693 101.55 51.7693H103.249C103.351 51.7693 103.429 51.8523 103.429 51.9527V52.4266C103.429 52.5304 103.351 52.61 103.249 52.61H102.244V52.6134Z" fill="#767676"/>
<path d="M106.125 52.5718C111.349 52.5718 116.574 52.5718 121.799 52.5718C122.459 52.5718 122.459 51.5273 121.799 51.5273C116.574 51.5273 111.349 51.5273 106.125 51.5273C105.468 51.5273 105.468 52.5718 106.125 52.5718Z" fill="#767676"/>
<path d="M106.125 54.8C109.531 54.8 112.938 54.8 116.347 54.8C117.008 54.8 117.008 53.7552 116.347 53.7552C112.941 53.7552 109.534 53.7552 106.125 53.7552C105.468 53.7552 105.468 54.8 106.125 54.8Z" fill="#767676"/>
<path d="M106.125 56.8895C107.669 56.8895 109.213 56.8895 110.757 56.8895C111.417 56.8895 111.417 55.8445 110.757 55.8445C109.213 55.8445 107.669 55.8445 106.125 55.8445C105.468 55.8445 105.468 56.8895 106.125 56.8895Z" fill="#767676"/>
<path d="M29.664 51.5275C24.4391 51.5275 19.2143 51.5275 13.9894 51.5275C13.3291 51.5275 13.3291 52.572 13.9894 52.572C19.2143 52.572 24.4391 52.572 29.664 52.572C30.3243 52.572 30.3243 51.5275 29.664 51.5275Z" fill="#767676"/>
<path d="M29.6654 53.7552C26.2589 53.7552 22.8524 53.7552 19.4425 53.7552C18.7822 53.7552 18.7822 54.8 19.4425 54.8C22.849 54.8 26.2555 54.8 29.6654 54.8C30.3257 54.8 30.3257 53.7552 29.6654 53.7552Z" fill="#767676"/>
<path d="M29.6646 55.8445C28.1205 55.8445 26.5764 55.8445 25.0323 55.8445C24.372 55.8445 24.372 56.8895 25.0323 56.8895C26.5764 56.8895 28.1205 56.8895 29.6646 56.8895C30.325 56.8895 30.325 55.8445 29.6646 55.8445Z" fill="#767676"/>
</svg>
