<svg width="129" height="95" viewBox="0 0 129 95" fill="none" xmlns="http://www.w3.org/2000/svg">
<path d="M45.533 63.1977C45.4283 63.0603 45.231 63.0358 45.0965 63.1427C42.7315 65.0367 40.8749 66.4418 39.078 67.6912C38.9375 67.789 38.8986 67.9875 38.9973 68.1311C39.057 68.2227 39.1557 68.2686 39.2544 68.2686C39.3142 68.2686 39.377 68.2502 39.4278 68.2136C41.2366 66.955 43.1022 65.5437 45.4791 63.6407C45.6167 63.5368 45.6376 63.3352 45.533 63.1977Z" fill="#767676"/>
<path d="M35.9721 70.6934C36.0349 70.6934 36.0977 70.6751 36.1545 70.6323L36.9827 70.0215C37.1203 69.9176 37.1532 69.7222 37.0515 69.5786C36.9498 69.4351 36.7555 69.4045 36.618 69.5084L35.7897 70.1192C35.6522 70.223 35.6193 70.4185 35.7209 70.562C35.7807 70.6476 35.8764 70.6934 35.9721 70.6934Z" fill="#767676"/>
<path d="M55.0949 63.335L53.0259 66.6248C52.9332 66.7715 52.9751 66.97 53.1186 67.0647C53.1694 67.0983 53.2292 67.1166 53.286 67.1166C53.3877 67.1166 53.4893 67.0647 53.5462 66.97L55.6152 63.6802C55.7079 63.5336 55.666 63.335 55.5225 63.2403C55.382 63.1456 55.1876 63.1884 55.0949 63.335Z" fill="#767676"/>
<path d="M45.0076 78.6722C45.1033 78.6722 45.196 78.6264 45.2588 78.5409L52.4165 68.546C52.5181 68.4055 52.4882 68.207 52.3477 68.1031C52.2102 67.9992 52.0158 68.0298 51.9142 68.1734L44.7565 78.1682C44.6548 78.3087 44.6847 78.5073 44.8252 78.6111C44.879 78.6539 44.9448 78.6722 45.0076 78.6722Z" fill="#767676"/>
<path d="M60.9641 63.4113C60.2316 66.2368 59.4034 69.0868 58.6021 71.8421C57.5766 75.3732 56.5152 79.0235 55.6422 82.6677C55.6004 82.8388 55.702 83.0098 55.8695 83.0526C55.8934 83.0587 55.9203 83.0618 55.9442 83.0618C56.0847 83.0618 56.2103 82.964 56.2462 82.8204C57.1132 79.1915 58.1716 75.5474 59.1971 72.0254C59.9984 69.264 60.8295 66.4079 61.565 63.5762C61.6099 63.4082 61.5112 63.2341 61.3438 63.1883C61.1823 63.1425 61.0089 63.2433 60.9641 63.4113Z" fill="#767676"/>
<path d="M40.4644 75.4554C40.5482 75.4554 40.6289 75.4218 40.6917 75.3546L46.9076 68.6377C47.0242 68.5094 47.0212 68.3109 46.8956 68.1887C46.77 68.0696 46.5757 68.0757 46.4561 68.2009L40.2402 74.9178C40.1236 75.0461 40.1266 75.2447 40.2522 75.3669C40.312 75.428 40.3867 75.4554 40.4644 75.4554Z" fill="#767676"/>
<path d="M35.8099 63.0877L32.5689 64.7523C32.4164 64.8317 32.3536 65.0211 32.4314 65.1769C32.4852 65.2868 32.5958 65.3509 32.7094 65.3509C32.7573 65.3509 32.8051 65.3387 32.8499 65.3174L36.0909 63.6528C36.2434 63.5734 36.3062 63.384 36.2284 63.2282C36.1477 63.0725 35.9624 63.0083 35.8099 63.0877Z" fill="#767676"/>
<path d="M48.2388 66.9393L51.1837 63.6832C51.3003 63.5549 51.2914 63.3533 51.1658 63.2342C51.0402 63.115 50.8429 63.1242 50.7263 63.2525L47.7813 66.5086C47.6647 66.6369 47.6737 66.8385 47.7993 66.9576C47.8591 67.0126 47.9338 67.0432 48.0086 67.0432C48.0923 67.0401 48.176 67.0065 48.2388 66.9393Z" fill="#767676"/>
<path d="M58.6581 63.6528C58.7298 63.494 58.6611 63.3046 58.5026 63.2313C58.3471 63.161 58.1618 63.2283 58.09 63.3901C57.0735 65.678 55.9672 67.9721 54.8969 70.1897C53.3123 73.4765 51.6738 76.8732 50.2895 80.3279C50.2238 80.4898 50.3015 80.6761 50.46 80.7403C50.4988 80.7556 50.5377 80.7647 50.5766 80.7647C50.6991 80.7647 50.8157 80.6914 50.8636 80.5662C52.2389 77.1298 53.8743 73.7422 55.453 70.4677C56.5293 68.247 57.6385 65.9468 58.6581 63.6528Z" fill="#767676"/>
<path d="M69.2089 84.1583C69.2298 84.3171 69.3644 84.4332 69.5169 84.4332C69.5288 84.4332 69.5438 84.4332 69.5587 84.4301C69.7292 84.4088 69.8487 84.2469 69.8278 84.0758C69.3943 80.6821 69.0833 77.212 68.7814 73.8579C68.4734 70.4153 68.1535 66.8566 67.699 63.3682C67.6751 63.1941 67.5226 63.075 67.3492 63.0964C67.1788 63.1208 67.0592 63.2796 67.0831 63.4538C67.5346 66.93 67.8545 70.4825 68.1625 73.919C68.4614 77.2792 68.7754 80.7523 69.2089 84.1583Z" fill="#767676"/>
<path d="M72.4794 72.0073C73.6574 75.6392 74.8743 79.3964 75.8789 83.1474C75.9178 83.2879 76.0403 83.3826 76.1779 83.3826C76.2048 83.3826 76.2317 83.3796 76.2586 83.3704C76.423 83.3246 76.5217 83.1505 76.4769 82.9825C75.4693 79.2131 74.2494 75.4498 73.0685 71.8087C72.1745 69.0504 71.2506 66.1974 70.4254 63.3689C70.3776 63.2009 70.2042 63.1062 70.0397 63.1551C69.8753 63.2039 69.7826 63.3811 69.8304 63.5491C70.6586 66.3868 71.5855 69.2429 72.4794 72.0073Z" fill="#767676"/>
<path d="M83.6085 80.3986C83.6654 80.5024 83.77 80.5605 83.8776 80.5605C83.9284 80.5605 83.9823 80.5483 84.0301 80.5208C84.1796 80.4352 84.2334 80.2397 84.1467 80.09C83.0584 78.1228 81.9701 76.1129 80.9177 74.167C78.9893 70.6022 76.9951 66.9182 74.9232 63.3565C74.8364 63.2068 74.6451 63.1579 74.4986 63.2465C74.3521 63.3351 74.3013 63.5306 74.391 63.6803C76.4599 67.2329 78.4511 70.9138 80.3766 74.4725C81.432 76.4153 82.5203 78.4283 83.6085 80.3986Z" fill="#767676"/>
<path d="M88.116 67.7275C88.1758 67.7794 88.2476 67.8039 88.3194 67.8039C88.4061 67.8039 88.4928 67.7672 88.5555 67.6939C88.6662 67.5595 88.6512 67.3609 88.5227 67.2479L83.7897 63.1026C83.6612 62.9896 83.4638 63.0049 83.3532 63.1362C83.2426 63.2706 83.2575 63.4692 83.3861 63.5822L88.116 67.7275Z" fill="#767676"/>
<path d="M92.7455 72.1689C92.8053 72.2269 92.8831 72.2544 92.9578 72.2544C93.0415 72.2544 93.1223 72.2208 93.185 72.1536C93.3016 72.0254 93.2957 71.8238 93.1701 71.7047L91.9263 70.5105C91.8008 70.3914 91.6034 70.3975 91.4868 70.5257C91.3702 70.654 91.3762 70.8556 91.5018 70.9747L92.7455 72.1689Z" fill="#767676"/>
<path d="M64.0044 63.1456C63.837 63.1334 63.6815 63.2556 63.6666 63.4328C63.239 68.0117 62.7965 72.9755 62.2703 79.0482C62.2553 79.2223 62.3809 79.3781 62.5513 79.3934C62.5603 79.3934 62.5692 79.3934 62.5782 79.3934C62.7367 79.3934 62.8742 79.2681 62.8862 79.1032C63.4094 73.0305 63.8519 68.0697 64.2795 63.4908C64.3004 63.3197 64.1778 63.1639 64.0044 63.1456Z" fill="#767676"/>
<path d="M62.5638 79.5188C62.3994 79.5065 62.2409 79.6318 62.226 79.8059L61.8313 84.125C61.8163 84.2991 61.9419 84.4549 62.1123 84.4701C62.1213 84.4701 62.1333 84.4732 62.1422 84.4732C62.3007 84.4732 62.4353 84.351 62.4502 84.1861L62.8449 79.867C62.8598 79.6898 62.7342 79.534 62.5638 79.5188Z" fill="#767676"/>
<path d="M88.8223 77.0352C88.8911 77.0352 88.9598 77.0108 89.0167 76.9649C89.1512 76.855 89.1721 76.6564 89.0645 76.519C85.5216 71.9828 82.0145 67.5353 78.639 63.2985C78.5313 63.1611 78.334 63.1427 78.2024 63.2527C78.0709 63.3627 78.0499 63.5643 78.1576 63.6987C81.5301 67.9355 85.0372 72.3799 88.5772 76.9161C88.6429 76.9955 88.7326 77.0352 88.8223 77.0352Z" fill="#767676"/>
<path d="M92.8495 65.275C92.9541 65.275 93.0528 65.2231 93.1126 65.1254C93.2023 64.9757 93.1604 64.7802 93.0139 64.6885L90.643 63.1733C90.4995 63.0816 90.3051 63.1244 90.2154 63.2741C90.1258 63.4238 90.1676 63.6193 90.3141 63.7109L92.685 65.2262C92.7359 65.2567 92.7927 65.275 92.8495 65.275Z" fill="#767676"/>
<path d="M82.2869 34.2729C82.3467 34.3553 82.4394 34.3981 82.5321 34.3981C82.5978 34.3981 82.6636 34.3767 82.7204 34.334L91.8245 27.2075C91.962 27.1006 91.9859 26.902 91.8813 26.7615C91.7766 26.6241 91.5823 26.5966 91.4448 26.7035L82.3407 33.8299C82.2092 33.9338 82.1822 34.1354 82.2869 34.2729Z" fill="#767676"/>
<path d="M77.7708 27.8465C77.6272 27.7518 77.4359 27.7946 77.3402 27.9412L73.582 33.919C73.4894 34.0656 73.5312 34.2611 73.6747 34.3588C73.7255 34.3924 73.7853 34.4077 73.8422 34.4077C73.9438 34.4077 74.0455 34.3558 74.1023 34.2611L77.8605 28.2833C77.9561 28.1367 77.9143 27.9412 77.7708 27.8465Z" fill="#767676"/>
<path d="M85.6312 16.3667L78.4735 26.3616C78.3719 26.5021 78.4018 26.7007 78.5423 26.8045C78.5961 26.8473 78.6619 26.8656 78.7247 26.8656C78.8203 26.8656 78.916 26.8198 78.9758 26.7343L86.1335 16.7394C86.2352 16.5989 86.2053 16.4003 86.0647 16.2965C85.9272 16.1957 85.7329 16.2262 85.6312 16.3667Z" fill="#767676"/>
<path d="M75.2489 12.246C75.2908 12.075 75.1921 11.9039 75.0277 11.8581C74.8632 11.8153 74.6928 11.9161 74.648 12.0841C74.1666 13.978 73.6583 15.8903 73.1411 17.7964C73.3354 17.8789 73.5238 17.9766 73.7062 18.0897C74.2324 16.1438 74.7526 14.1858 75.2489 12.246Z" fill="#767676"/>
<path d="M68.7401 34.0227C68.6953 34.1907 68.7969 34.3648 68.9614 34.4107C68.9883 34.4168 69.0152 34.4198 69.0391 34.4198C69.1766 34.4198 69.3022 34.3251 69.3381 34.1816C69.6132 33.1033 69.9002 32.0189 70.1872 30.9346H69.5444C69.2723 31.967 69.0032 32.9964 68.7401 34.0227Z" fill="#767676"/>
<path d="M88.1157 22.7266L90.6481 19.9898C90.7647 19.8616 90.7618 19.663 90.6362 19.5409C90.5106 19.4217 90.3163 19.4278 90.1967 19.5531L87.6643 22.2898C87.5477 22.4181 87.5507 22.6166 87.6762 22.7388C87.736 22.7968 87.8138 22.8243 87.8885 22.8243C87.9722 22.8274 88.0559 22.7938 88.1157 22.7266Z" fill="#767676"/>
<path d="M80.4266 14.1672C80.2681 14.1031 80.0858 14.1825 80.023 14.3444C79.736 15.0867 79.3981 15.7984 79.0393 16.5529C78.7822 17.0966 78.5161 17.6587 78.271 18.2299C78.2022 18.3918 78.274 18.5781 78.4324 18.6484C78.4743 18.6667 78.5161 18.6759 78.558 18.6759C78.6776 18.6759 78.7912 18.6056 78.842 18.4865C79.0812 17.9275 79.3443 17.3716 79.5984 16.834C79.9452 16.1008 80.304 15.3464 80.6 14.5827C80.6628 14.4177 80.585 14.2314 80.4266 14.1672Z" fill="#767676"/>
<path d="M89.7187 34.2212C89.7725 34.3311 89.8831 34.3953 89.9968 34.3953C90.0446 34.3953 90.0924 34.3831 90.1373 34.3617L97.6208 30.5192C97.7733 30.4397 97.8361 30.2504 97.7583 30.0946C97.6806 29.9388 97.4952 29.8746 97.3428 29.9541L89.8592 33.7966C89.7008 33.876 89.641 34.0654 89.7187 34.2212Z" fill="#767676"/>
<path d="M77.2988 34.356C77.3585 34.414 77.4333 34.4415 77.508 34.4415C77.5918 34.4415 77.6755 34.4079 77.7353 34.3407L85.5955 25.6564C85.7121 25.5281 85.7032 25.3265 85.5776 25.2073C85.452 25.0882 85.2547 25.0974 85.1381 25.2256L77.2778 33.91C77.1642 34.0352 77.1732 34.2369 77.2988 34.356Z" fill="#767676"/>
<path d="M71.1706 33.989C71.1019 34.1509 71.1736 34.3372 71.3321 34.4075C71.3739 34.4258 71.4158 34.435 71.4577 34.435C71.5773 34.435 71.6909 34.3647 71.7417 34.2456C72.2859 32.9748 72.8629 31.7162 73.443 30.4698C73.1769 30.6104 72.8928 30.7234 72.5998 30.8028C72.1125 31.8537 71.6311 32.9167 71.1706 33.989Z" fill="#767676"/>
<path d="M78.1068 20.1149C78.1696 19.953 78.0919 19.7667 77.9334 19.7025C77.7749 19.6384 77.5926 19.7178 77.5298 19.8797C77.0275 21.1717 76.4714 22.4668 75.8914 23.7527V25.2555C76.6747 23.5573 77.4371 21.8376 78.1068 20.1149Z" fill="#767676"/>
<path d="M61.6817 10.7554C61.6637 10.5813 61.5113 10.4592 61.3379 10.4744C61.1674 10.4928 61.0448 10.6516 61.0628 10.8257C61.305 13.025 61.5292 15.2732 61.7475 17.4725H62.3723C62.1541 15.2549 61.9268 12.9792 61.6817 10.7554Z" fill="#767676"/>
<path d="M63.6528 34.1296C63.6768 34.2885 63.8083 34.3985 63.9608 34.3985C63.9757 34.3985 63.9907 34.3985 64.0086 34.3954C64.1791 34.371 64.2957 34.2091 64.2687 34.0349C64.1193 33.0116 63.9787 31.976 63.8442 30.9374H63.2163C63.3538 32.0066 63.4974 33.0727 63.6528 34.1296Z" fill="#767676"/>
<path d="M61.0764 34.0409C61.1182 34.1784 61.2408 34.2639 61.3724 34.2639C61.4023 34.2639 61.4322 34.2608 61.4651 34.2486C61.6295 34.1967 61.7222 34.0195 61.6714 33.8515L60.7924 30.9346H60.1436L61.0764 34.0409Z" fill="#767676"/>
<path d="M56.088 16.7273C56.1179 16.7273 56.1478 16.7242 56.1807 16.712C56.3451 16.6601 56.4378 16.4829 56.387 16.3149L55.0117 11.7513C54.9609 11.5833 54.7905 11.4917 54.623 11.5406C54.4586 11.5925 54.3659 11.7697 54.4168 11.9377L55.792 16.5013C55.8339 16.6387 55.9565 16.7273 56.088 16.7273Z" fill="#767676"/>
<path d="M57.6539 34.2334C57.7107 34.3373 57.8154 34.3954 57.926 34.3954C57.9768 34.3954 58.0276 34.3831 58.0785 34.3556C58.228 34.2701 58.2818 34.0776 58.1981 33.9249C57.6509 32.9199 57.1068 31.9241 56.5626 30.9374H55.8511C56.446 32.0249 57.047 33.1215 57.6539 34.2334Z" fill="#767676"/>
<path d="M51.2738 21.4623C49.9134 19.0643 48.58 16.7426 47.2764 14.5065C47.1897 14.3568 46.9984 14.308 46.8519 14.3965C46.7054 14.4851 46.6545 14.6807 46.7442 14.8303C48.1973 17.323 49.6892 19.9288 51.214 22.6261V22.226C51.214 21.9663 51.2379 21.7128 51.2738 21.4623Z" fill="#767676"/>
<path d="M42.3373 27.2168C42.2267 27.3513 42.2417 27.5498 42.3702 27.6628L49.9972 34.3435C50.057 34.3954 50.1288 34.4198 50.2005 34.4198C50.2872 34.4198 50.3739 34.3832 50.4367 34.3098C50.5473 34.1754 50.5324 33.9769 50.4038 33.8639L42.7768 27.1833C42.6453 27.0672 42.4479 27.0824 42.3373 27.2168Z" fill="#767676"/>
<path d="M36.6881 21.4221C36.5625 21.303 36.3652 21.3091 36.2486 21.4374C36.1319 21.5657 36.1379 21.7673 36.2635 21.8864L40.222 25.6835C40.2818 25.7416 40.3595 25.7691 40.4343 25.7691C40.518 25.7691 40.5987 25.7355 40.6615 25.6683C40.7781 25.54 40.7722 25.3383 40.6466 25.2192L36.6881 21.4221Z" fill="#767676"/>
<path d="M30.8249 31.756C30.6664 31.6858 30.484 31.7591 30.4152 31.921C30.3465 32.0829 30.4182 32.2692 30.5767 32.3395L35.2947 34.432C35.3336 34.4503 35.3754 34.4595 35.4173 34.4595C35.5369 34.4595 35.6505 34.3892 35.7013 34.267C35.7701 34.1051 35.6983 33.9188 35.5399 33.8485L30.8249 31.756Z" fill="#767676"/>
<path d="M66.2824 34.0777C66.2585 34.2518 66.3751 34.4106 66.5455 34.4351C66.5604 34.4381 66.5754 34.4381 66.5903 34.4381C66.7428 34.4381 66.8744 34.3251 66.8983 34.1663C67.0478 33.0911 67.1644 32.0128 67.266 30.9346H66.6412C66.5425 31.9853 66.4259 33.0361 66.2824 34.0777Z" fill="#767676"/>
<path d="M68.7811 10.4411C68.6167 10.4289 68.4582 10.5541 68.4432 10.7282L68.0486 15.047C68.0336 15.2211 68.1592 15.3769 68.3296 15.3921C68.3386 15.3921 68.3506 15.3921 68.3595 15.3921C68.518 15.3921 68.6525 15.27 68.6675 15.105L69.0622 10.7863C69.0771 10.6122 68.9515 10.4564 68.7811 10.4411Z" fill="#767676"/>
<path d="M41.8707 17.4238L41.5687 17.0389C41.4611 16.9014 41.2667 16.88 41.1322 16.99C40.9976 17.1 40.9767 17.2985 41.0843 17.436L41.3863 17.8209C41.8796 18.4471 42.3909 19.0947 42.8992 19.7117C42.9619 19.785 43.0486 19.8247 43.1383 19.8247C43.2101 19.8247 43.2789 19.8003 43.3387 19.7514C43.4702 19.6384 43.4882 19.4399 43.3775 19.3054C42.8723 18.6915 42.364 18.0469 41.8707 17.4238Z" fill="#767676"/>
<path d="M54.5576 34.3185C54.6204 34.3918 54.7071 34.4315 54.7968 34.4315C54.8686 34.4315 54.9373 34.4071 54.9971 34.3582C55.1287 34.2452 55.1466 34.0467 55.036 33.9123C52.5783 30.9218 50.0998 27.7817 47.7019 24.7454L46.2757 22.9401C46.1681 22.8027 45.9738 22.7813 45.8392 22.8913C45.7047 23.0012 45.6837 23.1998 45.7914 23.3372L47.2175 25.1425C49.6154 28.1788 52.094 31.322 54.5576 34.3185Z" fill="#767676"/>
<path d="M37.777 29.786C37.6873 29.9356 37.7291 30.1311 37.8756 30.2227L44.4174 34.3979C44.4682 34.4315 44.525 34.4468 44.5818 34.4468C44.6865 34.4468 44.7851 34.3948 44.8449 34.2971C44.9346 34.1474 44.8928 33.952 44.7463 33.8603L38.2075 29.6852C38.061 29.5936 37.8697 29.6363 37.777 29.786Z" fill="#767676"/>
<path d="M5.0263 43.5042C5.08609 43.2568 5.36115 42.8811 5.9352 42.5909C6.58399 42.1938 7.49589 41.9739 8.49748 41.9739C8.74265 41.9739 8.99081 41.9861 9.23299 42.0136C11.0807 42.1816 12.4052 43.0552 12.8447 43.7822L12.8955 43.8555L17.0902 41.0361L17.0693 41.0055C15.6402 38.7542 12.8865 37.2269 9.70836 36.9184C9.32267 36.8879 8.92205 36.8573 8.52739 36.8573C6.71556 36.8573 4.9934 37.2819 3.54633 38.0822C1.51623 39.1941 0.236586 41.0147 0.0302876 43.0735C-0.3554 47.2279 2.97228 50.3864 8.30912 50.9362C9.83393 51.089 10.9372 51.4525 11.6069 52.0329C12.0913 52.5277 12.0913 52.9951 12.0643 53.1936C12.0404 53.5083 11.6787 53.9115 11.1674 54.1894C10.4887 54.5621 9.5828 54.7698 8.62007 54.7698C8.37491 54.7698 8.12375 54.7576 7.88158 54.7301C6.06376 54.5652 4.71536 53.6946 4.22802 52.9431L4.2011 52.8973L0.000396596 55.674L0.0452513 55.7382C1.47439 57.9894 4.228 59.5168 7.40918 59.8253C7.77693 59.8558 8.17159 59.8864 8.58717 59.8864C10.3631 59.8864 12.1212 59.4618 13.5324 58.6951C15.5924 57.5343 16.875 55.7168 17.0514 53.7007C17.4371 49.4425 14.1991 46.3573 8.80245 45.838C7.44208 45.6853 4.90072 45.0163 5.02031 43.5531L5.0233 43.5287L5.0263 43.5042ZM4.30276 46.3603C5.30734 47.1943 6.79927 47.7288 8.61708 47.9091C11.9298 48.239 15.3562 49.8732 15.0243 53.4746C14.8957 54.7973 14.0317 55.9917 12.5876 56.8348C11.4813 57.4488 10.0612 57.7848 8.59017 57.7848C8.24932 57.7848 7.92643 57.7848 7.60353 57.7512C6.06376 57.5862 4.62267 57.0883 3.54932 56.346L3.18158 56.0925L3.99181 55.5396L4.15626 55.6465C5.10703 56.2666 6.36574 56.6729 7.6992 56.7981C7.97427 56.8287 8.26727 56.8592 8.59316 56.8592C9.87878 56.8592 11.1465 56.5568 12.1451 56.0161C13.332 55.3197 14.0167 54.4063 14.1243 53.3861C14.211 52.3689 13.8044 51.3211 13.0151 50.5147C12.0584 49.5983 10.5814 49.0454 8.50347 48.8316C6.09965 48.6086 4.09945 47.7136 3.01116 46.3787C2.2936 45.4959 1.98564 44.4512 2.09328 43.2751C2.19194 41.9494 3.07992 40.7337 4.527 39.9425C5.63324 39.298 7.01752 38.9559 8.53336 38.9559C8.8742 38.9559 9.19711 38.9558 9.52002 38.9894C11.0269 39.1544 12.465 39.6523 13.5712 40.3946L13.9689 40.6604L13.0958 41.198L12.9404 41.0972C11.9806 40.4862 10.7339 40.0647 9.42731 39.912C9.13431 39.8814 8.84131 39.8814 8.53036 39.8814C7.12814 39.8814 5.90231 40.1838 4.9635 40.7611C3.77953 41.3812 3.07993 42.3007 2.99621 43.3546C2.87961 44.5184 3.33406 45.557 4.30276 46.3603Z" fill="#767676"/>
<path d="M25.2381 59.8832H30.3777V42.1387H35.9299V36.8541H19.7129V42.1387H25.2352V59.8832H25.2381ZM21.8028 39.976V39.0504H33.8161V39.976H28.2639V57.7205H27.358V39.976H21.8028Z" fill="#767676"/>
<path d="M42.1294 52.9797H50.9823L46.7397 41.036L42.1294 52.9797ZM44.1176 51.5746L46.7039 44.9521L49.027 51.5746H44.1176Z" fill="#767676"/>
<path d="M48.4527 36.8541H45.1041L36.2393 59.8832H41.7375L43.2175 56.068H49.8638L51.1913 59.8832H56.6627L48.4527 36.8541ZM51.3229 53.9052H41.7704L40.2905 57.7205H39.3068L46.5452 38.9863H46.9876L53.652 57.7205H52.6773L51.3229 53.9052Z" fill="#767676"/>
<path d="M67.1257 59.8832V42.1387H72.6778V36.8541H56.4609V42.1387H61.9831V59.8832H67.1257ZM58.5478 39.976V39.0504H70.561V39.976H65.0089V57.7205H64.1029V39.976H58.5478Z" fill="#767676"/>
<path d="M75.6187 59.8832H80.7283V36.8541H75.6187V59.8832ZM77.7056 38.9863H78.6414V57.7541H77.7056V38.9863Z" fill="#767676"/>
<path d="M106.123 48.3369C106.123 41.9864 101.052 36.8241 94.821 36.8241C88.6051 36.8241 83.5493 41.9894 83.5493 48.3369C83.5493 54.7027 88.6051 59.8833 94.821 59.8833C101.052 59.8833 106.123 54.7057 106.123 48.3369ZM85.6362 48.3369C85.6362 43.1624 89.7562 38.9531 94.821 38.9531C99.9007 38.9531 104.036 43.1624 104.036 48.3369C104.036 53.5297 99.9007 57.7511 94.821 57.7511C89.7562 57.7511 85.6362 53.5297 85.6362 48.3369Z" fill="#767676"/>
<path d="M103.158 48.3366C103.158 43.6569 99.4176 39.8478 94.8193 39.8478C90.2388 39.8478 86.5105 43.6569 86.5105 48.3366C86.5105 53.0346 90.2388 56.8559 94.8193 56.8559C99.4176 56.8589 103.158 53.0346 103.158 48.3366ZM94.8193 55.4813C90.9803 55.4813 87.8559 52.277 87.8559 48.3366C87.8559 44.4144 90.9803 41.2224 94.8193 41.2224C98.6762 41.2224 101.812 44.4144 101.812 48.3366C101.812 52.277 98.6762 55.4813 94.8193 55.4813Z" fill="#767676"/>
<path d="M123.1 36.8241V49.3785L113.859 36.8241H109.586V59.8833H114.726V46.7638L124.428 59.8833H128.27V36.8241H123.1ZM126.126 57.6901H125.462L112.645 40.3308V57.6901H111.709V38.9867H112.806L125.223 55.8115V38.9867H126.129V57.6901H126.126Z" fill="#767676"/>
<path d="M27.4856 66.4174L27.2793 65.9775C27.2375 65.8889 27.1388 65.8522 27.0521 65.895L25.5871 66.6159L25.2462 65.8919L26.7113 65.171C26.798 65.1283 26.8309 65.0275 26.792 64.9389L26.5857 64.499C26.5438 64.4104 26.4452 64.3738 26.3584 64.4165L22.358 66.3868C22.2712 66.4296 22.2354 66.5304 22.2772 66.619L22.4835 67.0588C22.5254 67.1474 22.6241 67.1841 22.7108 67.1413L24.5496 66.2371L24.8904 66.9611L23.0516 67.8653C22.9649 67.908 22.932 68.0088 22.9709 68.0974L23.1772 68.5373C23.2161 68.6198 23.3177 68.6625 23.4044 68.6198L27.4049 66.6495C27.4916 66.6067 27.5215 66.4968 27.4856 66.4174Z" fill="#767676"/>
<path d="M28.2801 67.9017L28.0469 67.474C27.9991 67.3884 27.8914 67.361 27.8077 67.4098L23.9358 69.6154C23.8521 69.6643 23.8222 69.7682 23.87 69.8537L24.1032 70.2814C24.151 70.3669 24.2527 70.3975 24.3364 70.3486L28.2083 68.143C28.2921 68.0941 28.325 67.9872 28.2801 67.9017Z" fill="#767676"/>
<path d="M28.4214 71.9827C28.5022 71.9308 28.5261 71.8239 28.4723 71.7414L27.964 70.9289C27.9132 70.8464 27.8085 70.8219 27.7278 70.8769L27.372 71.1091C27.2913 71.161 27.2614 71.271 27.3152 71.3535L27.4737 71.607L26.4242 72.2912C26.3435 72.3432 26.2359 72.3157 26.1851 72.2332L25.91 71.7933C25.8622 71.717 25.8801 71.6039 25.9608 71.552L28.3796 69.9758C28.4543 69.9269 28.5679 69.9514 28.6158 70.0277L28.8908 70.4676C28.9417 70.5501 28.9177 70.6661 28.843 70.715L28.6128 70.8647C28.5321 70.9166 28.5081 71.0235 28.5619 71.106L28.8191 71.5184C28.8699 71.6009 28.9745 71.6253 29.0553 71.5703L29.3483 71.3779C29.7579 71.1121 29.8715 70.5562 29.6144 70.1438L29.2107 69.4962C28.9506 69.0777 28.4125 68.9586 28.0029 69.2244L25.4466 70.8922C25.043 71.1549 24.9234 71.7139 25.1805 72.1263L25.5841 72.7739C25.8412 73.1862 26.3884 73.3084 26.792 73.0457L28.4214 71.9827Z" fill="#767676"/>
<path d="M31.8562 73.3452L31.5692 72.9542C31.5124 72.8748 31.4077 72.8626 31.33 72.9206L30.0324 73.9224L29.56 73.281L30.8576 72.2792C30.9324 72.2212 30.9473 72.1142 30.8905 72.0348L30.6035 71.6439C30.5467 71.5645 30.442 71.5522 30.3643 71.6103L26.8184 74.3439C26.7436 74.402 26.7287 74.5089 26.7855 74.5883L27.0725 74.9793C27.1293 75.0587 27.2339 75.074 27.3117 75.0129L28.9411 73.7575L29.4135 74.3989L27.7841 75.6574C27.7063 75.7154 27.6944 75.8253 27.7512 75.9017L28.0382 76.2927C28.092 76.366 28.1997 76.3874 28.2774 76.3263L31.8233 73.5926C31.9011 73.5315 31.91 73.4185 31.8562 73.3452Z" fill="#767676"/>
<path d="M33.0256 79.7205L34.7148 78.0434C35.0975 77.6646 35.1065 77.0415 34.7357 76.6505L34.3351 76.2289C33.9644 75.8379 33.3544 75.8287 32.9717 76.2075L30.9177 78.245C30.541 78.6208 30.532 79.2409 30.9028 79.6319L31.8446 80.6216C31.9104 80.6919 32.021 80.698 32.0897 80.6308L32.4097 80.3162C32.4784 80.249 32.4754 80.1359 32.4186 80.0748L32.2273 79.8732C32.4934 79.9832 32.8103 79.9343 33.0256 79.7205ZM31.9672 79.6013L31.4918 79.1004C31.426 79.0301 31.426 78.911 31.4888 78.8499L33.5428 76.8124C33.6116 76.7452 33.7282 76.7452 33.7939 76.8154L34.1467 77.1851C34.2125 77.2553 34.2125 77.3744 34.1438 77.4416L31.9672 79.6013Z" fill="#767676"/>
<path d="M37.7312 79.4879L37.3725 79.1641C37.3007 79.0999 37.1901 79.1121 37.1273 79.1855L34.7205 81.9867C34.6577 82.06 34.5471 82.063 34.4753 81.9989L34.0956 81.6568C34.0239 81.5926 34.0119 81.4796 34.0747 81.4063L36.4815 78.6081C36.5443 78.5348 36.5413 78.4218 36.4695 78.3576L36.1108 78.0338C36.039 77.9697 35.9284 77.9819 35.8656 78.0552L33.405 80.9175C33.0881 81.2841 33.1239 81.8553 33.4857 82.1791L34.0508 82.6862C34.4096 83.01 34.9687 82.9703 35.2856 82.6037L37.7462 79.7414C37.803 79.6651 37.803 79.552 37.7312 79.4879Z" fill="#767676"/>
<path d="M39.8067 81.1313L38.9875 80.502C38.9157 80.447 38.82 80.4531 38.7543 80.5173L36.0186 83.2361C35.9887 83.2666 35.9767 83.2819 35.9588 83.3033L35.597 83.7951C35.5402 83.8745 35.5551 83.9814 35.6299 84.0395L36.0126 84.3327C36.0903 84.3908 36.195 84.3755 36.2518 84.2991L36.6255 83.792L37.358 84.3541L36.9843 84.8612C36.9275 84.9406 36.9424 85.0475 37.0142 85.1025L37.4029 85.3988C37.4806 85.4569 37.5853 85.4416 37.6421 85.3652L38.0038 84.8734C38.0218 84.852 38.0337 84.8337 38.0517 84.7971L39.8515 81.3604C39.8874 81.2901 39.8784 81.1863 39.8067 81.1313ZM37.7497 83.6637L37.1697 83.2177L38.9067 81.4704L37.7497 83.6637Z" fill="#767676"/>
<path d="M40.2813 86.3974L39.48 85.8628L41.5699 82.5793C41.6207 82.4968 41.5998 82.3899 41.5191 82.338L41.1184 82.0722C41.0377 82.0203 40.9331 82.0417 40.8822 82.1241L38.4605 85.93C38.4067 86.0125 38.4306 86.1194 38.5113 86.1714L39.8567 87.0663C39.9375 87.1182 40.0421 87.0969 40.0929 87.0144L40.3321 86.6387C40.383 86.5562 40.362 86.4493 40.2813 86.3974Z" fill="#767676"/>
<path d="M43.7634 83.7491L43.3508 83.5048C43.2671 83.4559 43.1625 83.4895 43.1146 83.575L40.8932 87.4939C40.8454 87.5795 40.8723 87.6833 40.956 87.7322L41.3686 87.9765C41.4523 88.0254 41.554 87.9979 41.6018 87.9124L43.8232 83.9935C43.868 83.908 43.8441 83.798 43.7634 83.7491Z" fill="#767676"/>
<path d="M46.2994 85.8328L46.5027 85.4235C46.5445 85.3349 46.5057 85.2311 46.4279 85.1883L44.655 84.2689C44.5712 84.2231 44.4696 84.2597 44.4247 84.3453L44.2214 84.7546C44.1796 84.8432 44.2125 84.944 44.2962 84.9898L44.8134 85.2586L43.0853 88.7377C43.0404 88.8232 43.0823 88.9302 43.16 88.9729L43.5876 89.1929C43.6743 89.2356 43.773 89.202 43.8178 89.1165L45.5459 85.6373L46.0692 85.9092C46.1499 85.9489 46.2575 85.9184 46.2994 85.8328Z" fill="#767676"/>
<path d="M49.1233 87.3232L49.3864 86.6848C49.4223 86.5962 49.3834 86.4954 49.2937 86.4557L48.8542 86.2663C48.7645 86.2296 48.6689 86.2693 48.63 86.361L48.4297 86.8497C48.4087 86.9016 48.3758 86.9475 48.337 86.9841L47.5267 87.7111L47.4669 86.6115C47.4609 86.5565 47.4699 86.4984 47.4908 86.4465L47.6912 85.9577C47.727 85.8661 47.6882 85.7683 47.5985 85.7286L47.156 85.5392C47.0663 85.5026 46.9706 85.5423 46.9317 85.6309L46.6686 86.2693C46.6387 86.3396 46.6298 86.419 46.6268 86.4954L46.7434 88.5207L46.0587 90.1824C46.0228 90.2741 46.0617 90.3718 46.1514 90.4115L46.5909 90.6009C46.6806 90.6376 46.7763 90.5979 46.8151 90.5062L47.4968 88.8445L48.9888 87.5095C49.0516 87.4576 49.0934 87.3935 49.1233 87.3232Z" fill="#767676"/>
<path d="M49.3167 90.7932L48.8861 90.6374C48.7964 90.6038 48.7037 90.6465 48.6708 90.7382L48.5154 91.1842C48.4825 91.2759 48.5303 91.3675 48.623 91.4011L48.7456 91.447L48.614 91.5753C48.5841 91.6028 48.5572 91.6364 48.5423 91.6761L48.5004 91.8013C48.4825 91.8533 48.5124 91.9174 48.5572 91.9327L48.7755 92.0121C48.8203 92.0274 48.8801 91.9999 48.9011 91.9449L48.913 91.9113C48.925 91.8777 48.9549 91.8533 48.9668 91.841L49.1642 91.6455C49.1881 91.618 49.206 91.5875 49.218 91.5539L49.4093 91.0009C49.4362 90.9093 49.3944 90.8207 49.3167 90.7932Z" fill="#767676"/>
<path d="M54.0894 92.2138L53.1626 91.9786L54.0894 88.1786C54.1133 88.0839 54.0565 87.9892 53.9638 87.9679L53.5004 87.8487C53.4077 87.8243 53.318 87.8823 53.2941 87.977L52.2208 92.3818C52.1969 92.4765 52.2537 92.5681 52.3464 92.5925L53.904 92.9896C53.9967 93.0141 54.0864 92.956 54.1103 92.8613L54.2149 92.4276C54.2359 92.3298 54.182 92.2382 54.0894 92.2138Z" fill="#767676"/>
<path d="M57.454 88.7161L56.7156 88.5847C56.2372 88.4992 55.7857 88.8321 55.702 89.3178L55.1848 92.3634C55.1011 92.8522 55.418 93.3104 55.8964 93.3959L56.6348 93.5273C57.1072 93.6097 57.5617 93.289 57.6454 92.8002L58.1626 89.7547C58.2463 89.2659 57.9234 88.7985 57.454 88.7161ZM56.8531 92.5681C56.8382 92.6658 56.7425 92.733 56.6468 92.7147L56.1475 92.6261C56.0518 92.6108 55.9861 92.5131 56.004 92.4153L56.4943 89.5286C56.5123 89.4309 56.6049 89.3789 56.6976 89.3942L57.1969 89.4828C57.2926 89.4981 57.3614 89.5836 57.3434 89.6783L56.8531 92.5681Z" fill="#767676"/>
<path d="M62.4163 89.2657L61.8184 89.2138C61.7556 89.2077 61.7047 89.2535 61.7018 89.3146L61.6539 89.9195C61.6509 89.9683 61.6479 89.9958 61.636 90.0508L61.2951 91.8012L61.0978 89.2505C61.0888 89.1924 61.044 89.1466 60.9902 89.1435L60.4729 89.1008C60.4191 89.0946 60.3683 89.1344 60.3563 89.1894L59.7524 91.6729L59.6896 89.8889C59.6866 89.8339 59.6896 89.8064 59.6926 89.7575L59.7404 89.1527C59.7464 89.0916 59.7015 89.0366 59.6417 89.0336L59.0438 88.9816C58.984 88.9755 58.9302 89.0213 58.9272 89.0824L58.8734 89.7514C58.8704 89.785 58.8674 89.8278 58.8704 89.892L59.0946 93.735C59.1006 93.8266 59.1634 93.8938 59.2531 93.903L59.7853 93.9488C59.866 93.9549 59.9467 93.8999 59.9617 93.8083L60.5895 90.955L60.751 93.8755C60.757 93.9671 60.8197 94.0343 60.9094 94.0435L61.4327 94.0893C61.5224 94.0954 61.5941 94.0404 61.6151 93.9518L62.4522 90.1974C62.4642 90.1363 62.4672 90.0936 62.4701 90.06L62.524 89.391C62.521 89.3238 62.4761 89.2718 62.4163 89.2657Z" fill="#767676"/>
<path d="M66.3412 89.2078L65.1662 89.2658C65.0705 89.272 64.9988 89.3514 65.0047 89.4491L65.223 93.9821C65.229 94.0799 65.3067 94.1532 65.4024 94.147L65.8808 94.1226C65.9764 94.1165 66.0482 94.0371 66.0422 93.9393L65.9436 91.9111L66.4698 91.8836C67.0647 91.8531 67.5312 91.3277 67.5013 90.7137L67.4803 90.2677C67.4504 89.6538 66.9332 89.1773 66.3412 89.2078ZM66.4279 91.0406L65.9017 91.068L65.8509 90.0356L66.3771 90.0081C66.5266 90.002 66.6492 90.1211 66.6551 90.2739L66.6791 90.7534C66.688 90.9031 66.5774 91.0314 66.4279 91.0406Z" fill="#767676"/>
<path d="M70.9007 92.5372L70.1473 91.4499C70.521 91.233 70.7572 90.7963 70.6974 90.3259L70.6436 89.8891C70.5688 89.2783 70.0277 88.8415 69.4297 88.9178L68.2577 89.0675C68.168 89.0797 68.0963 89.1653 68.1082 89.263L68.6554 93.7651C68.6673 93.8628 68.757 93.927 68.8467 93.9178L69.3221 93.8567C69.4178 93.8445 69.4835 93.759 69.4716 93.6612L69.2145 91.5629L70.1084 92.8427C70.1533 92.9221 70.1742 92.9954 70.1832 93.0717L70.243 93.5574C70.2549 93.6551 70.3446 93.7193 70.4403 93.7071L70.9157 93.646C71.0113 93.6337 71.0681 93.5482 71.0562 93.4535L70.9725 92.7602C70.9665 92.6839 70.9426 92.6014 70.9007 92.5372ZM69.657 90.7474L69.1278 90.8146L69.0022 89.7822L69.5314 89.715C69.6749 89.6967 69.8094 89.7975 69.8274 89.9502L69.8842 90.4297C69.9051 90.5886 69.8005 90.7291 69.657 90.7474Z" fill="#767676"/>
<path d="M71.846 88.5268L71.3765 88.6154C71.2838 88.6338 71.224 88.7285 71.2419 88.8262L72.0433 93.283C72.0612 93.3808 72.148 93.4419 72.2436 93.4235L72.7131 93.335C72.8058 93.3166 72.8686 93.228 72.8506 93.1333L72.0493 88.6765C72.0313 88.5788 71.9416 88.5085 71.846 88.5268Z" fill="#767676"/>
<path d="M75.8563 90.4726C75.8324 90.3779 75.7397 90.3138 75.647 90.3382L75.1836 90.4543C75.0909 90.4787 75.0371 90.5764 75.061 90.6711L75.3152 91.7372C75.3391 91.8319 75.2763 91.9266 75.1896 91.948L74.6903 92.0732C74.5976 92.0976 74.4989 92.0426 74.478 91.948L73.7963 89.1011C73.7724 89.0064 73.8352 88.9117 73.9279 88.8872L74.4272 88.762C74.5139 88.7406 74.6095 88.7956 74.6335 88.8903L74.7949 89.5623C74.8188 89.657 74.9115 89.7211 75.0042 89.6967L75.4676 89.5806C75.5603 89.5562 75.6141 89.4585 75.5902 89.3638L75.4108 88.6184C75.2942 88.1358 74.8248 87.8456 74.3524 87.9617L73.6229 88.145C73.1505 88.2641 72.8665 88.7437 72.9801 89.2263L73.7006 92.2381C73.8142 92.7116 74.2926 93.011 74.759 92.8949L75.4886 92.7116C75.961 92.5925 76.245 92.1068 76.1314 91.6303L75.8563 90.4726Z" fill="#767676"/>
<path d="M79.0458 90.9825C79.0159 90.8909 78.9232 90.8389 78.8305 90.8695L77.9276 91.1658L77.4881 89.7637L78.0592 89.5743C78.1489 89.5438 78.1997 89.4491 78.1698 89.3544L78.0412 88.942C78.0113 88.8504 77.9187 88.7985 77.826 88.829L77.2549 89.0153L76.944 88.0256L77.8469 87.7293C77.9366 87.6988 77.9874 87.6041 77.9575 87.5094L77.823 87.0848C77.7931 86.9932 77.7004 86.9412 77.6077 86.9718L76.0799 87.4728C75.9902 87.5033 75.9394 87.598 75.9693 87.6927L77.3267 92.0119C77.3566 92.1035 77.4492 92.1555 77.5419 92.1249L79.0697 91.624C79.1594 91.5934 79.2103 91.4987 79.1804 91.404L79.0458 90.9825Z" fill="#767676"/>
<path d="M80.9047 90.9884C80.9047 90.9518 80.8987 90.9151 80.8868 90.8846L80.6834 90.3379C80.6505 90.2463 80.5608 90.2065 80.4861 90.2371L80.0585 90.402C79.9688 90.4356 79.9239 90.5303 79.9568 90.6219L80.1213 91.0648C80.1542 91.1564 80.2499 91.1931 80.3396 91.1595L80.4622 91.1137L80.4442 91.3C80.4382 91.3397 80.4382 91.3824 80.4532 91.4221L80.498 91.5474C80.516 91.5993 80.5788 91.6268 80.6236 91.6115L80.8419 91.526C80.8868 91.5076 80.9137 91.4466 80.8957 91.3946L80.8838 91.361C80.8718 91.3275 80.8778 91.2878 80.8808 91.2725L80.9047 90.9884Z" fill="#767676"/>
<path d="M85.2255 86.7793C85.0969 86.5166 84.8817 86.3303 84.6275 86.2356C84.6604 86.0218 84.6245 85.808 84.5229 85.6033L84.3226 85.197C84.0535 84.6472 83.3987 84.4212 82.8605 84.6991L81.7991 85.2459C81.7124 85.2887 81.6795 85.3925 81.7244 85.4811L83.7216 89.5346C83.7635 89.6232 83.8651 89.6568 83.9518 89.611L85.1119 89.0153C85.6501 88.7404 85.8624 88.0684 85.5903 87.5185L85.2255 86.7793ZM82.732 85.6614L83.2133 85.4139C83.3419 85.3467 83.5063 85.4048 83.5751 85.5392L83.7874 85.9699C83.8532 86.1012 83.7964 86.2692 83.6678 86.3364L83.1864 86.5838L82.732 85.6614ZM84.7531 88.2883L84.1731 88.5877L83.5332 87.2894L84.1133 86.9901C84.2418 86.9229 84.4063 86.9809 84.475 87.1184L84.8637 87.9095C84.9355 88.0531 84.8817 88.2211 84.7531 88.2883Z" fill="#767676"/>
<path d="M88.3866 86.4069C88.3387 86.3244 88.2341 86.2969 88.1534 86.3458L87.3401 86.8437L86.5987 85.579L87.1159 85.2644C87.1966 85.2155 87.2235 85.1086 87.1757 85.0261L86.9575 84.6534C86.9066 84.5709 86.805 84.5435 86.7243 84.5923L86.207 84.907L85.6838 84.015L86.5 83.5171C86.5808 83.4682 86.6077 83.3613 86.5598 83.2788L86.3356 82.8969C86.2878 82.8145 86.1831 82.787 86.1024 82.8359L84.7241 83.679C84.6434 83.7278 84.6165 83.8348 84.6643 83.9172L86.9455 87.809C86.9933 87.8915 87.098 87.919 87.1787 87.8701L88.557 87.027C88.6377 86.9781 88.6646 86.8712 88.6168 86.7887L88.3866 86.4069Z" fill="#767676"/>
<path d="M90.493 83.2998C90.1431 82.7897 89.4674 82.6705 88.9711 83.0249L88.714 83.2082C88.5884 83.2907 88.421 83.2662 88.3343 83.141L88.0951 82.7927C88.0084 82.6675 88.0442 82.4964 88.1668 82.4109L88.4239 82.2276C88.5465 82.139 88.714 82.1634 88.8007 82.2917L88.8844 82.4109C88.9382 82.4903 89.0429 82.5086 89.1236 82.4537L89.5153 82.1726C89.593 82.1176 89.6109 82.0107 89.5571 81.9282L89.4914 81.8305C89.1475 81.3264 88.4658 81.2012 87.9695 81.5555L87.7123 81.7388C87.219 82.0901 87.0994 82.7927 87.4432 83.2937L87.6675 83.6206C88.0113 84.1246 88.69 84.2346 89.1864 83.8894L89.4435 83.7061C89.5661 83.6175 89.7335 83.645 89.8202 83.7703L90.3285 84.5126C90.4152 84.6379 90.3853 84.812 90.2628 84.9006L90.0056 85.0839C89.883 85.1725 89.7126 85.1419 89.6259 85.0166L89.285 84.5187C89.2312 84.4393 89.1266 84.421 89.0459 84.476L88.6542 84.757C88.5764 84.812 88.5585 84.9189 88.6123 85.0014L88.9352 85.4688C89.2791 85.9728 89.9667 86.095 90.4571 85.7437L90.7142 85.5604C91.2076 85.2091 91.3272 84.5065 90.9833 84.0055L90.493 83.2998Z" fill="#767676"/>
<path d="M91.0249 80.1784L91.4794 79.7996C91.5481 79.7415 91.5631 79.6285 91.5033 79.5552L91.2193 79.1978C91.1595 79.1214 91.0488 79.1153 90.9801 79.1734L89.4404 80.4563C89.3656 80.5174 89.3566 80.6274 89.4164 80.7007L89.7005 81.0581C89.7603 81.1345 89.8679 81.1437 89.9396 81.0826L90.3881 80.7068L92.8008 83.728C92.8606 83.8043 92.9713 83.8104 93.04 83.7524L93.4107 83.4439C93.4855 83.3828 93.4945 83.2728 93.4347 83.1995L91.0249 80.1784Z" fill="#767676"/>
<path d="M96.6049 77.5115C96.5361 77.4443 96.4255 77.4412 96.3597 77.5115L96.0278 77.8628C95.9621 77.933 95.9681 78.0461 96.0368 78.1133L96.8082 78.877C96.8769 78.9442 96.8739 79.0602 96.8112 79.1244L96.4554 79.5001C96.3896 79.5704 96.279 79.5765 96.2102 79.5093L94.1473 77.4687C94.0785 77.4015 94.0815 77.2855 94.1473 77.2183L94.5031 76.8425C94.5659 76.7784 94.6765 76.7692 94.7452 76.8395L95.2326 77.3191C95.3013 77.3863 95.412 77.3893 95.4777 77.3191L95.8096 76.9678C95.8754 76.8975 95.8694 76.7845 95.8006 76.7173L95.2595 76.1827C94.9097 75.8375 94.3595 75.8467 94.0217 76.2041L93.4985 76.757C93.1607 77.1144 93.1696 77.6765 93.5194 78.0216L95.699 80.1783C96.0428 80.5173 96.6019 80.5082 96.9367 80.1569L97.4599 79.604C97.7978 79.2466 97.7828 78.6814 97.439 78.3393L96.6049 77.5115Z" fill="#767676"/>
<path d="M96.7894 73.2109C96.7146 73.1498 96.607 73.1651 96.5502 73.2353L96.2452 73.6111C96.1854 73.6874 96.1944 73.7943 96.2691 73.8585L97.5219 74.9185L97.0196 75.5355L95.7668 74.4755C95.6921 74.4144 95.5874 74.4236 95.5246 74.5L95.2197 74.8757C95.1599 74.9521 95.1688 75.059 95.2436 75.1201L98.664 78.0129C98.7388 78.074 98.8434 78.0648 98.9062 77.9884L99.2112 77.6127C99.271 77.5363 99.262 77.4294 99.1873 77.3683L97.6146 76.0365L98.1169 75.4194L99.6896 76.7513C99.7643 76.8124 99.869 76.8032 99.9288 76.7268L100.234 76.3511C100.291 76.2808 100.285 76.1678 100.21 76.1067L96.7894 73.2109Z" fill="#767676"/>
<path d="M101.774 72.6487L99.2809 70.8954C98.8802 70.6144 98.3301 70.7182 98.058 71.1214L97.6305 71.7537C97.3554 72.1631 97.4601 72.719 97.8607 73L100.354 74.7534C100.755 75.0344 101.296 74.9336 101.571 74.5243L101.999 73.892C102.271 73.4888 102.175 72.9298 101.774 72.6487ZM101.281 73.5376L100.994 73.9622C100.94 74.0416 100.827 74.063 100.746 74.008L98.3809 72.3463C98.3032 72.2914 98.2912 72.1814 98.3451 72.102L98.6321 71.6774C98.6859 71.598 98.7905 71.5674 98.8683 71.6224L101.233 73.2841C101.317 73.3421 101.338 73.4582 101.281 73.5376Z" fill="#767676"/>
<path d="M103.377 71.4083L99.6072 69.0224C99.5265 68.9705 99.4159 68.9919 99.365 69.0744L99.1139 69.4898C99.0631 69.5723 99.093 69.6823 99.1737 69.7342L102.944 72.1201C103.025 72.172 103.129 72.1476 103.18 72.062L103.431 71.6466C103.485 71.5641 103.461 71.4572 103.377 71.4083Z" fill="#767676"/>
<path d="M104.496 67.905L103.473 67.3399C103.39 67.294 103.282 67.3215 103.237 67.4071L103.01 67.8378C102.965 67.9233 103.001 68.0302 103.085 68.0761L104.03 68.5984C104.113 68.6442 104.14 68.7542 104.098 68.8337L103.856 69.2949C103.811 69.3805 103.707 69.4171 103.62 69.3713L101.096 67.9753C101.013 67.9294 100.986 67.8195 101.031 67.7339L101.276 67.2727C101.318 67.1932 101.422 67.1566 101.506 67.2024L102.101 67.5323C102.185 67.5781 102.292 67.5506 102.337 67.4651L102.564 67.0344C102.609 66.9488 102.573 66.8419 102.49 66.7931L101.829 66.4265C101.401 66.1913 100.875 66.3501 100.645 66.7869L100.286 67.4621C100.056 67.8989 100.211 68.4365 100.639 68.6717L103.309 70.1472C103.731 70.3794 104.266 70.2175 104.493 69.7867L104.852 69.1116C105.082 68.6778 104.918 68.1372 104.496 67.905Z" fill="#767676"/>
<path d="M106.379 65.4552L105.981 65.2719C105.894 65.2322 105.796 65.2688 105.754 65.3574L105.362 66.2402L104.05 65.6323L104.298 65.0733C104.337 64.9847 104.301 64.8839 104.214 64.8411L103.828 64.664C103.742 64.6243 103.643 64.6609 103.601 64.7495L103.353 65.3085L102.426 64.8809L102.818 63.998C102.857 63.9094 102.821 63.8086 102.731 63.7659L102.334 63.5826C102.247 63.5429 102.148 63.5795 102.106 63.6681L101.446 65.1619C101.407 65.2505 101.443 65.3513 101.529 65.3941L105.575 67.2636C105.661 67.3033 105.76 67.2666 105.802 67.175L106.463 65.6812C106.504 65.5957 106.465 65.4949 106.379 65.4552Z" fill="#767676"/>
<path d="M22.4772 26.8839L26.4237 28.9608C26.5074 29.0066 26.6091 28.973 26.6539 28.8845L26.8722 28.4508C26.917 28.3622 26.8842 28.2614 26.7974 28.2156L25.0305 27.287L25.2697 26.8106C25.5417 26.2699 25.3294 25.5949 24.7943 25.3139L24.4056 25.1093C23.8704 24.8283 23.2097 25.0451 22.9376 25.5858L22.3994 26.6517C22.3576 26.7372 22.3904 26.8411 22.4772 26.8839ZM23.6372 25.9492C23.706 25.8118 23.8674 25.766 24.002 25.8362L24.4205 26.0561C24.5491 26.1233 24.6029 26.2852 24.5371 26.4226L24.295 26.8991L23.395 26.4257L23.6372 25.9492Z" fill="#767676"/>
<path d="M24.2825 23.4412L28.0467 25.8453C28.1275 25.8972 28.2351 25.8667 28.2829 25.7903L28.5371 25.3748C28.5879 25.2924 28.564 25.1855 28.4833 25.1335L26.7282 24.0124L28.262 24.1102C28.3487 24.1255 28.4205 24.153 28.4833 24.1957L28.8899 24.4554C28.9706 24.5073 29.0782 24.4768 29.1291 24.3943L29.3832 23.9788C29.434 23.8963 29.4071 23.7956 29.3264 23.7436L28.7464 23.374C28.6836 23.3343 28.6058 23.3007 28.5311 23.2946L27.2305 23.206C27.3023 22.7753 27.1169 22.311 26.7252 22.0605L26.3605 21.8283C25.8492 21.5014 25.1765 21.6572 24.8566 22.1765L24.2317 23.1999C24.1808 23.2762 24.2018 23.3893 24.2825 23.4412ZM25.5203 22.6012C25.595 22.4759 25.7595 22.4331 25.8881 22.5156L26.2887 22.7692C26.4203 22.8547 26.4621 23.0288 26.3844 23.151L26.1033 23.6123L25.2392 23.0624L25.5203 22.6012Z" fill="#767676"/>
<path d="M29.9312 22.8673C30.0089 22.9254 30.1136 22.9101 30.1704 22.8307L31.1212 21.511C31.178 21.4316 31.163 21.3247 31.0853 21.2667L30.7325 21.0009C30.6547 20.9428 30.5501 20.9581 30.4933 21.0376L29.9312 21.8196L28.7711 20.9459L29.1269 20.451C29.1837 20.3716 29.1688 20.2647 29.091 20.2067L28.7502 19.9501C28.6725 19.892 28.5678 19.9073 28.511 19.9867L28.1552 20.4816L27.336 19.8645L27.8981 19.0825C27.9549 19.0031 27.94 18.8962 27.8622 18.8382L27.5094 18.5724C27.4317 18.5144 27.3271 18.5296 27.2702 18.6091L26.3195 19.9287C26.2627 20.0081 26.2776 20.115 26.3554 20.1731L29.9312 22.8673Z" fill="#767676"/>
<path d="M31.0919 19.9742C31.1278 20.017 31.1636 20.0476 31.1786 20.0628L31.651 20.4996C31.7227 20.5638 31.8274 20.5577 31.8932 20.4844L32.2101 20.1178C32.2729 20.0445 32.2669 19.9376 32.1951 19.8704L31.7975 19.5099C31.7676 19.4824 31.7407 19.458 31.7168 19.4274L30.2607 17.7687L31.9918 18.9326C32.0636 18.9784 32.1593 18.9631 32.2131 18.899L32.5569 18.5019C32.6107 18.4408 32.6107 18.3461 32.5569 18.2789L31.2174 16.666L33.0084 17.9398C33.0443 17.9612 33.0682 17.9856 33.1011 18.0131L33.4987 18.3736C33.5705 18.4377 33.6781 18.4316 33.7409 18.3583L34.0578 17.9917C34.1176 17.9245 34.1146 17.8085 34.0429 17.7443L33.5615 17.3197C33.5466 17.3044 33.5107 17.2739 33.4658 17.2403L30.3265 15.1448C30.2547 15.0989 30.165 15.1111 30.1052 15.1784L29.7614 15.5755C29.7076 15.6396 29.7076 15.7313 29.7614 15.7985L31.3191 17.7382L29.2501 16.388C29.1784 16.3422 29.0887 16.3544 29.0289 16.4216L28.688 16.8126C28.6282 16.8798 28.6312 16.9745 28.6821 17.0417L31.0919 19.9742Z" fill="#767676"/>
<path d="M34.7926 17.0174C34.8584 17.0877 34.966 17.0907 35.0348 17.0205L35.3786 16.6814C35.4474 16.6142 35.4503 16.5042 35.3816 16.434L32.2962 13.1808C32.2304 13.1105 32.1198 13.1044 32.051 13.1716L31.7072 13.5107C31.6384 13.5779 31.6414 13.6909 31.7072 13.7612L34.7926 17.0174Z" fill="#767676"/>
<path d="M35.7875 15.05C36.0955 15.4227 36.6546 15.4716 37.0194 15.1569L37.5934 14.6621C37.9582 14.3475 38.006 13.7763 37.6981 13.4036L35.2912 10.4927C35.2284 10.4193 35.1178 10.4041 35.046 10.4652L34.6812 10.7798C34.6095 10.8439 34.6035 10.9569 34.6663 11.0303L37.0224 13.8771C37.0851 13.9504 37.0702 14.0634 36.9954 14.1275L36.6097 14.4605C36.538 14.5246 36.4244 14.5185 36.3646 14.4452L34.0085 11.5984C33.9457 11.5251 33.8351 11.5098 33.7633 11.5709L33.3986 11.8855C33.3268 11.9497 33.3208 12.0627 33.3836 12.136L35.7875 15.05Z" fill="#767676"/>
<path d="M38.5098 12.6645C38.5367 12.7134 38.5606 12.7531 38.5755 12.7715L38.9313 13.3091C38.9851 13.3885 39.0898 13.4099 39.1705 13.3549L39.5622 13.0769C39.6399 13.0219 39.6608 12.915 39.607 12.8356L39.3051 12.3866C39.2811 12.353 39.2632 12.3224 39.2453 12.2858L38.2227 10.3186L39.6279 11.8704C39.6848 11.9314 39.7834 11.9406 39.8492 11.8917L40.2768 11.5893C40.3455 11.5404 40.3664 11.4519 40.3306 11.3724L39.4067 9.47857L40.8448 11.1525C40.8747 11.183 40.8926 11.2105 40.9166 11.2472L41.2185 11.6962C41.2724 11.7757 41.377 11.797 41.4547 11.742L41.8494 11.4641C41.9211 11.4122 41.9481 11.3022 41.8912 11.2228L41.5235 10.6943C41.5115 10.676 41.4846 10.6363 41.4488 10.5935L38.8925 7.79546C38.8357 7.73437 38.743 7.72215 38.6712 7.77408L38.2437 8.07649C38.1749 8.12537 38.154 8.217 38.1898 8.29337L39.2483 10.5568L37.556 8.7424C37.4992 8.68131 37.4065 8.66909 37.3348 8.72101L36.9132 9.01731C36.8414 9.06924 36.8175 9.16088 36.8534 9.23725L38.5098 12.6645Z" fill="#767676"/>
<path d="M44.2836 9.002C44.4958 9.44187 45.0251 9.62514 45.4556 9.41132L46.1313 9.07225C46.5619 8.85537 46.7413 8.31471 46.532 7.87485L45.6798 6.10013C45.638 6.01154 45.5363 5.97794 45.4496 6.0207L44.6035 6.4453C44.5168 6.48806 44.4839 6.59191 44.5257 6.67744L44.7141 7.06538C44.756 7.15397 44.8606 7.19368 44.9443 7.15091L45.2075 7.01957L45.7576 8.15893C45.7994 8.24751 45.7576 8.35137 45.6739 8.39414L45.2134 8.62628C45.1327 8.66599 45.0281 8.63545 44.9862 8.54687L43.7215 5.91379C43.6826 5.83132 43.7185 5.72136 43.7992 5.68165L44.2596 5.44949C44.3463 5.40673 44.454 5.44338 44.4929 5.52586L44.6125 5.77634C44.6543 5.86492 44.756 5.89852 44.8427 5.85575L45.2732 5.63888C45.3599 5.59611 45.3928 5.49225 45.351 5.40672L45.1955 5.08599C44.9802 4.64002 44.454 4.46286 44.0234 4.67668L43.3477 5.01573C42.9112 5.23567 42.7348 5.76717 42.9501 6.21314L44.2836 9.002Z" fill="#767676"/>
<path d="M47.4615 7.46832C47.4705 7.51108 47.4765 7.52942 47.4884 7.55386L47.7067 8.12507C47.7426 8.21671 47.8382 8.25947 47.9279 8.22281L48.3734 8.04565C48.4631 8.00899 48.5049 7.91125 48.4691 7.81961L48.2418 7.22701L49.0939 6.88489L49.3211 7.47749C49.357 7.56913 49.4527 7.61189 49.5364 7.57829L49.9878 7.39807C50.0775 7.36141 50.1194 7.26366 50.0835 7.17203L49.8653 6.6008C49.8563 6.57331 49.8473 6.55498 49.8264 6.51833L47.91 3.146C47.8711 3.0788 47.7784 3.03298 47.6947 3.06659L46.741 3.44842C46.6573 3.48202 46.6095 3.56754 46.6304 3.65613L47.4615 7.46832ZM48.7232 6.19148L48.0475 6.46029L47.5064 4.03184L48.7232 6.19148Z" fill="#767676"/>
<path d="M50.0938 3.79675C50.2642 4.38626 50.8741 4.71004 51.4512 4.54204L51.7531 4.45041C51.8966 4.40765 52.0491 4.48401 52.0909 4.63063L52.3451 5.50115C52.3869 5.64777 52.3062 5.80354 52.1597 5.84936L51.8578 5.94099C51.7142 5.98375 51.5618 5.90128 51.5169 5.75161L51.3465 5.16821C51.3196 5.07352 51.2269 5.0216 51.1342 5.04909L50.6768 5.18959C50.5841 5.21708 50.5333 5.31177 50.5632 5.40646L50.7217 5.95627C50.8921 6.54578 51.505 6.88483 52.082 6.70767L52.384 6.61604C52.961 6.44193 53.2898 5.81576 53.1194 5.22624L52.8802 4.40154C52.7068 3.80592 52.1029 3.47297 51.5199 3.65013L51.2179 3.74177C51.0714 3.77843 50.922 3.70206 50.8771 3.5524L50.7575 3.1431C50.7157 2.99648 50.7994 2.8468 50.9429 2.80099L51.2449 2.70936C51.3884 2.66659 51.5408 2.74296 51.5827 2.88957L51.6245 3.03007C51.6515 3.12476 51.7441 3.17669 51.8368 3.1492L52.2942 3.0087C52.3869 2.98121 52.4378 2.88651 52.4079 2.79182L52.375 2.67881C52.2046 2.0893 51.5976 1.75025 51.0146 1.92741L50.7127 2.01904C50.1357 2.19315 49.8038 2.81932 49.9772 3.40883L50.0938 3.79675Z" fill="#767676"/>
<path d="M54.2952 5.15946C54.3938 5.64515 54.8543 5.95368 55.3267 5.85288L56.0622 5.69708C56.5316 5.59933 56.8396 5.12585 56.7409 4.64321L56.131 1.61602C56.0323 1.13032 55.5659 0.815681 55.0965 0.913432L54.361 1.06922C53.8856 1.17003 53.5836 1.64656 53.6822 2.13226L54.2952 5.15946ZM54.642 1.82984L55.1383 1.72598C55.231 1.70765 55.3267 1.75653 55.3446 1.85428L55.9247 4.72569C55.9426 4.82039 55.8798 4.92119 55.7871 4.93952L55.2908 5.04338C55.1981 5.06171 55.0995 4.99756 55.0815 4.90286L54.5045 2.03145C54.4835 1.93676 54.5493 1.85122 54.642 1.82984Z" fill="#767676"/>
<path d="M58.2205 5.31802L59.814 5.11336C59.9097 5.10114 59.9755 5.01561 59.9635 4.91786L59.9097 4.47494C59.8977 4.37719 59.814 4.31304 59.7184 4.32526L58.7706 4.44744L58.2922 0.56193C58.2803 0.464182 58.1966 0.400037 58.1009 0.412256L57.6255 0.473343C57.5298 0.485562 57.467 0.571096 57.479 0.668845L58.0351 5.17139C58.0411 5.26609 58.1278 5.33024 58.2205 5.31802Z" fill="#767676"/>
<path d="M61.1896 4.99733L61.6679 4.96374C61.7636 4.95763 61.8324 4.87515 61.8264 4.7774L61.5334 0.259554C61.5274 0.161804 61.4467 0.0823773 61.351 0.0915413L60.8727 0.125147C60.777 0.131257 60.7082 0.219844 60.7142 0.317593L61.0072 4.83544C61.0132 4.93319 61.0939 5.00344 61.1896 4.99733Z" fill="#767676"/>
<path d="M63.1837 4.8843H63.6262C63.7218 4.8843 63.7966 4.80793 63.7966 4.71018L63.7996 1.83582L64.6906 4.76212C64.7115 4.83848 64.7803 4.88736 64.855 4.88736H65.3603C65.456 4.88736 65.5307 4.81099 65.5307 4.71324L65.5367 0.177163C65.5367 0.0794154 65.462 0.00305758 65.3663 0.00305758H64.9088C64.8131 0.00305758 64.7384 0.0794154 64.7384 0.177163L64.7354 2.62696L63.9401 0.119124C63.9132 0.0488687 63.8504 0 63.7757 0H63.1867C63.091 0 63.0162 0.0763672 63.0162 0.174114L63.0103 4.71018C63.0132 4.80793 63.088 4.8843 63.1837 4.8843Z" fill="#767676"/>
<path d="M66.857 4.96386L68.4565 5.09827C68.5522 5.10743 68.633 5.03717 68.6419 4.93942L68.6778 4.49344C68.6868 4.39569 68.618 4.31321 68.5223 4.30405L67.5745 4.22462L67.6911 2.75532L68.2891 2.80419C68.3848 2.81336 68.4655 2.7431 68.4745 2.64535L68.5104 2.21464C68.5193 2.11689 68.4506 2.03441 68.3549 2.02525L67.7539 1.97637L67.8376 0.940828L68.7854 1.02025C68.8811 1.02942 68.9618 0.959162 68.9708 0.861412L69.0067 0.41542C69.0156 0.31767 68.9469 0.235195 68.8512 0.226031L67.2516 0.0916236C67.156 0.0824595 67.0752 0.152723 67.0663 0.250474L66.7045 4.77447C66.6925 4.87222 66.7613 4.9547 66.857 4.96386Z" fill="#767676"/>
<path d="M69.8789 5.2814L70.0075 5.29973L69.9028 5.45246C69.8789 5.48301 69.858 5.52272 69.852 5.56548L69.8341 5.69683C69.8251 5.75181 69.867 5.80679 69.9148 5.8129L70.145 5.8465C70.1928 5.85261 70.2466 5.8129 70.2526 5.75792L70.2586 5.72432C70.2645 5.69072 70.2885 5.65712 70.2974 5.6449L70.4529 5.41275C70.4708 5.37915 70.4828 5.34554 70.4887 5.31194L70.5694 4.73157C70.5814 4.63382 70.5246 4.55441 70.4439 4.54525L69.9895 4.47804C69.8939 4.46277 69.8101 4.52386 69.7982 4.61855L69.7324 5.08896C69.7205 5.18671 69.7832 5.26613 69.8789 5.2814Z" fill="#767676"/>
<path d="M71.7814 5.58054L72.9444 5.83103C73.5334 5.95932 74.1164 5.56832 74.239 4.96961L74.7741 2.38232C74.8997 1.77444 74.52 1.17879 73.931 1.05049L72.768 0.800006C72.6753 0.778624 72.5826 0.845824 72.5647 0.940518L71.6498 5.37283C71.6289 5.47058 71.6857 5.55916 71.7814 5.58054ZM73.2434 1.70724L73.7726 1.82026C73.9191 1.85081 74.0147 2.00049 73.9848 2.15017L73.4317 4.82604C73.4018 4.97572 73.2553 5.07348 73.1088 5.04293L72.5796 4.9299L73.2434 1.70724Z" fill="#767676"/>
<path d="M75.2442 6.40865L75.7046 6.54C75.7973 6.56749 75.89 6.51251 75.9139 6.42087L77.1188 2.05884C77.1457 1.96414 77.0949 1.86335 77.0022 1.83585L76.5418 1.7045C76.4491 1.677 76.3534 1.7381 76.3295 1.8328L75.1246 6.19483C75.0977 6.28646 75.1515 6.38116 75.2442 6.40865Z" fill="#767676"/>
<path d="M77.1783 6.99796L78.6942 7.53859C78.7839 7.57219 78.8795 7.52332 78.9124 7.43168L79.0559 7.01017C79.0888 6.91854 79.041 6.8208 78.9513 6.7872L78.0543 6.46648L78.5297 5.07671L79.0978 5.27831C79.1875 5.31191 79.2832 5.26303 79.316 5.1714L79.4566 4.76211C79.4895 4.67047 79.4416 4.57273 79.3519 4.53913L78.7839 4.33753L79.1217 3.35706L80.0187 3.67778C80.1084 3.71138 80.204 3.66251 80.2369 3.57088L80.3804 3.14936C80.4133 3.05773 80.3655 2.95998 80.2758 2.92638L78.7599 2.38575C78.6702 2.35215 78.5746 2.40103 78.5417 2.49266L77.0737 6.77498C77.0438 6.86967 77.0886 6.96741 77.1783 6.99796Z" fill="#767676"/>
<path d="M80.802 8.41873L81.089 8.54705C81.6392 8.7945 82.2879 8.53787 82.5301 7.97575L82.868 7.19063C83.1131 6.6224 82.865 5.96862 82.3089 5.71811L82.0218 5.5898C81.8873 5.52259 81.8215 5.36373 81.8813 5.22015L82.0487 4.83217C82.1085 4.69164 82.27 4.63359 82.4075 4.69469L82.6946 4.823C82.8321 4.8841 82.8979 5.04296 82.8381 5.18349L82.7813 5.31791C82.7424 5.4065 82.7812 5.50732 82.868 5.54703L83.3045 5.74561C83.3912 5.78532 83.4898 5.74561 83.5287 5.65701L83.5765 5.54703C83.8187 4.98491 83.5735 4.32503 83.0174 4.07452L82.7304 3.94621C82.1803 3.69875 81.5315 3.95538 81.2893 4.5175L81.1309 4.88105C80.8887 5.44317 81.1458 6.09388 81.693 6.34744L81.98 6.47575C82.1175 6.53685 82.1833 6.69571 82.1235 6.83624L81.7647 7.6672C81.7049 7.80773 81.5435 7.87189 81.403 7.81079L81.1159 7.68248C80.9784 7.62138 80.9156 7.45641 80.9754 7.31282L81.2146 6.75681C81.2535 6.66822 81.2146 6.5674 81.1279 6.52769L80.6914 6.32911C80.6047 6.2894 80.506 6.32912 80.4671 6.41771L80.2399 6.94011C80.0007 7.50834 80.2519 8.17128 80.802 8.41873Z" fill="#767676"/>
<path d="M83.207 9.57932L84.6211 10.3582C84.7048 10.4041 84.8065 10.3735 84.8513 10.288L85.0576 9.89394C85.1025 9.80841 85.0726 9.70456 84.9889 9.65874L84.1517 9.19749L84.8364 7.90234L85.3656 8.19253C85.4493 8.23835 85.5509 8.2078 85.5958 8.12227L85.7961 7.74045C85.8409 7.65492 85.811 7.55106 85.7273 7.50525L85.1982 7.21505L85.6795 6.29867L86.5166 6.75992C86.6003 6.80574 86.702 6.77519 86.7498 6.68966L86.9561 6.29561C87.001 6.21008 86.9711 6.10623 86.8874 6.06041L85.4732 5.28149C85.3895 5.23567 85.2878 5.26621 85.243 5.35174L83.1382 9.34412C83.0904 9.42965 83.1203 9.5335 83.207 9.57932Z" fill="#767676"/>
<path d="M85.8669 11.1065L87.2213 11.9862C87.302 12.0381 87.4066 12.0137 87.4575 11.9312L87.6907 11.5555C87.7415 11.473 87.7176 11.3661 87.6398 11.3142L86.8326 10.7919L88.8866 7.48377C88.9374 7.4013 88.9135 7.29438 88.8328 7.24246L88.4292 6.97977C88.3484 6.92784 88.2438 6.95227 88.193 7.03475L85.8131 10.8652C85.7622 10.9477 85.7861 11.0546 85.8669 11.1065Z" fill="#767676"/>
<path d="M88.5445 12.1422L88.2723 12.527C88.2155 12.6065 88.2365 12.7073 88.3142 12.7653L88.4189 12.8417L88.2574 12.9272C88.2215 12.9424 88.1856 12.9699 88.1617 13.0035L88.087 13.1105C88.0541 13.1563 88.066 13.2235 88.1049 13.254L88.2933 13.3915C88.3322 13.4189 88.3979 13.4098 88.4308 13.364L88.4518 13.3365C88.4727 13.309 88.5086 13.2907 88.5235 13.2846L88.7657 13.1532C88.7956 13.1318 88.8225 13.1074 88.8435 13.0799L89.1784 12.6034C89.2352 12.524 89.2202 12.4262 89.1514 12.3774L88.7807 12.1055C88.6999 12.0505 88.5983 12.0628 88.5445 12.1422Z" fill="#767676"/>
<path d="M90.2502 14.2621C90.3249 14.3232 90.4296 14.311 90.4894 14.2377L91.781 12.6126L92.2534 13.0036C92.3282 13.0646 92.4328 13.0524 92.4926 12.9791L92.7647 12.637C92.8245 12.5606 92.8155 12.4537 92.7408 12.3926L92.2684 12.0016L92.9052 11.2013L93.6467 11.8183C93.7214 11.8794 93.8261 11.8703 93.8859 11.7939L94.161 11.4456C94.2207 11.3693 94.2088 11.2624 94.137 11.2013L92.8903 10.1657C92.8155 10.1046 92.7109 10.1138 92.6511 10.1901L89.8496 13.7123C89.7898 13.7886 89.8017 13.8955 89.8735 13.9566L90.2502 14.2621Z" fill="#767676"/>
<path d="M92.6347 16.3697L93.1789 16.8982C93.5257 17.2342 94.0848 17.222 94.4166 16.8676L96.9879 14.1063C97.0536 14.036 97.0566 13.923 96.9849 13.8558L96.638 13.5198C96.5693 13.4526 96.4587 13.4617 96.3929 13.532L93.8785 16.2323C93.8127 16.3025 93.7021 16.3025 93.6333 16.2323L93.2656 15.8749C93.1968 15.8077 93.1878 15.6947 93.2536 15.6244L95.768 12.9241C95.8338 12.8538 95.8368 12.7408 95.765 12.6736L95.4182 12.3376C95.3495 12.2704 95.2388 12.2796 95.1731 12.3498L92.6018 15.1112C92.2759 15.4625 92.2879 16.0337 92.6347 16.3697Z" fill="#767676"/>
<path d="M94.7219 18.499L95.7923 19.7207C95.8551 19.7941 95.9627 19.8002 96.0344 19.733L96.3603 19.4336C96.4321 19.3695 96.4381 19.2595 96.3723 19.1862L95.7385 18.4623L96.8118 17.4788L97.2124 17.9369C97.2752 18.0102 97.3828 18.0163 97.4546 17.9491L97.7685 17.659C97.8402 17.5948 97.8462 17.4849 97.7804 17.4116L97.3798 16.9534L98.1362 16.26L98.7701 16.9809C98.8328 17.0542 98.9405 17.0603 99.0122 16.9931L99.3381 16.6938C99.4099 16.6296 99.4158 16.5197 99.3501 16.4463L98.2797 15.2245C98.217 15.1512 98.1093 15.1451 98.0376 15.2123L94.7309 18.2393C94.6622 18.3187 94.6592 18.4256 94.7219 18.499Z" fill="#767676"/>
<path d="M96.7065 20.8508L97.6902 22.1459C97.75 22.2223 97.8546 22.2375 97.9294 22.1765L98.2762 21.9016C98.351 21.8405 98.3659 21.7336 98.3061 21.6572L97.7201 20.8845L100.749 18.4867C100.824 18.4257 100.839 18.3188 100.779 18.2424L100.486 17.8575C100.426 17.7812 100.321 17.7659 100.247 17.827L96.7364 20.6034C96.6617 20.6645 96.6497 20.7714 96.7065 20.8508Z" fill="#767676"/>
<path d="M100.008 25.7201L100.384 26.383C100.624 26.8045 101.162 26.9542 101.58 26.7067L104.197 25.152C104.615 24.9015 104.759 24.3486 104.519 23.9271L104.143 23.2642C103.898 22.8366 103.359 22.6961 102.941 22.9435L100.325 24.4983C99.903 24.7487 99.7625 25.2925 100.008 25.7201ZM100.812 25.1764L103.291 23.701C103.374 23.6522 103.473 23.6888 103.521 23.7743L103.775 24.2203C103.823 24.3058 103.805 24.4127 103.721 24.4616L101.24 25.937C101.156 25.9859 101.045 25.9553 100.997 25.8728L100.743 25.4269C100.701 25.3413 100.731 25.2253 100.812 25.1764Z" fill="#767676"/>
<path d="M101.437 28.3868L101.649 28.8236C101.691 28.9121 101.793 28.9457 101.876 28.903L105.853 26.8961C105.94 26.8534 105.979 26.7465 105.937 26.6579L105.724 26.2211C105.683 26.1325 105.575 26.102 105.488 26.1447L101.512 28.1516C101.428 28.1974 101.392 28.3012 101.437 28.3868Z" fill="#767676"/>
<path d="M106.704 28.3502C106.669 28.2586 106.57 28.2188 106.48 28.2555L102.387 30.015C102.301 30.0516 102.259 30.1524 102.298 30.2441L102.919 31.7561C102.955 31.8447 103.054 31.8875 103.144 31.8478L103.547 31.6737C103.637 31.637 103.676 31.5362 103.64 31.4446L103.269 30.5434L106.803 29.0253C106.89 28.9886 106.932 28.8878 106.896 28.7962L106.704 28.3502Z" fill="#767676"/>
</svg>
